M48
INCH,TZ
T1C0.016
T2C0.030
T3C0.040
T4C0.035
%
G90
G05
T1
X-1201Y-3287
X433Y-4232
X472Y-1909
X2559Y-787
X2598Y-1890
X2854Y-11732
X3543Y1181
X4508Y-9469
X4724Y-1378
X5039Y-10512
X5965Y-6713
X6870Y-9075
X7382Y-8839
X7657Y-9094
X8051Y-7303
X8327Y-3701
X8445Y-9035
X8465Y-2559
X9114Y-9173
X9350Y-6969
X9370Y-5709
X9370Y-6260
X10236Y-3740
X10276Y-5610
X10551Y-8819
X10965Y-7618
T2
X-3813Y-153
X-3106Y554
X-3106Y-860
X-2398Y1261
X-2398Y-153
X-1691Y1969
X-1691Y554
X-984Y2676
X-984Y1261
X-277Y3383
X-277Y1969
X430Y4090
X430Y2676
X1137Y4797
X1137Y3383
X1844Y4090
X3741Y3899
X4195Y4790
X4632Y3445
X5086Y4336
X5523Y2991
X5977Y3882
X6414Y2537
X6868Y3428
X7305Y2083
X7759Y2974
X8196Y1629
X8650Y2520
X9087Y1175
X9541Y2066
X9978Y721
X10432Y1612
T3
X1142Y-5394
X1908Y-6036
T4
X684Y-10918
X1798Y-9591
T0
M30
