G04 #@! TF.FileFunction,Copper,L2,Bot,Signal*
%FSLAX46Y46*%
G04 Gerber Fmt 4.6, Leading zero omitted, Abs format (unit mm)*
G04 Created by KiCad (PCBNEW 4.0.2+dfsg1-stable) date Tue 19 Jul 2016 04:40:27 PM CEST*
%MOMM*%
G01*
G04 APERTURE LIST*
%ADD10C,0.100000*%
%ADD11R,1.587500X1.587500*%
%ADD12C,1.727200*%
%ADD13C,1.524000*%
%ADD14C,0.600000*%
%ADD15C,0.250000*%
%ADD16C,0.300000*%
%ADD17C,0.254000*%
G04 APERTURE END LIST*
D10*
D11*
X14050000Y-18780000D03*
X14050000Y-21320000D03*
X16590000Y-21320000D03*
X19130000Y-21320000D03*
X21670000Y-18780000D03*
X21670000Y-21320000D03*
X24210000Y-18780000D03*
X24210000Y-21320000D03*
X26750000Y-18780000D03*
X26750000Y-21320000D03*
D10*
G36*
X1683333Y-13806445D02*
X2793555Y-12483333D01*
X4116667Y-13593555D01*
X3006445Y-14916667D01*
X1683333Y-13806445D01*
X1683333Y-13806445D01*
G37*
D12*
X4845753Y-15332681D02*
X4845753Y-15332681D01*
D13*
X-7888154Y-2184205D03*
X-9684205Y-388154D03*
X-6092102Y-388154D03*
X-7888154Y1407898D03*
X-4296051Y1407898D03*
X-6092102Y3203949D03*
X-2500000Y3203949D03*
X-4296051Y5000000D03*
X-703949Y5000000D03*
X-2500000Y6796051D03*
X1092102Y6796051D03*
X-703949Y8592102D03*
X2888154Y8592102D03*
X1092102Y10388154D03*
X4684205Y10388154D03*
X2888154Y12184205D03*
X9502384Y9904397D03*
X10655520Y12167554D03*
X11765541Y8751261D03*
X12918677Y11014418D03*
X14028697Y7598126D03*
X15181833Y9861282D03*
X16291854Y6444990D03*
X17444990Y8708146D03*
X18555010Y5291854D03*
X19708146Y7555010D03*
X20818167Y4138718D03*
X21971303Y6401874D03*
X23081323Y2985582D03*
X24234459Y5248739D03*
X25344480Y1832446D03*
X26497616Y4095603D03*
D14*
X23150000Y-23300000D03*
X6600000Y-4800000D03*
X21500000Y-6500000D03*
X7250000Y-29800000D03*
X15150000Y-17050000D03*
X26100000Y-14250000D03*
X12800000Y-26700000D03*
X-3050000Y-8350000D03*
X26000000Y-9500000D03*
X9000000Y3000000D03*
X6500000Y-2000000D03*
X23800000Y-15900000D03*
X23800000Y-14500000D03*
X11450000Y-24050000D03*
X1200000Y-4850000D03*
X1100000Y-10750000D03*
X21150000Y-9400000D03*
X12000000Y-3500000D03*
X20450000Y-18550000D03*
X17450000Y-23050000D03*
X18750000Y-22450000D03*
X19450000Y-23100000D03*
X23750000Y-17700000D03*
X21450000Y-22950000D03*
X27850000Y-19350000D03*
X26800000Y-22400000D03*
D15*
X23150000Y-23300000D02*
X23150000Y-23350000D01*
D16*
X12800000Y-26700000D02*
X12800000Y-26650000D01*
D15*
X23800000Y-14500000D02*
X23800000Y-15900000D01*
X14050000Y-18780000D02*
X13220000Y-18780000D01*
X13220000Y-18780000D02*
X11450000Y-20550000D01*
D16*
X11450000Y-18750000D02*
X15600000Y-15241753D01*
X11450000Y-24050000D02*
X11450000Y-20550000D01*
X11450000Y-20550000D02*
X11450000Y-18750000D01*
X15600000Y-15241753D02*
X21150000Y-10550000D01*
X21150000Y-10550000D02*
X21150000Y-9400000D01*
X21150000Y-9400000D02*
X21150000Y-8750000D01*
X15900000Y-3500000D02*
X12000000Y-3500000D01*
X21150000Y-8750000D02*
X15900000Y-3500000D01*
X1200000Y-10650000D02*
X1200000Y-4850000D01*
X1100000Y-10750000D02*
X1200000Y-10650000D01*
D15*
X12000000Y-3500000D02*
X12000000Y-3500000D01*
X21670000Y-18780000D02*
X20680000Y-18780000D01*
X20680000Y-18780000D02*
X20450000Y-18550000D01*
X16590000Y-21320000D02*
X16590000Y-22190000D01*
X16590000Y-22190000D02*
X17450000Y-23050000D01*
X18750000Y-22450000D02*
X19130000Y-22070000D01*
X19130000Y-22070000D02*
X19130000Y-21320000D01*
X21670000Y-21320000D02*
X21380000Y-21320000D01*
X21380000Y-21320000D02*
X19450000Y-23100000D01*
X24210000Y-18780000D02*
X24210000Y-18160000D01*
X24210000Y-18160000D02*
X23750000Y-17700000D01*
X22400000Y-22950000D02*
X24030000Y-21320000D01*
X21450000Y-22950000D02*
X22400000Y-22950000D01*
X24030000Y-21320000D02*
X24210000Y-21320000D01*
X26750000Y-18780000D02*
X27280000Y-18780000D01*
X27280000Y-18780000D02*
X27850000Y-19350000D01*
X26750000Y-22350000D02*
X26750000Y-21320000D01*
X26800000Y-22400000D02*
X26750000Y-22350000D01*
D17*
G36*
X5978679Y15675819D02*
X6068057Y15668944D01*
X6146590Y15662903D01*
X6214428Y15653977D01*
X6303855Y15640219D01*
X6381605Y15627943D01*
X6452312Y15613439D01*
X6519374Y15597555D01*
X6597880Y15574830D01*
X6682732Y15550268D01*
X6759397Y15525403D01*
X6830112Y15501211D01*
X6896359Y15474354D01*
X6978770Y15438717D01*
X7054668Y15404984D01*
X7130452Y15368116D01*
X10634117Y13582740D01*
X10559023Y13588650D01*
X10387180Y13404399D01*
X10712261Y12403903D01*
X10669661Y12361303D01*
X10849269Y12181695D01*
X11119381Y12451807D01*
X11813875Y12677462D01*
X11861930Y12924786D01*
X11803129Y12987042D01*
X12897018Y12429624D01*
X12822180Y12435514D01*
X12650337Y12251263D01*
X12975418Y11250767D01*
X12932818Y11208167D01*
X13112426Y11028559D01*
X13382538Y11298671D01*
X14077032Y11524326D01*
X14125087Y11771650D01*
X14066486Y11833694D01*
X15159920Y11276508D01*
X15085336Y11282378D01*
X14913493Y11098127D01*
X15238574Y10097631D01*
X15195974Y10055031D01*
X15375582Y9875423D01*
X15645694Y10145535D01*
X16340188Y10371190D01*
X16388243Y10618514D01*
X16329841Y10680347D01*
X17422822Y10123392D01*
X17348493Y10129242D01*
X17176650Y9944991D01*
X17501731Y8944495D01*
X17459131Y8901895D01*
X17638739Y8722287D01*
X17908851Y8992399D01*
X18603345Y9218054D01*
X18651400Y9465378D01*
X18593199Y9526999D01*
X19685724Y8970276D01*
X19611649Y8976106D01*
X19439806Y8791855D01*
X19764887Y7791359D01*
X19722287Y7748759D01*
X19901895Y7569151D01*
X20172007Y7839263D01*
X20866501Y8064918D01*
X20914556Y8312242D01*
X20856554Y8373652D01*
X21948626Y7817160D01*
X21874806Y7822970D01*
X21702963Y7638719D01*
X22028044Y6638223D01*
X21985444Y6595623D01*
X22165052Y6416015D01*
X22435164Y6686127D01*
X23129658Y6911782D01*
X23177713Y7159106D01*
X23119911Y7220304D01*
X24211525Y6664046D01*
X24137962Y6669835D01*
X23966119Y6485584D01*
X24291200Y5485088D01*
X24248600Y5442488D01*
X24428208Y5262880D01*
X24698320Y5532992D01*
X25392814Y5758647D01*
X25440869Y6005971D01*
X25383268Y6066956D01*
X26474427Y5510930D01*
X26401119Y5516699D01*
X26229276Y5332448D01*
X26554357Y4331952D01*
X26511757Y4289352D01*
X26691365Y4109744D01*
X26961477Y4379856D01*
X27655971Y4605511D01*
X27704026Y4852835D01*
X27646626Y4913608D01*
X30727953Y3343443D01*
X30838887Y3283539D01*
X30937438Y3227224D01*
X31030969Y3166819D01*
X31121404Y3103907D01*
X31206257Y3038339D01*
X31293186Y2965562D01*
X31379568Y2887607D01*
X31459947Y2811247D01*
X31536289Y2730888D01*
X31607108Y2652413D01*
X31672039Y2570295D01*
X31744224Y2474048D01*
X31807618Y2384900D01*
X31864835Y2294142D01*
X31919898Y2201717D01*
X31967605Y2110118D01*
X32017730Y2005693D01*
X32062288Y1904425D01*
X32102622Y1801575D01*
X32138130Y1700972D01*
X32169855Y1595882D01*
X32198157Y1488735D01*
X32222428Y1379516D01*
X32242676Y1270176D01*
X32258912Y1158551D01*
X32270435Y1052923D01*
X32276170Y947789D01*
X32278340Y826271D01*
X32278340Y715506D01*
X32270597Y607102D01*
X32260206Y490727D01*
X32243489Y371617D01*
X28100434Y-25789037D01*
X28078646Y-25911046D01*
X28055697Y-26018143D01*
X28025433Y-26127092D01*
X27992740Y-26237430D01*
X27954651Y-26343681D01*
X27915745Y-26444838D01*
X27870100Y-26544066D01*
X27818507Y-26651549D01*
X27768496Y-26745801D01*
X27714945Y-26835690D01*
X27652487Y-26931459D01*
X27591018Y-27020687D01*
X27522685Y-27109119D01*
X27454602Y-27193222D01*
X27384077Y-27271371D01*
X27304639Y-27352899D01*
X27226819Y-27428724D01*
X27144938Y-27500620D01*
X27060792Y-27570741D01*
X26972388Y-27637044D01*
X26878455Y-27703841D01*
X26787431Y-27763204D01*
X26697532Y-27816761D01*
X26600629Y-27868179D01*
X26498107Y-27918394D01*
X26399239Y-27962981D01*
X26295457Y-28002898D01*
X26189170Y-28041000D01*
X26085121Y-28071830D01*
X25970045Y-28101664D01*
X25856393Y-28128048D01*
X25740777Y-28148694D01*
X-420756Y-32291888D01*
X-536811Y-32308468D01*
X-648023Y-32318223D01*
X-763649Y-32324417D01*
X-881126Y-32326478D01*
X-993739Y-32324431D01*
X-1101552Y-32318655D01*
X-1206811Y-32307172D01*
X-1318436Y-32290936D01*
X-1427776Y-32270688D01*
X-1536995Y-32246417D01*
X-1644142Y-32218115D01*
X-1749232Y-32186390D01*
X-1849835Y-32150882D01*
X-1952685Y-32110548D01*
X-2051169Y-32067215D01*
X-2150537Y-32018545D01*
X-2252785Y-31964291D01*
X-2342410Y-31912805D01*
X-2433119Y-31853647D01*
X-2526864Y-31789067D01*
X-2615049Y-31722928D01*
X-2698432Y-31655428D01*
X-2782450Y-31581412D01*
X-2859507Y-31508207D01*
X-2935867Y-31427828D01*
X-3013822Y-31341446D01*
X-3086599Y-31254517D01*
X-3152167Y-31169664D01*
X-3211842Y-31083881D01*
X-3273234Y-30985655D01*
X-3334560Y-30882033D01*
X-3391642Y-30776327D01*
X-3956414Y-29666954D01*
X-3964071Y-29657234D01*
X-3967804Y-29645438D01*
X-4016492Y-29556913D01*
X-4055550Y-29478794D01*
X-4089135Y-29406322D01*
X-4118232Y-29331761D01*
X-4147831Y-29250857D01*
X-4169955Y-29181081D01*
X-4188637Y-29109752D01*
X-4204225Y-29037005D01*
X-4216034Y-28966153D01*
X-4224602Y-28892468D01*
X-4229712Y-28820926D01*
X-4231620Y-28738882D01*
X-4231620Y-28665066D01*
X-4226460Y-28591110D01*
X-4218737Y-28508085D01*
X-4209475Y-28441705D01*
X-4193233Y-28364107D01*
X-4173403Y-28276856D01*
X-4151575Y-28198638D01*
X-4125739Y-28117440D01*
X-4095764Y-28036884D01*
X-4060197Y-27949942D01*
X-4058751Y-27946760D01*
X653158Y-27946760D01*
X817928Y-28345533D01*
X1122759Y-28650896D01*
X1521243Y-28816361D01*
X1952716Y-28816738D01*
X2351489Y-28651968D01*
X2656852Y-28347137D01*
X2822317Y-27948653D01*
X2822694Y-27517180D01*
X2657924Y-27118407D01*
X2353093Y-26813044D01*
X1954609Y-26647579D01*
X1523136Y-26647202D01*
X1124363Y-26811972D01*
X819000Y-27116803D01*
X653535Y-27515287D01*
X653158Y-27946760D01*
X-4058751Y-27946760D01*
X-4022740Y-27867537D01*
X-3976445Y-27777049D01*
X-3928721Y-27685752D01*
X-3881211Y-27605349D01*
X-3823549Y-27516795D01*
X-3757518Y-27419949D01*
X-3692035Y-27329119D01*
X-3622539Y-27239183D01*
X-3543962Y-27145327D01*
X-3453355Y-27040028D01*
X-3450977Y-27035818D01*
X-3447208Y-27032793D01*
X-1386539Y-24576716D01*
X3480961Y-24576716D01*
X3645731Y-24975489D01*
X3950562Y-25280852D01*
X4349046Y-25446317D01*
X4780519Y-25446694D01*
X5179292Y-25281924D01*
X5484655Y-24977093D01*
X5650120Y-24578609D01*
X5650420Y-24235167D01*
X10514838Y-24235167D01*
X10656883Y-24578943D01*
X10919673Y-24842192D01*
X11263201Y-24984838D01*
X11635167Y-24985162D01*
X11978943Y-24843117D01*
X12242192Y-24580327D01*
X12384838Y-24236799D01*
X12385162Y-23864833D01*
X12243117Y-23521057D01*
X12235000Y-23512926D01*
X12235000Y-21605750D01*
X12621250Y-21605750D01*
X12621250Y-22240060D01*
X12717923Y-22473449D01*
X12896552Y-22652077D01*
X13129941Y-22748750D01*
X13764250Y-22748750D01*
X13923000Y-22590000D01*
X13923000Y-21447000D01*
X12780000Y-21447000D01*
X12621250Y-21605750D01*
X12235000Y-21605750D01*
X12235000Y-20839802D01*
X12621250Y-20453552D01*
X12621250Y-21034250D01*
X12780000Y-21193000D01*
X13923000Y-21193000D01*
X13923000Y-21173000D01*
X14177000Y-21173000D01*
X14177000Y-21193000D01*
X14197000Y-21193000D01*
X14197000Y-21447000D01*
X14177000Y-21447000D01*
X14177000Y-22590000D01*
X14335750Y-22748750D01*
X14970059Y-22748750D01*
X15203448Y-22652077D01*
X15315784Y-22539742D01*
X15332160Y-22565191D01*
X15544360Y-22710181D01*
X15796250Y-22761190D01*
X16086388Y-22761190D01*
X16514878Y-23189680D01*
X16514838Y-23235167D01*
X16656883Y-23578943D01*
X16919673Y-23842192D01*
X17263201Y-23984838D01*
X17635167Y-23985162D01*
X17978943Y-23843117D01*
X18242192Y-23580327D01*
X18358638Y-23299896D01*
X18554534Y-23381239D01*
X18656883Y-23628943D01*
X18919673Y-23892192D01*
X19263201Y-24034838D01*
X19635167Y-24035162D01*
X19978943Y-23893117D01*
X20242192Y-23630327D01*
X20384838Y-23286799D01*
X20384851Y-23271685D01*
X20519815Y-23147211D01*
X20656883Y-23478943D01*
X20919673Y-23742192D01*
X21263201Y-23884838D01*
X21635167Y-23885162D01*
X21978943Y-23743117D01*
X22012118Y-23710000D01*
X22400000Y-23710000D01*
X22690839Y-23652148D01*
X22937401Y-23487401D01*
X23663612Y-22761190D01*
X25003750Y-22761190D01*
X25239067Y-22716912D01*
X25455191Y-22577840D01*
X25478422Y-22543841D01*
X25492160Y-22565191D01*
X25704360Y-22710181D01*
X25935863Y-22757062D01*
X26006883Y-22928943D01*
X26269673Y-23192192D01*
X26613201Y-23334838D01*
X26985167Y-23335162D01*
X27328943Y-23193117D01*
X27592192Y-22930327D01*
X27672482Y-22736967D01*
X27779067Y-22716912D01*
X27995191Y-22577840D01*
X28140181Y-22365640D01*
X28191190Y-22113750D01*
X28191190Y-20526250D01*
X28146912Y-20290933D01*
X28120508Y-20249900D01*
X28378943Y-20143117D01*
X28642192Y-19880327D01*
X28784838Y-19536799D01*
X28785162Y-19164833D01*
X28643117Y-18821057D01*
X28380327Y-18557808D01*
X28191190Y-18479271D01*
X28191190Y-17986250D01*
X28146912Y-17750933D01*
X28007840Y-17534809D01*
X27795640Y-17389819D01*
X27543750Y-17338810D01*
X25956250Y-17338810D01*
X25720933Y-17383088D01*
X25504809Y-17522160D01*
X25481578Y-17556159D01*
X25467840Y-17534809D01*
X25255640Y-17389819D01*
X25003750Y-17338810D01*
X24612431Y-17338810D01*
X24543117Y-17171057D01*
X24280327Y-16907808D01*
X24045421Y-16810266D01*
X24328943Y-16693117D01*
X24592192Y-16430327D01*
X24734838Y-16086799D01*
X24735162Y-15714833D01*
X24593117Y-15371057D01*
X24560000Y-15337882D01*
X24560000Y-15062463D01*
X24592192Y-15030327D01*
X24734838Y-14686799D01*
X24735162Y-14314833D01*
X24593117Y-13971057D01*
X24330327Y-13707808D01*
X23986799Y-13565162D01*
X23614833Y-13564838D01*
X23271057Y-13706883D01*
X23007808Y-13969673D01*
X22865162Y-14313201D01*
X22864838Y-14685167D01*
X23006883Y-15028943D01*
X23040000Y-15062118D01*
X23040000Y-15337537D01*
X23007808Y-15369673D01*
X22865162Y-15713201D01*
X22864838Y-16085167D01*
X23006883Y-16428943D01*
X23269673Y-16692192D01*
X23504579Y-16789734D01*
X23221057Y-16906883D01*
X22957808Y-17169673D01*
X22833076Y-17470060D01*
X22715640Y-17389819D01*
X22463750Y-17338810D01*
X20876250Y-17338810D01*
X20640933Y-17383088D01*
X20424809Y-17522160D01*
X20361427Y-17614922D01*
X20264833Y-17614838D01*
X19921057Y-17756883D01*
X19657808Y-18019673D01*
X19515162Y-18363201D01*
X19514838Y-18735167D01*
X19656883Y-19078943D01*
X19919673Y-19342192D01*
X20228810Y-19470558D01*
X20228810Y-19573750D01*
X20273088Y-19809067D01*
X20412160Y-20025191D01*
X20446159Y-20048422D01*
X20424809Y-20062160D01*
X20401578Y-20096159D01*
X20387840Y-20074809D01*
X20175640Y-19929819D01*
X19923750Y-19878810D01*
X18336250Y-19878810D01*
X18100933Y-19923088D01*
X17884809Y-20062160D01*
X17861578Y-20096159D01*
X17847840Y-20074809D01*
X17635640Y-19929819D01*
X17383750Y-19878810D01*
X15796250Y-19878810D01*
X15560933Y-19923088D01*
X15344809Y-20062160D01*
X15317562Y-20102037D01*
X15269742Y-20054216D01*
X15295191Y-20037840D01*
X15440181Y-19825640D01*
X15491190Y-19573750D01*
X15491190Y-17986250D01*
X15446912Y-17750933D01*
X15307840Y-17534809D01*
X15095640Y-17389819D01*
X14843750Y-17338810D01*
X14335278Y-17338810D01*
X16106785Y-15841248D01*
X16106788Y-15841246D01*
X21656787Y-11149493D01*
X21677473Y-11123525D01*
X21705079Y-11105079D01*
X21772272Y-11004517D01*
X21847626Y-10909920D01*
X21856800Y-10878011D01*
X21875245Y-10850406D01*
X21898840Y-10731787D01*
X21932258Y-10615552D01*
X21928523Y-10582563D01*
X21935000Y-10550000D01*
X21935000Y-9937506D01*
X21942192Y-9930327D01*
X22084838Y-9586799D01*
X22085162Y-9214833D01*
X21943117Y-8871057D01*
X21935000Y-8862926D01*
X21935000Y-8750000D01*
X21875245Y-8449594D01*
X21875245Y-8449593D01*
X21705079Y-8194921D01*
X16455079Y-2944921D01*
X16200407Y-2774755D01*
X15900000Y-2715000D01*
X12537506Y-2715000D01*
X12530327Y-2707808D01*
X12186799Y-2565162D01*
X11814833Y-2564838D01*
X11471057Y-2706883D01*
X11207808Y-2969673D01*
X11065162Y-3313201D01*
X11064838Y-3685167D01*
X11206883Y-4028943D01*
X11469673Y-4292192D01*
X11813201Y-4434838D01*
X12185167Y-4435162D01*
X12528943Y-4293117D01*
X12537074Y-4285000D01*
X15574842Y-4285000D01*
X20299628Y-9009786D01*
X20215162Y-9213201D01*
X20214838Y-9585167D01*
X20356883Y-9928943D01*
X20365000Y-9937074D01*
X20365000Y-10185697D01*
X15093212Y-14642260D01*
X15093210Y-14642263D01*
X10943212Y-18150507D01*
X10922525Y-18176476D01*
X10894921Y-18194921D01*
X10827730Y-18295480D01*
X10752374Y-18390080D01*
X10743200Y-18421989D01*
X10724755Y-18449594D01*
X10701160Y-18568213D01*
X10667742Y-18684448D01*
X10671477Y-18717437D01*
X10665000Y-18750000D01*
X10665000Y-23512494D01*
X10657808Y-23519673D01*
X10515162Y-23863201D01*
X10514838Y-24235167D01*
X5650420Y-24235167D01*
X5650497Y-24147136D01*
X5485727Y-23748363D01*
X5180896Y-23443000D01*
X4782412Y-23277535D01*
X4350939Y-23277158D01*
X3952166Y-23441928D01*
X3646803Y-23746759D01*
X3481338Y-24145243D01*
X3480961Y-24576716D01*
X-1386539Y-24576716D01*
X3687652Y-18528873D01*
X3688623Y-18527104D01*
X3690190Y-18525832D01*
X3801950Y-18391212D01*
X3808807Y-18378557D01*
X3819639Y-18369080D01*
X3921239Y-18237000D01*
X3927323Y-18224701D01*
X3937325Y-18215304D01*
X4026225Y-18090844D01*
X4032144Y-18077728D01*
X4042257Y-18067493D01*
X4120997Y-17948113D01*
X4127221Y-17932830D01*
X4138310Y-17920606D01*
X4206890Y-17806305D01*
X4215681Y-17781772D01*
X4231849Y-17761333D01*
X4287729Y-17652112D01*
X4291845Y-17637611D01*
X4300731Y-17625431D01*
X4348991Y-17521291D01*
X4357807Y-17484886D01*
X4376840Y-17452627D01*
X4412400Y-17351027D01*
X4417018Y-17318333D01*
X4431302Y-17288562D01*
X4456702Y-17189502D01*
X4458688Y-17153198D01*
X4471255Y-17119083D01*
X4486495Y-17022563D01*
X4485369Y-16994245D01*
X4493188Y-16967001D01*
X4500808Y-16875561D01*
X4494797Y-16822693D01*
X4502267Y-16770012D01*
X4501828Y-16762118D01*
X4750646Y-16828270D01*
X5330223Y-16750821D01*
X5729538Y-16542940D01*
X5785882Y-16287330D01*
X4861407Y-15511603D01*
X4848551Y-15526924D01*
X4653976Y-15363655D01*
X4666831Y-15348335D01*
X4651510Y-15335479D01*
X4666993Y-15317027D01*
X5024675Y-15317027D01*
X5949150Y-16092754D01*
X6191093Y-15992880D01*
X6326475Y-15563533D01*
X6302105Y-14979313D01*
X6056019Y-14448889D01*
X5800821Y-14392052D01*
X5024675Y-15317027D01*
X4666993Y-15317027D01*
X4814779Y-15140904D01*
X4830099Y-15153759D01*
X5606245Y-14228784D01*
X5505958Y-13987333D01*
X4940860Y-13837092D01*
X4690906Y-13870493D01*
X4729975Y-13800997D01*
X4762361Y-13546042D01*
X4693005Y-13298574D01*
X4532833Y-13097587D01*
X3209721Y-11987365D01*
X3000997Y-11870025D01*
X2746042Y-11837639D01*
X2498574Y-11906995D01*
X2297587Y-12067167D01*
X1291568Y-13266095D01*
X-1486039Y-10935167D01*
X164838Y-10935167D01*
X306883Y-11278943D01*
X569673Y-11542192D01*
X913201Y-11684838D01*
X1285167Y-11685162D01*
X1628943Y-11543117D01*
X1892192Y-11280327D01*
X2034838Y-10936799D01*
X2035162Y-10564833D01*
X1985000Y-10443431D01*
X1985000Y-9983791D01*
X4239452Y-9983791D01*
X4242319Y-10000000D01*
X4239452Y-10016209D01*
X4244532Y-10254969D01*
X4248895Y-10274701D01*
X4246420Y-10294756D01*
X4264200Y-10536055D01*
X4268629Y-10552066D01*
X4267304Y-10568626D01*
X4295244Y-10807386D01*
X4301654Y-10827202D01*
X4301113Y-10848019D01*
X4341753Y-11084238D01*
X4347504Y-11099210D01*
X4347752Y-11115248D01*
X4398552Y-11351469D01*
X4407185Y-11371430D01*
X4408744Y-11393122D01*
X4472244Y-11624262D01*
X4479245Y-11638237D01*
X4480995Y-11653770D01*
X4554655Y-11884910D01*
X4564507Y-11902738D01*
X4567850Y-11922831D01*
X4654210Y-12151432D01*
X4663711Y-12166668D01*
X4667476Y-12184224D01*
X4763996Y-12407744D01*
X4776289Y-12425560D01*
X4782006Y-12446437D01*
X4891226Y-12664876D01*
X4901059Y-12677546D01*
X4905933Y-12692827D01*
X5025313Y-12908727D01*
X5038927Y-12924843D01*
X5046423Y-12944558D01*
X5178503Y-13155378D01*
X5190501Y-13168103D01*
X5197451Y-13184156D01*
X5339691Y-13389895D01*
X5356006Y-13405700D01*
X5366239Y-13425979D01*
X5521179Y-13624099D01*
X5534032Y-13635163D01*
X5542329Y-13649955D01*
X5707429Y-13842995D01*
X5722644Y-13854973D01*
X5732951Y-13871366D01*
X5910751Y-14059326D01*
X5928259Y-14071741D01*
X5940674Y-14089249D01*
X6128634Y-14267049D01*
X6145027Y-14277356D01*
X6157005Y-14292571D01*
X6350045Y-14457671D01*
X6364837Y-14465968D01*
X6375901Y-14478821D01*
X6574020Y-14633761D01*
X6594299Y-14643994D01*
X6610104Y-14660309D01*
X6815844Y-14802549D01*
X6831898Y-14809499D01*
X6844622Y-14821497D01*
X7055441Y-14953577D01*
X7075158Y-14961074D01*
X7091273Y-14974687D01*
X7307173Y-15094067D01*
X7322453Y-15098940D01*
X7335123Y-15108774D01*
X7553563Y-15217993D01*
X7574438Y-15223710D01*
X7592256Y-15236004D01*
X7815775Y-15332523D01*
X7833331Y-15336289D01*
X7848569Y-15345790D01*
X8077169Y-15432150D01*
X8097262Y-15435493D01*
X8115090Y-15445345D01*
X8346229Y-15519005D01*
X8361764Y-15520755D01*
X8375738Y-15527756D01*
X8606879Y-15591256D01*
X8628571Y-15592815D01*
X8648532Y-15601448D01*
X8884752Y-15652248D01*
X8900789Y-15652496D01*
X8915761Y-15658247D01*
X9151981Y-15698887D01*
X9172798Y-15698346D01*
X9192614Y-15704756D01*
X9431374Y-15732696D01*
X9447934Y-15731371D01*
X9463944Y-15735800D01*
X9705244Y-15753580D01*
X9725299Y-15751105D01*
X9745031Y-15755468D01*
X9983791Y-15760548D01*
X10000000Y-15757681D01*
X10016209Y-15760548D01*
X10254969Y-15755468D01*
X10274701Y-15751105D01*
X10294756Y-15753580D01*
X10536055Y-15735800D01*
X10552066Y-15731371D01*
X10568626Y-15732696D01*
X10807386Y-15704756D01*
X10827202Y-15698346D01*
X10848019Y-15698887D01*
X11084238Y-15658247D01*
X11099210Y-15652496D01*
X11115248Y-15652248D01*
X11351469Y-15601448D01*
X11371430Y-15592815D01*
X11393122Y-15591256D01*
X11624262Y-15527756D01*
X11638237Y-15520755D01*
X11653770Y-15519005D01*
X11884910Y-15445345D01*
X11902738Y-15435493D01*
X11922831Y-15432150D01*
X12151432Y-15345790D01*
X12166668Y-15336289D01*
X12184224Y-15332524D01*
X12407744Y-15236004D01*
X12425560Y-15223711D01*
X12446437Y-15217994D01*
X12664876Y-15108774D01*
X12677546Y-15098941D01*
X12692827Y-15094067D01*
X12908727Y-14974687D01*
X12924843Y-14961073D01*
X12944558Y-14953577D01*
X13155378Y-14821497D01*
X13168103Y-14809499D01*
X13184156Y-14802549D01*
X13389895Y-14660309D01*
X13405700Y-14643994D01*
X13425979Y-14633761D01*
X13624099Y-14478821D01*
X13635163Y-14465968D01*
X13649955Y-14457671D01*
X13842995Y-14292571D01*
X13854973Y-14277356D01*
X13871366Y-14267049D01*
X14059326Y-14089249D01*
X14071741Y-14071741D01*
X14089249Y-14059326D01*
X14267049Y-13871366D01*
X14277356Y-13854973D01*
X14292571Y-13842995D01*
X14457671Y-13649955D01*
X14465968Y-13635163D01*
X14478821Y-13624099D01*
X14633761Y-13425980D01*
X14643994Y-13405701D01*
X14660309Y-13389896D01*
X14802549Y-13184156D01*
X14809499Y-13168102D01*
X14821497Y-13155378D01*
X14953577Y-12944559D01*
X14961074Y-12924842D01*
X14974687Y-12908727D01*
X15094067Y-12692827D01*
X15098940Y-12677547D01*
X15108774Y-12664877D01*
X15217993Y-12446437D01*
X15223710Y-12425562D01*
X15236004Y-12407744D01*
X15332523Y-12184225D01*
X15336289Y-12166669D01*
X15345790Y-12151431D01*
X15432150Y-11922831D01*
X15435493Y-11902738D01*
X15445345Y-11884910D01*
X15519005Y-11653771D01*
X15520755Y-11638236D01*
X15527756Y-11624262D01*
X15591256Y-11393121D01*
X15592815Y-11371429D01*
X15601448Y-11351468D01*
X15652248Y-11115248D01*
X15652496Y-11099211D01*
X15658247Y-11084239D01*
X15698887Y-10848019D01*
X15698346Y-10827202D01*
X15704756Y-10807386D01*
X15732696Y-10568626D01*
X15731371Y-10552066D01*
X15735800Y-10536056D01*
X15753580Y-10294756D01*
X15751105Y-10274701D01*
X15755468Y-10254969D01*
X15760548Y-10016209D01*
X15757681Y-10000000D01*
X15760548Y-9983791D01*
X15755468Y-9745031D01*
X15751105Y-9725299D01*
X15753580Y-9705244D01*
X15735800Y-9463944D01*
X15731371Y-9447934D01*
X15732696Y-9431374D01*
X15704756Y-9192614D01*
X15698346Y-9172798D01*
X15698887Y-9151981D01*
X15658247Y-8915761D01*
X15652496Y-8900789D01*
X15652248Y-8884752D01*
X15601448Y-8648532D01*
X15592815Y-8628571D01*
X15591256Y-8606879D01*
X15527756Y-8375738D01*
X15520755Y-8361764D01*
X15519005Y-8346229D01*
X15445345Y-8115090D01*
X15435493Y-8097262D01*
X15432150Y-8077169D01*
X15345790Y-7848569D01*
X15336289Y-7833331D01*
X15332523Y-7815775D01*
X15236004Y-7592256D01*
X15223710Y-7574438D01*
X15217993Y-7553563D01*
X15108774Y-7335123D01*
X15098940Y-7322453D01*
X15094067Y-7307173D01*
X14974687Y-7091273D01*
X14961074Y-7075158D01*
X14953577Y-7055441D01*
X14821497Y-6844622D01*
X14809499Y-6831898D01*
X14802549Y-6815844D01*
X14660309Y-6610104D01*
X14643994Y-6594299D01*
X14633761Y-6574020D01*
X14478821Y-6375901D01*
X14465968Y-6364837D01*
X14457671Y-6350045D01*
X14292571Y-6157005D01*
X14277356Y-6145027D01*
X14267049Y-6128634D01*
X14089249Y-5940674D01*
X14076040Y-5931307D01*
X14066854Y-5917970D01*
X13975414Y-5829070D01*
X13966638Y-5823383D01*
X13960476Y-5814934D01*
X13863957Y-5726035D01*
X13858658Y-5722801D01*
X13854919Y-5717843D01*
X13760939Y-5634023D01*
X13747201Y-5625938D01*
X13737089Y-5613618D01*
X13638029Y-5532338D01*
X13632720Y-5529501D01*
X13628830Y-5524909D01*
X13529770Y-5446169D01*
X13524283Y-5443345D01*
X13520219Y-5438700D01*
X13421160Y-5362501D01*
X13411302Y-5357625D01*
X13403829Y-5349557D01*
X13302229Y-5275897D01*
X13286431Y-5268633D01*
X13274053Y-5256420D01*
X13065773Y-5119260D01*
X13049490Y-5112643D01*
X13036431Y-5100879D01*
X12929751Y-5037379D01*
X12923257Y-5035078D01*
X12918058Y-5030559D01*
X12811378Y-4969599D01*
X12801098Y-4966160D01*
X12792719Y-4959280D01*
X12683499Y-4900860D01*
X12676725Y-4898803D01*
X12671173Y-4894411D01*
X12561953Y-4838531D01*
X12555011Y-4836561D01*
X12549272Y-4832192D01*
X12440052Y-4778852D01*
X12429686Y-4776117D01*
X12420978Y-4769861D01*
X12309218Y-4719061D01*
X12294783Y-4715677D01*
X12282418Y-4707493D01*
X12170658Y-4661773D01*
X12167681Y-4661194D01*
X12165140Y-4659541D01*
X12050840Y-4613821D01*
X12036044Y-4611065D01*
X12023117Y-4603352D01*
X11908817Y-4562712D01*
X11901197Y-4561597D01*
X11894506Y-4557783D01*
X11780206Y-4519683D01*
X11770091Y-4518408D01*
X11761105Y-4513594D01*
X11644265Y-4478035D01*
X11638781Y-4477490D01*
X11633885Y-4474956D01*
X11519585Y-4441936D01*
X11509527Y-4441080D01*
X11500445Y-4436676D01*
X11383605Y-4406196D01*
X11373827Y-4405620D01*
X11364908Y-4401570D01*
X11245528Y-4373630D01*
X11231333Y-4373153D01*
X11218193Y-4367759D01*
X11101353Y-4344899D01*
X11099795Y-4344904D01*
X11098351Y-4344318D01*
X10978971Y-4321458D01*
X10964195Y-4321564D01*
X10950297Y-4316532D01*
X10833457Y-4298752D01*
X10824149Y-4299174D01*
X10815314Y-4296214D01*
X10695935Y-4280974D01*
X10695934Y-4280974D01*
X10576553Y-4265734D01*
X10552194Y-4267427D01*
X10528600Y-4261148D01*
X10409220Y-4253528D01*
X10408711Y-4253596D01*
X10408212Y-4253464D01*
X10286292Y-4245844D01*
X10278649Y-4246874D01*
X10271156Y-4245049D01*
X10151776Y-4239969D01*
X10143635Y-4241231D01*
X10135589Y-4239452D01*
X10016209Y-4236912D01*
X10008087Y-4238349D01*
X10000000Y-4236740D01*
X9991913Y-4238349D01*
X9983791Y-4236912D01*
X9864411Y-4239452D01*
X9856365Y-4241231D01*
X9848224Y-4239969D01*
X9728844Y-4245049D01*
X9721351Y-4246874D01*
X9713708Y-4245844D01*
X9591788Y-4253464D01*
X9591290Y-4253596D01*
X9590781Y-4253528D01*
X9471400Y-4261148D01*
X9447806Y-4267427D01*
X9423447Y-4265734D01*
X9184687Y-4296214D01*
X9175852Y-4299174D01*
X9166543Y-4298752D01*
X9049703Y-4316532D01*
X9035805Y-4321564D01*
X9021029Y-4321458D01*
X8901649Y-4344318D01*
X8900205Y-4344904D01*
X8898647Y-4344899D01*
X8781807Y-4367759D01*
X8768667Y-4373153D01*
X8754472Y-4373630D01*
X8635092Y-4401570D01*
X8626173Y-4405620D01*
X8616394Y-4406196D01*
X8499555Y-4436676D01*
X8490473Y-4441080D01*
X8480415Y-4441936D01*
X8366115Y-4474956D01*
X8361219Y-4477490D01*
X8355734Y-4478035D01*
X8238895Y-4513595D01*
X8229911Y-4518408D01*
X8219795Y-4519683D01*
X8105494Y-4557783D01*
X8098803Y-4561597D01*
X8091183Y-4562712D01*
X7976883Y-4603352D01*
X7963956Y-4611065D01*
X7949160Y-4613821D01*
X7834860Y-4659541D01*
X7832319Y-4661194D01*
X7829342Y-4661773D01*
X7717582Y-4707493D01*
X7705217Y-4715677D01*
X7690782Y-4719061D01*
X7579022Y-4769861D01*
X7570314Y-4776117D01*
X7559947Y-4778852D01*
X7450728Y-4832192D01*
X7444989Y-4836561D01*
X7438048Y-4838531D01*
X7328827Y-4894411D01*
X7323275Y-4898803D01*
X7316501Y-4900860D01*
X7207281Y-4959280D01*
X7198902Y-4966160D01*
X7188622Y-4969599D01*
X7081942Y-5030559D01*
X7076742Y-5035078D01*
X7070250Y-5037379D01*
X6963569Y-5100879D01*
X6950510Y-5112643D01*
X6934227Y-5119260D01*
X6725947Y-5256420D01*
X6713570Y-5268633D01*
X6697770Y-5275897D01*
X6596171Y-5349557D01*
X6588698Y-5357625D01*
X6578840Y-5362501D01*
X6479780Y-5438701D01*
X6475717Y-5443346D01*
X6470230Y-5446169D01*
X6371170Y-5524909D01*
X6367280Y-5529501D01*
X6361971Y-5532338D01*
X6262911Y-5613618D01*
X6252798Y-5625939D01*
X6239062Y-5634023D01*
X6145081Y-5717843D01*
X6141342Y-5722801D01*
X6136043Y-5726035D01*
X6039523Y-5814935D01*
X6033362Y-5823384D01*
X6024586Y-5829070D01*
X5933146Y-5917970D01*
X5923960Y-5931307D01*
X5910751Y-5940674D01*
X5732951Y-6128634D01*
X5722644Y-6145027D01*
X5707429Y-6157005D01*
X5542329Y-6350045D01*
X5534032Y-6364837D01*
X5521179Y-6375901D01*
X5366239Y-6574021D01*
X5356006Y-6594300D01*
X5339691Y-6610105D01*
X5197451Y-6815844D01*
X5190501Y-6831897D01*
X5178503Y-6844622D01*
X5046423Y-7055442D01*
X5038927Y-7075157D01*
X5025313Y-7091273D01*
X4905933Y-7307173D01*
X4901059Y-7322454D01*
X4891226Y-7335124D01*
X4782006Y-7553563D01*
X4776289Y-7574440D01*
X4763996Y-7592256D01*
X4667476Y-7815776D01*
X4663711Y-7833332D01*
X4654210Y-7848568D01*
X4567850Y-8077169D01*
X4564507Y-8097262D01*
X4554655Y-8115090D01*
X4480995Y-8346230D01*
X4479245Y-8361763D01*
X4472244Y-8375738D01*
X4408744Y-8606878D01*
X4407185Y-8628570D01*
X4398552Y-8648531D01*
X4347752Y-8884752D01*
X4347504Y-8900790D01*
X4341753Y-8915762D01*
X4301113Y-9151981D01*
X4301654Y-9172798D01*
X4295244Y-9192614D01*
X4267304Y-9431374D01*
X4268629Y-9447934D01*
X4264200Y-9463945D01*
X4246420Y-9705244D01*
X4248895Y-9725299D01*
X4244532Y-9745031D01*
X4239452Y-9983791D01*
X1985000Y-9983791D01*
X1985000Y-5387506D01*
X1992192Y-5380327D01*
X2134838Y-5036799D01*
X2135162Y-4664833D01*
X1993117Y-4321057D01*
X1730327Y-4057808D01*
X1386799Y-3915162D01*
X1014833Y-3914838D01*
X671057Y-4056883D01*
X407808Y-4319673D01*
X265162Y-4663201D01*
X264838Y-5035167D01*
X406883Y-5378943D01*
X415000Y-5387074D01*
X415000Y-10112668D01*
X307808Y-10219673D01*
X165162Y-10563201D01*
X164838Y-10935167D01*
X-1486039Y-10935167D01*
X-11131740Y-2840636D01*
X-11214612Y-2767870D01*
X-11285069Y-2699220D01*
X-11349097Y-2629857D01*
X-11412512Y-2553385D01*
X-11470928Y-2476714D01*
X-11519581Y-2404574D01*
X-11565574Y-2326739D01*
X-11607626Y-2247892D01*
X-11644218Y-2167736D01*
X-11679929Y-2079399D01*
X-11707882Y-2000472D01*
X-11728986Y-1922552D01*
X-11749716Y-1830207D01*
X-11764398Y-1748643D01*
X-11772615Y-1666472D01*
X-11777960Y-1577382D01*
X-11777960Y-1485622D01*
X-11774629Y-1400677D01*
X-11764573Y-1315198D01*
X-11749881Y-1221538D01*
X-11729495Y-1127020D01*
X-11706767Y-1037857D01*
X-11677267Y-949359D01*
X-11643822Y-861345D01*
X-11601410Y-769144D01*
X-11584600Y-735523D01*
X-11065567Y-735523D01*
X-10827485Y-1237705D01*
X-10415349Y-1610551D01*
X-10031574Y-1769516D01*
X-9811205Y-1647385D01*
X-9811205Y-581903D01*
X-9670064Y-581903D01*
X-9557205Y-694762D01*
X-9557205Y-1647385D01*
X-9336836Y-1769516D01*
X-9202082Y-1705630D01*
X-9284911Y-1905105D01*
X-9285396Y-2460866D01*
X-9073164Y-2974508D01*
X-8680524Y-3367834D01*
X-8167254Y-3580962D01*
X-7611493Y-3581447D01*
X-7097851Y-3369215D01*
X-6704525Y-2976575D01*
X-6491397Y-2463305D01*
X-6490912Y-1907544D01*
X-6576869Y-1699511D01*
X-6371202Y-1784911D01*
X-5815441Y-1785396D01*
X-5301799Y-1573164D01*
X-4908473Y-1180524D01*
X-4695345Y-667254D01*
X-4694860Y-111493D01*
X-4780818Y96541D01*
X-4575151Y11141D01*
X-4019390Y10656D01*
X-3505748Y222888D01*
X-3112422Y615528D01*
X-2899294Y1128798D01*
X-2898809Y1684559D01*
X-2984766Y1892592D01*
X-2779100Y1807192D01*
X-2223339Y1806707D01*
X-1709697Y2018939D01*
X-1316371Y2411579D01*
X-1103243Y2924849D01*
X-1102758Y3480610D01*
X-1188715Y3688643D01*
X-983049Y3603243D01*
X-427288Y3602758D01*
X86354Y3814990D01*
X479680Y4207630D01*
X692808Y4720900D01*
X693293Y5276661D01*
X607336Y5484694D01*
X813002Y5399294D01*
X1368763Y5398809D01*
X1882405Y5611041D01*
X2275731Y6003681D01*
X2488859Y6516951D01*
X2489344Y7072712D01*
X2403387Y7280745D01*
X2609054Y7195345D01*
X3164815Y7194860D01*
X3678457Y7407092D01*
X4071783Y7799732D01*
X4284911Y8313002D01*
X4285396Y8868763D01*
X4199438Y9076797D01*
X4405105Y8991397D01*
X4960866Y8990912D01*
X5474508Y9203144D01*
X5867834Y9595784D01*
X5881101Y9627736D01*
X8105142Y9627736D01*
X8317374Y9114094D01*
X8710014Y8720768D01*
X9223284Y8507640D01*
X9779045Y8507155D01*
X10292687Y8719387D01*
X10368579Y8795146D01*
X10368299Y8474600D01*
X10580531Y7960958D01*
X10973171Y7567632D01*
X11486441Y7354504D01*
X12042202Y7354019D01*
X12555844Y7566251D01*
X12631735Y7642009D01*
X12631455Y7321465D01*
X12843687Y6807823D01*
X13236327Y6414497D01*
X13749597Y6201369D01*
X14305358Y6200884D01*
X14819000Y6413116D01*
X14894892Y6488875D01*
X14894612Y6168329D01*
X15106844Y5654687D01*
X15499484Y5261361D01*
X16012754Y5048233D01*
X16568515Y5047748D01*
X17082157Y5259980D01*
X17158048Y5335738D01*
X17157768Y5015193D01*
X17370000Y4501551D01*
X17762640Y4108225D01*
X18275910Y3895097D01*
X18831671Y3894612D01*
X19345313Y4106844D01*
X19421205Y4182603D01*
X19420925Y3862057D01*
X19633157Y3348415D01*
X20025797Y2955089D01*
X20539067Y2741961D01*
X21094828Y2741476D01*
X21608470Y2953708D01*
X21684361Y3029466D01*
X21684081Y2708921D01*
X21896313Y2195279D01*
X22288953Y1801953D01*
X22802223Y1588825D01*
X23357984Y1588340D01*
X23871626Y1800572D01*
X23947518Y1876331D01*
X23947238Y1555785D01*
X24159470Y1042143D01*
X24552110Y648817D01*
X25065380Y435689D01*
X25621141Y435204D01*
X26134783Y647436D01*
X26528109Y1040076D01*
X26741237Y1553346D01*
X26741722Y2109107D01*
X26529490Y2622749D01*
X26467907Y2684439D01*
X26594113Y2674507D01*
X26765956Y2858758D01*
X26440875Y3859254D01*
X26483475Y3901854D01*
X26371265Y4014064D01*
X26657645Y4014064D01*
X27007524Y2937248D01*
X27254848Y2889193D01*
X27658880Y3270805D01*
X27886121Y3777985D01*
X27918712Y4192100D01*
X27734461Y4363943D01*
X26657645Y4014064D01*
X26371265Y4014064D01*
X26303867Y4081462D01*
X26033755Y3811350D01*
X25339261Y3585695D01*
X25291206Y3338371D01*
X25394127Y3229403D01*
X25067819Y3229688D01*
X24554177Y3017456D01*
X24478285Y2941697D01*
X24478565Y3262243D01*
X24266333Y3775885D01*
X24204750Y3837575D01*
X24330956Y3827643D01*
X24502799Y4011894D01*
X24177718Y5012390D01*
X24220318Y5054990D01*
X24248600Y5054990D01*
X24518712Y4784878D01*
X24744367Y4090384D01*
X24991691Y4042329D01*
X25087007Y4132356D01*
X25076520Y3999106D01*
X25260771Y3827263D01*
X26261267Y4152344D01*
X26303867Y4109744D01*
X26483475Y4289352D01*
X26213363Y4559464D01*
X25987708Y5253958D01*
X25740384Y5302013D01*
X25645068Y5211986D01*
X25655555Y5345236D01*
X25471304Y5517079D01*
X24470808Y5191998D01*
X24428208Y5234598D01*
X24248600Y5054990D01*
X24220318Y5054990D01*
X24040710Y5234598D01*
X23770598Y4964486D01*
X23076104Y4738831D01*
X23028049Y4491507D01*
X23130970Y4382539D01*
X22804662Y4382824D01*
X22291020Y4170592D01*
X22215129Y4094834D01*
X22215409Y4415379D01*
X22003177Y4929021D01*
X21941595Y4990710D01*
X22067800Y4980778D01*
X22239643Y5165029D01*
X21914562Y6165525D01*
X21957162Y6208125D01*
X21985444Y6208125D01*
X22255556Y5938013D01*
X22481211Y5243519D01*
X22728535Y5195464D01*
X22823850Y5285490D01*
X22813363Y5152242D01*
X22997614Y4980399D01*
X23998110Y5305480D01*
X24040710Y5262880D01*
X24220318Y5442488D01*
X23950206Y5712600D01*
X23724551Y6407094D01*
X23477227Y6455149D01*
X23381912Y6365123D01*
X23392399Y6498371D01*
X23208148Y6670214D01*
X22207652Y6345133D01*
X22165052Y6387733D01*
X21985444Y6208125D01*
X21957162Y6208125D01*
X21777554Y6387733D01*
X21507442Y6117621D01*
X20812948Y5891966D01*
X20764893Y5644642D01*
X20867813Y5535675D01*
X20541506Y5535960D01*
X20027864Y5323728D01*
X19951972Y5247969D01*
X19952252Y5568515D01*
X19740020Y6082157D01*
X19678438Y6143846D01*
X19804643Y6133914D01*
X19976486Y6318165D01*
X19651405Y7318661D01*
X19694005Y7361261D01*
X19722287Y7361261D01*
X19992399Y7091149D01*
X20218054Y6396655D01*
X20465378Y6348600D01*
X20560694Y6438627D01*
X20550207Y6305377D01*
X20734458Y6133534D01*
X21734954Y6458615D01*
X21777554Y6416015D01*
X21957162Y6595623D01*
X21687050Y6865735D01*
X21461395Y7560229D01*
X21214071Y7608284D01*
X21118755Y7518257D01*
X21129242Y7651507D01*
X20944991Y7823350D01*
X19944495Y7498269D01*
X19901895Y7540869D01*
X19722287Y7361261D01*
X19694005Y7361261D01*
X19514397Y7540869D01*
X19244285Y7270757D01*
X18549791Y7045102D01*
X18501736Y6797778D01*
X18604656Y6688811D01*
X18278349Y6689096D01*
X17764707Y6476864D01*
X17688816Y6401106D01*
X17689096Y6721651D01*
X17476864Y7235293D01*
X17415282Y7296982D01*
X17541487Y7287050D01*
X17713330Y7471301D01*
X17388249Y8471797D01*
X17430849Y8514397D01*
X17459131Y8514397D01*
X17729243Y8244285D01*
X17954898Y7549791D01*
X18202222Y7501736D01*
X18297537Y7591762D01*
X18287050Y7458513D01*
X18471301Y7286670D01*
X19471797Y7611751D01*
X19514397Y7569151D01*
X19694005Y7748759D01*
X19423893Y8018871D01*
X19198238Y8713365D01*
X18950914Y8761420D01*
X18855599Y8671394D01*
X18866086Y8804643D01*
X18681835Y8976486D01*
X17681339Y8651405D01*
X17638739Y8694005D01*
X17459131Y8514397D01*
X17430849Y8514397D01*
X17251241Y8694005D01*
X16981129Y8423893D01*
X16286635Y8198238D01*
X16238580Y7950914D01*
X16341500Y7841947D01*
X16015193Y7842232D01*
X15501551Y7630000D01*
X15425659Y7554241D01*
X15425939Y7874787D01*
X15213707Y8388429D01*
X15152125Y8450118D01*
X15278330Y8440186D01*
X15450173Y8624437D01*
X15125092Y9624933D01*
X15167692Y9667533D01*
X15195974Y9667533D01*
X15466086Y9397421D01*
X15691741Y8702927D01*
X15939065Y8654872D01*
X16034381Y8744899D01*
X16023894Y8611649D01*
X16208145Y8439806D01*
X17208641Y8764887D01*
X17251241Y8722287D01*
X17430849Y8901895D01*
X17160737Y9172007D01*
X16935082Y9866501D01*
X16687758Y9914556D01*
X16592442Y9824529D01*
X16602929Y9957779D01*
X16418678Y10129622D01*
X15418182Y9804541D01*
X15375582Y9847141D01*
X15195974Y9667533D01*
X15167692Y9667533D01*
X14988084Y9847141D01*
X14717972Y9577029D01*
X14023478Y9351374D01*
X13975423Y9104050D01*
X14078343Y8995083D01*
X13752036Y8995368D01*
X13238394Y8783136D01*
X13162503Y8707378D01*
X13162783Y9027922D01*
X12950551Y9541564D01*
X12888968Y9603254D01*
X13015174Y9593322D01*
X13187017Y9777573D01*
X12861936Y10778069D01*
X12904536Y10820669D01*
X12932818Y10820669D01*
X13202930Y10550557D01*
X13428585Y9856063D01*
X13675909Y9808008D01*
X13771224Y9898034D01*
X13760737Y9764785D01*
X13944988Y9592942D01*
X14945484Y9918023D01*
X14988084Y9875423D01*
X15167692Y10055031D01*
X14897580Y10325143D01*
X14671925Y11019637D01*
X14424601Y11067692D01*
X14329286Y10977666D01*
X14339773Y11110915D01*
X14155522Y11282758D01*
X13155026Y10957677D01*
X13112426Y11000277D01*
X12932818Y10820669D01*
X12904536Y10820669D01*
X12724928Y11000277D01*
X12454816Y10730165D01*
X11760322Y10504510D01*
X11712267Y10257186D01*
X11815188Y10148218D01*
X11488880Y10148503D01*
X10975238Y9936271D01*
X10899346Y9860512D01*
X10899626Y10181058D01*
X10687394Y10694700D01*
X10625811Y10756390D01*
X10752017Y10746458D01*
X10923860Y10930709D01*
X10598779Y11931205D01*
X10641379Y11973805D01*
X10669661Y11973805D01*
X10939773Y11703693D01*
X11165428Y11009199D01*
X11412752Y10961144D01*
X11508068Y11051171D01*
X11497581Y10917921D01*
X11681832Y10746078D01*
X12682328Y11071159D01*
X12724928Y11028559D01*
X12904536Y11208167D01*
X12634424Y11478279D01*
X12408769Y12172773D01*
X12161445Y12220828D01*
X12066129Y12130801D01*
X12076616Y12264051D01*
X11892365Y12435894D01*
X10891869Y12110813D01*
X10849269Y12153413D01*
X10669661Y11973805D01*
X10641379Y11973805D01*
X10461771Y12153413D01*
X10191659Y11883301D01*
X9497165Y11657646D01*
X9449110Y11410322D01*
X9552031Y11301354D01*
X9225723Y11301639D01*
X8712081Y11089407D01*
X8318755Y10696767D01*
X8105627Y10183497D01*
X8105142Y9627736D01*
X5881101Y9627736D01*
X6080962Y10109054D01*
X6081447Y10664815D01*
X5869215Y11178457D01*
X5476575Y11571783D01*
X4963305Y11784911D01*
X4407544Y11785396D01*
X4215308Y11705966D01*
X4269516Y11836836D01*
X4147385Y12057205D01*
X3194762Y12057205D01*
X3180910Y12071057D01*
X9234424Y12071057D01*
X9418675Y11899214D01*
X10495491Y12249093D01*
X10145612Y13325909D01*
X9898288Y13373964D01*
X9494256Y12992352D01*
X9267015Y12485172D01*
X9234424Y12071057D01*
X3180910Y12071057D01*
X3081903Y12170064D01*
X2902295Y11990456D01*
X3015154Y11877597D01*
X3015154Y10924974D01*
X3235523Y10802843D01*
X3370277Y10866729D01*
X3287448Y10667254D01*
X3286963Y10111493D01*
X3372921Y9903459D01*
X3167254Y9988859D01*
X2611493Y9989344D01*
X2419255Y9909913D01*
X2473464Y10040785D01*
X2351333Y10261154D01*
X1398710Y10261154D01*
X1285851Y10374013D01*
X1106243Y10194405D01*
X1219102Y10081546D01*
X1219102Y9128923D01*
X1439471Y9006792D01*
X1574227Y9070679D01*
X1491397Y8871202D01*
X1490912Y8315441D01*
X1576869Y8107408D01*
X1371202Y8192808D01*
X815441Y8193293D01*
X623205Y8113863D01*
X677413Y8244733D01*
X555282Y8465102D01*
X-397341Y8465102D01*
X-510200Y8577961D01*
X-689808Y8398353D01*
X-576949Y8285494D01*
X-576949Y7332871D01*
X-356580Y7210740D01*
X-221826Y7274626D01*
X-304655Y7075151D01*
X-305140Y6519390D01*
X-219183Y6311357D01*
X-424849Y6396757D01*
X-980610Y6397242D01*
X-1172846Y6317812D01*
X-1118638Y6448682D01*
X-1240769Y6669051D01*
X-2193392Y6669051D01*
X-2306251Y6781910D01*
X-2485859Y6602302D01*
X-2373000Y6489443D01*
X-2373000Y5536820D01*
X-2152631Y5414689D01*
X-2017877Y5478575D01*
X-2100706Y5279100D01*
X-2101191Y4723339D01*
X-2015234Y4515306D01*
X-2220900Y4600706D01*
X-2776661Y4601191D01*
X-2968897Y4521761D01*
X-2914689Y4652631D01*
X-3036820Y4873000D01*
X-3989443Y4873000D01*
X-4102302Y4985859D01*
X-4281910Y4806251D01*
X-4169051Y4693392D01*
X-4169051Y3740769D01*
X-3948682Y3618638D01*
X-3813928Y3682524D01*
X-3896757Y3483049D01*
X-3897242Y2927288D01*
X-3811285Y2719255D01*
X-4016951Y2804655D01*
X-4572712Y2805140D01*
X-4764948Y2725710D01*
X-4710740Y2856580D01*
X-4832871Y3076949D01*
X-5785494Y3076949D01*
X-5898353Y3189808D01*
X-6077961Y3010200D01*
X-5965102Y2897341D01*
X-5965102Y1944718D01*
X-5744733Y1822587D01*
X-5609979Y1886473D01*
X-5692808Y1686998D01*
X-5693293Y1131237D01*
X-5607335Y923203D01*
X-5813002Y1008603D01*
X-6368763Y1009088D01*
X-6561001Y929657D01*
X-6506792Y1060529D01*
X-6628923Y1280898D01*
X-7581546Y1280898D01*
X-7694405Y1393757D01*
X-7874013Y1214149D01*
X-7761154Y1101290D01*
X-7761154Y148667D01*
X-7540785Y26536D01*
X-7406029Y90423D01*
X-7488859Y-109054D01*
X-7489344Y-664815D01*
X-7403387Y-872848D01*
X-7609054Y-787448D01*
X-8164815Y-786963D01*
X-8357051Y-866393D01*
X-8302843Y-735523D01*
X-8424974Y-515154D01*
X-9377597Y-515154D01*
X-9490456Y-402295D01*
X-9670064Y-581903D01*
X-9811205Y-581903D01*
X-9811205Y-515154D01*
X-10943436Y-515154D01*
X-11065567Y-735523D01*
X-11584600Y-735523D01*
X-11552906Y-672135D01*
X-11505301Y-588827D01*
X-11444555Y-497708D01*
X-11375579Y-400329D01*
X-11302537Y-307546D01*
X-11227423Y-219287D01*
X-11137056Y-126866D01*
X-11060364Y-50174D01*
X-10943436Y-261154D01*
X-9990813Y-261154D01*
X-9877954Y-374013D01*
X-9698346Y-194405D01*
X-9670064Y-194405D01*
X-9490456Y-374013D01*
X-9377597Y-261154D01*
X-8424974Y-261154D01*
X-8302843Y-40785D01*
X-8359009Y77686D01*
X-8235523Y26536D01*
X-8015154Y148667D01*
X-8015154Y1101290D01*
X-7902295Y1214149D01*
X-8081903Y1393757D01*
X-8194762Y1280898D01*
X-9147385Y1280898D01*
X-9269516Y1060529D01*
X-9213350Y942058D01*
X-9336836Y993208D01*
X-9557205Y871077D01*
X-9557205Y-81546D01*
X-9670064Y-194405D01*
X-9698346Y-194405D01*
X-9811205Y-81546D01*
X-9811205Y871077D01*
X-10022185Y988005D01*
X-9264312Y1745878D01*
X-9147385Y1534898D01*
X-8194762Y1534898D01*
X-8081903Y1422039D01*
X-7902295Y1601647D01*
X-7874013Y1601647D01*
X-7694405Y1422039D01*
X-7581546Y1534898D01*
X-6628923Y1534898D01*
X-6506792Y1755267D01*
X-6562958Y1873737D01*
X-6439471Y1822587D01*
X-6219102Y1944718D01*
X-6219102Y2897341D01*
X-6106243Y3010200D01*
X-6285851Y3189808D01*
X-6398710Y3076949D01*
X-7351333Y3076949D01*
X-7473464Y2856580D01*
X-7417298Y2738110D01*
X-7540785Y2789260D01*
X-7761154Y2667129D01*
X-7761154Y1714506D01*
X-7874013Y1601647D01*
X-7902295Y1601647D01*
X-8015154Y1714506D01*
X-8015154Y2667129D01*
X-8226134Y2784056D01*
X-7468261Y3541929D01*
X-7351333Y3330949D01*
X-6398710Y3330949D01*
X-6285851Y3218090D01*
X-6106243Y3397698D01*
X-6077961Y3397698D01*
X-5898353Y3218090D01*
X-5785494Y3330949D01*
X-4832871Y3330949D01*
X-4710740Y3551318D01*
X-4766906Y3669788D01*
X-4643420Y3618638D01*
X-4423051Y3740769D01*
X-4423051Y4693392D01*
X-4310192Y4806251D01*
X-4489800Y4985859D01*
X-4602659Y4873000D01*
X-5555282Y4873000D01*
X-5677413Y4652631D01*
X-5621247Y4534161D01*
X-5744733Y4585311D01*
X-5965102Y4463180D01*
X-5965102Y3510557D01*
X-6077961Y3397698D01*
X-6106243Y3397698D01*
X-6219102Y3510557D01*
X-6219102Y4463180D01*
X-6430082Y4580108D01*
X-5672210Y5337980D01*
X-5555282Y5127000D01*
X-4602659Y5127000D01*
X-4489800Y5014141D01*
X-4310192Y5193749D01*
X-4281910Y5193749D01*
X-4102302Y5014141D01*
X-3989443Y5127000D01*
X-3036820Y5127000D01*
X-2914689Y5347369D01*
X-2970855Y5465839D01*
X-2847369Y5414689D01*
X-2627000Y5536820D01*
X-2627000Y6489443D01*
X-2514141Y6602302D01*
X-2693749Y6781910D01*
X-2806608Y6669051D01*
X-3759231Y6669051D01*
X-3881362Y6448682D01*
X-3825196Y6330212D01*
X-3948682Y6381362D01*
X-4169051Y6259231D01*
X-4169051Y5306608D01*
X-4281910Y5193749D01*
X-4310192Y5193749D01*
X-4423051Y5306608D01*
X-4423051Y6259231D01*
X-4634031Y6376159D01*
X-3876159Y7134031D01*
X-3759231Y6923051D01*
X-2806608Y6923051D01*
X-2693749Y6810192D01*
X-2514141Y6989800D01*
X-2485859Y6989800D01*
X-2306251Y6810192D01*
X-2193392Y6923051D01*
X-1240769Y6923051D01*
X-1118638Y7143420D01*
X-1174804Y7261890D01*
X-1051318Y7210740D01*
X-830949Y7332871D01*
X-830949Y8285494D01*
X-718090Y8398353D01*
X-897698Y8577961D01*
X-1010557Y8465102D01*
X-1963180Y8465102D01*
X-2085311Y8244733D01*
X-2029145Y8126263D01*
X-2152631Y8177413D01*
X-2373000Y8055282D01*
X-2373000Y7102659D01*
X-2485859Y6989800D01*
X-2514141Y6989800D01*
X-2627000Y7102659D01*
X-2627000Y8055282D01*
X-2837980Y8172209D01*
X-2080107Y8930082D01*
X-1963180Y8719102D01*
X-1010557Y8719102D01*
X-897698Y8606243D01*
X-718090Y8785851D01*
X-689808Y8785851D01*
X-510200Y8606243D01*
X-397341Y8719102D01*
X555282Y8719102D01*
X677413Y8939471D01*
X621247Y9057942D01*
X744733Y9006792D01*
X965102Y9128923D01*
X965102Y10081546D01*
X1077961Y10194405D01*
X898353Y10374013D01*
X785494Y10261154D01*
X-167129Y10261154D01*
X-289260Y10040785D01*
X-233094Y9922314D01*
X-356580Y9973464D01*
X-576949Y9851333D01*
X-576949Y8898710D01*
X-689808Y8785851D01*
X-718090Y8785851D01*
X-830949Y8898710D01*
X-830949Y9851333D01*
X-1041929Y9968260D01*
X-284056Y10726133D01*
X-167129Y10515154D01*
X785494Y10515154D01*
X898353Y10402295D01*
X1077961Y10581903D01*
X1106243Y10581903D01*
X1285851Y10402295D01*
X1398710Y10515154D01*
X2351333Y10515154D01*
X2473464Y10735523D01*
X2417298Y10853993D01*
X2540785Y10802843D01*
X2761154Y10924974D01*
X2761154Y11877597D01*
X2874013Y11990456D01*
X2694405Y12170064D01*
X2581546Y12057205D01*
X1628923Y12057205D01*
X1506792Y11836836D01*
X1562958Y11718366D01*
X1439471Y11769516D01*
X1219102Y11647385D01*
X1219102Y10694762D01*
X1106243Y10581903D01*
X1077961Y10581903D01*
X965102Y10694762D01*
X965102Y11647385D01*
X754123Y11764312D01*
X1511996Y12522185D01*
X1628923Y12311205D01*
X2581546Y12311205D01*
X2694405Y12198346D01*
X2874013Y12377954D01*
X2761154Y12490813D01*
X2761154Y13443436D01*
X3015154Y13443436D01*
X3015154Y12311205D01*
X4147385Y12311205D01*
X4269516Y12531574D01*
X4031434Y13033756D01*
X3619298Y13406602D01*
X3235523Y13565567D01*
X3015154Y13443436D01*
X2761154Y13443436D01*
X2550174Y13560363D01*
X3836277Y14846466D01*
X3903328Y14911282D01*
X3963273Y14967360D01*
X4025257Y15019659D01*
X4093559Y15075542D01*
X4160060Y15125921D01*
X4223268Y15171891D01*
X4290636Y15216162D01*
X4366311Y15263729D01*
X4437554Y15306475D01*
X4510762Y15347146D01*
X4583879Y15385736D01*
X4651317Y15418543D01*
X4726368Y15450998D01*
X4803477Y15483465D01*
X4875363Y15509948D01*
X4952222Y15536242D01*
X5031356Y15560591D01*
X5110798Y15582998D01*
X5194637Y15603957D01*
X5267036Y15620665D01*
X5348534Y15634927D01*
X5431774Y15649494D01*
X5505587Y15658720D01*
X5587707Y15666932D01*
X5672955Y15673170D01*
X5756048Y15677325D01*
X5841133Y15679400D01*
X5908854Y15679400D01*
X5978679Y15675819D01*
X5978679Y15675819D01*
G37*
X5978679Y15675819D02*
X6068057Y15668944D01*
X6146590Y15662903D01*
X6214428Y15653977D01*
X6303855Y15640219D01*
X6381605Y15627943D01*
X6452312Y15613439D01*
X6519374Y15597555D01*
X6597880Y15574830D01*
X6682732Y15550268D01*
X6759397Y15525403D01*
X6830112Y15501211D01*
X6896359Y15474354D01*
X6978770Y15438717D01*
X7054668Y15404984D01*
X7130452Y15368116D01*
X10634117Y13582740D01*
X10559023Y13588650D01*
X10387180Y13404399D01*
X10712261Y12403903D01*
X10669661Y12361303D01*
X10849269Y12181695D01*
X11119381Y12451807D01*
X11813875Y12677462D01*
X11861930Y12924786D01*
X11803129Y12987042D01*
X12897018Y12429624D01*
X12822180Y12435514D01*
X12650337Y12251263D01*
X12975418Y11250767D01*
X12932818Y11208167D01*
X13112426Y11028559D01*
X13382538Y11298671D01*
X14077032Y11524326D01*
X14125087Y11771650D01*
X14066486Y11833694D01*
X15159920Y11276508D01*
X15085336Y11282378D01*
X14913493Y11098127D01*
X15238574Y10097631D01*
X15195974Y10055031D01*
X15375582Y9875423D01*
X15645694Y10145535D01*
X16340188Y10371190D01*
X16388243Y10618514D01*
X16329841Y10680347D01*
X17422822Y10123392D01*
X17348493Y10129242D01*
X17176650Y9944991D01*
X17501731Y8944495D01*
X17459131Y8901895D01*
X17638739Y8722287D01*
X17908851Y8992399D01*
X18603345Y9218054D01*
X18651400Y9465378D01*
X18593199Y9526999D01*
X19685724Y8970276D01*
X19611649Y8976106D01*
X19439806Y8791855D01*
X19764887Y7791359D01*
X19722287Y7748759D01*
X19901895Y7569151D01*
X20172007Y7839263D01*
X20866501Y8064918D01*
X20914556Y8312242D01*
X20856554Y8373652D01*
X21948626Y7817160D01*
X21874806Y7822970D01*
X21702963Y7638719D01*
X22028044Y6638223D01*
X21985444Y6595623D01*
X22165052Y6416015D01*
X22435164Y6686127D01*
X23129658Y6911782D01*
X23177713Y7159106D01*
X23119911Y7220304D01*
X24211525Y6664046D01*
X24137962Y6669835D01*
X23966119Y6485584D01*
X24291200Y5485088D01*
X24248600Y5442488D01*
X24428208Y5262880D01*
X24698320Y5532992D01*
X25392814Y5758647D01*
X25440869Y6005971D01*
X25383268Y6066956D01*
X26474427Y5510930D01*
X26401119Y5516699D01*
X26229276Y5332448D01*
X26554357Y4331952D01*
X26511757Y4289352D01*
X26691365Y4109744D01*
X26961477Y4379856D01*
X27655971Y4605511D01*
X27704026Y4852835D01*
X27646626Y4913608D01*
X30727953Y3343443D01*
X30838887Y3283539D01*
X30937438Y3227224D01*
X31030969Y3166819D01*
X31121404Y3103907D01*
X31206257Y3038339D01*
X31293186Y2965562D01*
X31379568Y2887607D01*
X31459947Y2811247D01*
X31536289Y2730888D01*
X31607108Y2652413D01*
X31672039Y2570295D01*
X31744224Y2474048D01*
X31807618Y2384900D01*
X31864835Y2294142D01*
X31919898Y2201717D01*
X31967605Y2110118D01*
X32017730Y2005693D01*
X32062288Y1904425D01*
X32102622Y1801575D01*
X32138130Y1700972D01*
X32169855Y1595882D01*
X32198157Y1488735D01*
X32222428Y1379516D01*
X32242676Y1270176D01*
X32258912Y1158551D01*
X32270435Y1052923D01*
X32276170Y947789D01*
X32278340Y826271D01*
X32278340Y715506D01*
X32270597Y607102D01*
X32260206Y490727D01*
X32243489Y371617D01*
X28100434Y-25789037D01*
X28078646Y-25911046D01*
X28055697Y-26018143D01*
X28025433Y-26127092D01*
X27992740Y-26237430D01*
X27954651Y-26343681D01*
X27915745Y-26444838D01*
X27870100Y-26544066D01*
X27818507Y-26651549D01*
X27768496Y-26745801D01*
X27714945Y-26835690D01*
X27652487Y-26931459D01*
X27591018Y-27020687D01*
X27522685Y-27109119D01*
X27454602Y-27193222D01*
X27384077Y-27271371D01*
X27304639Y-27352899D01*
X27226819Y-27428724D01*
X27144938Y-27500620D01*
X27060792Y-27570741D01*
X26972388Y-27637044D01*
X26878455Y-27703841D01*
X26787431Y-27763204D01*
X26697532Y-27816761D01*
X26600629Y-27868179D01*
X26498107Y-27918394D01*
X26399239Y-27962981D01*
X26295457Y-28002898D01*
X26189170Y-28041000D01*
X26085121Y-28071830D01*
X25970045Y-28101664D01*
X25856393Y-28128048D01*
X25740777Y-28148694D01*
X-420756Y-32291888D01*
X-536811Y-32308468D01*
X-648023Y-32318223D01*
X-763649Y-32324417D01*
X-881126Y-32326478D01*
X-993739Y-32324431D01*
X-1101552Y-32318655D01*
X-1206811Y-32307172D01*
X-1318436Y-32290936D01*
X-1427776Y-32270688D01*
X-1536995Y-32246417D01*
X-1644142Y-32218115D01*
X-1749232Y-32186390D01*
X-1849835Y-32150882D01*
X-1952685Y-32110548D01*
X-2051169Y-32067215D01*
X-2150537Y-32018545D01*
X-2252785Y-31964291D01*
X-2342410Y-31912805D01*
X-2433119Y-31853647D01*
X-2526864Y-31789067D01*
X-2615049Y-31722928D01*
X-2698432Y-31655428D01*
X-2782450Y-31581412D01*
X-2859507Y-31508207D01*
X-2935867Y-31427828D01*
X-3013822Y-31341446D01*
X-3086599Y-31254517D01*
X-3152167Y-31169664D01*
X-3211842Y-31083881D01*
X-3273234Y-30985655D01*
X-3334560Y-30882033D01*
X-3391642Y-30776327D01*
X-3956414Y-29666954D01*
X-3964071Y-29657234D01*
X-3967804Y-29645438D01*
X-4016492Y-29556913D01*
X-4055550Y-29478794D01*
X-4089135Y-29406322D01*
X-4118232Y-29331761D01*
X-4147831Y-29250857D01*
X-4169955Y-29181081D01*
X-4188637Y-29109752D01*
X-4204225Y-29037005D01*
X-4216034Y-28966153D01*
X-4224602Y-28892468D01*
X-4229712Y-28820926D01*
X-4231620Y-28738882D01*
X-4231620Y-28665066D01*
X-4226460Y-28591110D01*
X-4218737Y-28508085D01*
X-4209475Y-28441705D01*
X-4193233Y-28364107D01*
X-4173403Y-28276856D01*
X-4151575Y-28198638D01*
X-4125739Y-28117440D01*
X-4095764Y-28036884D01*
X-4060197Y-27949942D01*
X-4058751Y-27946760D01*
X653158Y-27946760D01*
X817928Y-28345533D01*
X1122759Y-28650896D01*
X1521243Y-28816361D01*
X1952716Y-28816738D01*
X2351489Y-28651968D01*
X2656852Y-28347137D01*
X2822317Y-27948653D01*
X2822694Y-27517180D01*
X2657924Y-27118407D01*
X2353093Y-26813044D01*
X1954609Y-26647579D01*
X1523136Y-26647202D01*
X1124363Y-26811972D01*
X819000Y-27116803D01*
X653535Y-27515287D01*
X653158Y-27946760D01*
X-4058751Y-27946760D01*
X-4022740Y-27867537D01*
X-3976445Y-27777049D01*
X-3928721Y-27685752D01*
X-3881211Y-27605349D01*
X-3823549Y-27516795D01*
X-3757518Y-27419949D01*
X-3692035Y-27329119D01*
X-3622539Y-27239183D01*
X-3543962Y-27145327D01*
X-3453355Y-27040028D01*
X-3450977Y-27035818D01*
X-3447208Y-27032793D01*
X-1386539Y-24576716D01*
X3480961Y-24576716D01*
X3645731Y-24975489D01*
X3950562Y-25280852D01*
X4349046Y-25446317D01*
X4780519Y-25446694D01*
X5179292Y-25281924D01*
X5484655Y-24977093D01*
X5650120Y-24578609D01*
X5650420Y-24235167D01*
X10514838Y-24235167D01*
X10656883Y-24578943D01*
X10919673Y-24842192D01*
X11263201Y-24984838D01*
X11635167Y-24985162D01*
X11978943Y-24843117D01*
X12242192Y-24580327D01*
X12384838Y-24236799D01*
X12385162Y-23864833D01*
X12243117Y-23521057D01*
X12235000Y-23512926D01*
X12235000Y-21605750D01*
X12621250Y-21605750D01*
X12621250Y-22240060D01*
X12717923Y-22473449D01*
X12896552Y-22652077D01*
X13129941Y-22748750D01*
X13764250Y-22748750D01*
X13923000Y-22590000D01*
X13923000Y-21447000D01*
X12780000Y-21447000D01*
X12621250Y-21605750D01*
X12235000Y-21605750D01*
X12235000Y-20839802D01*
X12621250Y-20453552D01*
X12621250Y-21034250D01*
X12780000Y-21193000D01*
X13923000Y-21193000D01*
X13923000Y-21173000D01*
X14177000Y-21173000D01*
X14177000Y-21193000D01*
X14197000Y-21193000D01*
X14197000Y-21447000D01*
X14177000Y-21447000D01*
X14177000Y-22590000D01*
X14335750Y-22748750D01*
X14970059Y-22748750D01*
X15203448Y-22652077D01*
X15315784Y-22539742D01*
X15332160Y-22565191D01*
X15544360Y-22710181D01*
X15796250Y-22761190D01*
X16086388Y-22761190D01*
X16514878Y-23189680D01*
X16514838Y-23235167D01*
X16656883Y-23578943D01*
X16919673Y-23842192D01*
X17263201Y-23984838D01*
X17635167Y-23985162D01*
X17978943Y-23843117D01*
X18242192Y-23580327D01*
X18358638Y-23299896D01*
X18554534Y-23381239D01*
X18656883Y-23628943D01*
X18919673Y-23892192D01*
X19263201Y-24034838D01*
X19635167Y-24035162D01*
X19978943Y-23893117D01*
X20242192Y-23630327D01*
X20384838Y-23286799D01*
X20384851Y-23271685D01*
X20519815Y-23147211D01*
X20656883Y-23478943D01*
X20919673Y-23742192D01*
X21263201Y-23884838D01*
X21635167Y-23885162D01*
X21978943Y-23743117D01*
X22012118Y-23710000D01*
X22400000Y-23710000D01*
X22690839Y-23652148D01*
X22937401Y-23487401D01*
X23663612Y-22761190D01*
X25003750Y-22761190D01*
X25239067Y-22716912D01*
X25455191Y-22577840D01*
X25478422Y-22543841D01*
X25492160Y-22565191D01*
X25704360Y-22710181D01*
X25935863Y-22757062D01*
X26006883Y-22928943D01*
X26269673Y-23192192D01*
X26613201Y-23334838D01*
X26985167Y-23335162D01*
X27328943Y-23193117D01*
X27592192Y-22930327D01*
X27672482Y-22736967D01*
X27779067Y-22716912D01*
X27995191Y-22577840D01*
X28140181Y-22365640D01*
X28191190Y-22113750D01*
X28191190Y-20526250D01*
X28146912Y-20290933D01*
X28120508Y-20249900D01*
X28378943Y-20143117D01*
X28642192Y-19880327D01*
X28784838Y-19536799D01*
X28785162Y-19164833D01*
X28643117Y-18821057D01*
X28380327Y-18557808D01*
X28191190Y-18479271D01*
X28191190Y-17986250D01*
X28146912Y-17750933D01*
X28007840Y-17534809D01*
X27795640Y-17389819D01*
X27543750Y-17338810D01*
X25956250Y-17338810D01*
X25720933Y-17383088D01*
X25504809Y-17522160D01*
X25481578Y-17556159D01*
X25467840Y-17534809D01*
X25255640Y-17389819D01*
X25003750Y-17338810D01*
X24612431Y-17338810D01*
X24543117Y-17171057D01*
X24280327Y-16907808D01*
X24045421Y-16810266D01*
X24328943Y-16693117D01*
X24592192Y-16430327D01*
X24734838Y-16086799D01*
X24735162Y-15714833D01*
X24593117Y-15371057D01*
X24560000Y-15337882D01*
X24560000Y-15062463D01*
X24592192Y-15030327D01*
X24734838Y-14686799D01*
X24735162Y-14314833D01*
X24593117Y-13971057D01*
X24330327Y-13707808D01*
X23986799Y-13565162D01*
X23614833Y-13564838D01*
X23271057Y-13706883D01*
X23007808Y-13969673D01*
X22865162Y-14313201D01*
X22864838Y-14685167D01*
X23006883Y-15028943D01*
X23040000Y-15062118D01*
X23040000Y-15337537D01*
X23007808Y-15369673D01*
X22865162Y-15713201D01*
X22864838Y-16085167D01*
X23006883Y-16428943D01*
X23269673Y-16692192D01*
X23504579Y-16789734D01*
X23221057Y-16906883D01*
X22957808Y-17169673D01*
X22833076Y-17470060D01*
X22715640Y-17389819D01*
X22463750Y-17338810D01*
X20876250Y-17338810D01*
X20640933Y-17383088D01*
X20424809Y-17522160D01*
X20361427Y-17614922D01*
X20264833Y-17614838D01*
X19921057Y-17756883D01*
X19657808Y-18019673D01*
X19515162Y-18363201D01*
X19514838Y-18735167D01*
X19656883Y-19078943D01*
X19919673Y-19342192D01*
X20228810Y-19470558D01*
X20228810Y-19573750D01*
X20273088Y-19809067D01*
X20412160Y-20025191D01*
X20446159Y-20048422D01*
X20424809Y-20062160D01*
X20401578Y-20096159D01*
X20387840Y-20074809D01*
X20175640Y-19929819D01*
X19923750Y-19878810D01*
X18336250Y-19878810D01*
X18100933Y-19923088D01*
X17884809Y-20062160D01*
X17861578Y-20096159D01*
X17847840Y-20074809D01*
X17635640Y-19929819D01*
X17383750Y-19878810D01*
X15796250Y-19878810D01*
X15560933Y-19923088D01*
X15344809Y-20062160D01*
X15317562Y-20102037D01*
X15269742Y-20054216D01*
X15295191Y-20037840D01*
X15440181Y-19825640D01*
X15491190Y-19573750D01*
X15491190Y-17986250D01*
X15446912Y-17750933D01*
X15307840Y-17534809D01*
X15095640Y-17389819D01*
X14843750Y-17338810D01*
X14335278Y-17338810D01*
X16106785Y-15841248D01*
X16106788Y-15841246D01*
X21656787Y-11149493D01*
X21677473Y-11123525D01*
X21705079Y-11105079D01*
X21772272Y-11004517D01*
X21847626Y-10909920D01*
X21856800Y-10878011D01*
X21875245Y-10850406D01*
X21898840Y-10731787D01*
X21932258Y-10615552D01*
X21928523Y-10582563D01*
X21935000Y-10550000D01*
X21935000Y-9937506D01*
X21942192Y-9930327D01*
X22084838Y-9586799D01*
X22085162Y-9214833D01*
X21943117Y-8871057D01*
X21935000Y-8862926D01*
X21935000Y-8750000D01*
X21875245Y-8449594D01*
X21875245Y-8449593D01*
X21705079Y-8194921D01*
X16455079Y-2944921D01*
X16200407Y-2774755D01*
X15900000Y-2715000D01*
X12537506Y-2715000D01*
X12530327Y-2707808D01*
X12186799Y-2565162D01*
X11814833Y-2564838D01*
X11471057Y-2706883D01*
X11207808Y-2969673D01*
X11065162Y-3313201D01*
X11064838Y-3685167D01*
X11206883Y-4028943D01*
X11469673Y-4292192D01*
X11813201Y-4434838D01*
X12185167Y-4435162D01*
X12528943Y-4293117D01*
X12537074Y-4285000D01*
X15574842Y-4285000D01*
X20299628Y-9009786D01*
X20215162Y-9213201D01*
X20214838Y-9585167D01*
X20356883Y-9928943D01*
X20365000Y-9937074D01*
X20365000Y-10185697D01*
X15093212Y-14642260D01*
X15093210Y-14642263D01*
X10943212Y-18150507D01*
X10922525Y-18176476D01*
X10894921Y-18194921D01*
X10827730Y-18295480D01*
X10752374Y-18390080D01*
X10743200Y-18421989D01*
X10724755Y-18449594D01*
X10701160Y-18568213D01*
X10667742Y-18684448D01*
X10671477Y-18717437D01*
X10665000Y-18750000D01*
X10665000Y-23512494D01*
X10657808Y-23519673D01*
X10515162Y-23863201D01*
X10514838Y-24235167D01*
X5650420Y-24235167D01*
X5650497Y-24147136D01*
X5485727Y-23748363D01*
X5180896Y-23443000D01*
X4782412Y-23277535D01*
X4350939Y-23277158D01*
X3952166Y-23441928D01*
X3646803Y-23746759D01*
X3481338Y-24145243D01*
X3480961Y-24576716D01*
X-1386539Y-24576716D01*
X3687652Y-18528873D01*
X3688623Y-18527104D01*
X3690190Y-18525832D01*
X3801950Y-18391212D01*
X3808807Y-18378557D01*
X3819639Y-18369080D01*
X3921239Y-18237000D01*
X3927323Y-18224701D01*
X3937325Y-18215304D01*
X4026225Y-18090844D01*
X4032144Y-18077728D01*
X4042257Y-18067493D01*
X4120997Y-17948113D01*
X4127221Y-17932830D01*
X4138310Y-17920606D01*
X4206890Y-17806305D01*
X4215681Y-17781772D01*
X4231849Y-17761333D01*
X4287729Y-17652112D01*
X4291845Y-17637611D01*
X4300731Y-17625431D01*
X4348991Y-17521291D01*
X4357807Y-17484886D01*
X4376840Y-17452627D01*
X4412400Y-17351027D01*
X4417018Y-17318333D01*
X4431302Y-17288562D01*
X4456702Y-17189502D01*
X4458688Y-17153198D01*
X4471255Y-17119083D01*
X4486495Y-17022563D01*
X4485369Y-16994245D01*
X4493188Y-16967001D01*
X4500808Y-16875561D01*
X4494797Y-16822693D01*
X4502267Y-16770012D01*
X4501828Y-16762118D01*
X4750646Y-16828270D01*
X5330223Y-16750821D01*
X5729538Y-16542940D01*
X5785882Y-16287330D01*
X4861407Y-15511603D01*
X4848551Y-15526924D01*
X4653976Y-15363655D01*
X4666831Y-15348335D01*
X4651510Y-15335479D01*
X4666993Y-15317027D01*
X5024675Y-15317027D01*
X5949150Y-16092754D01*
X6191093Y-15992880D01*
X6326475Y-15563533D01*
X6302105Y-14979313D01*
X6056019Y-14448889D01*
X5800821Y-14392052D01*
X5024675Y-15317027D01*
X4666993Y-15317027D01*
X4814779Y-15140904D01*
X4830099Y-15153759D01*
X5606245Y-14228784D01*
X5505958Y-13987333D01*
X4940860Y-13837092D01*
X4690906Y-13870493D01*
X4729975Y-13800997D01*
X4762361Y-13546042D01*
X4693005Y-13298574D01*
X4532833Y-13097587D01*
X3209721Y-11987365D01*
X3000997Y-11870025D01*
X2746042Y-11837639D01*
X2498574Y-11906995D01*
X2297587Y-12067167D01*
X1291568Y-13266095D01*
X-1486039Y-10935167D01*
X164838Y-10935167D01*
X306883Y-11278943D01*
X569673Y-11542192D01*
X913201Y-11684838D01*
X1285167Y-11685162D01*
X1628943Y-11543117D01*
X1892192Y-11280327D01*
X2034838Y-10936799D01*
X2035162Y-10564833D01*
X1985000Y-10443431D01*
X1985000Y-9983791D01*
X4239452Y-9983791D01*
X4242319Y-10000000D01*
X4239452Y-10016209D01*
X4244532Y-10254969D01*
X4248895Y-10274701D01*
X4246420Y-10294756D01*
X4264200Y-10536055D01*
X4268629Y-10552066D01*
X4267304Y-10568626D01*
X4295244Y-10807386D01*
X4301654Y-10827202D01*
X4301113Y-10848019D01*
X4341753Y-11084238D01*
X4347504Y-11099210D01*
X4347752Y-11115248D01*
X4398552Y-11351469D01*
X4407185Y-11371430D01*
X4408744Y-11393122D01*
X4472244Y-11624262D01*
X4479245Y-11638237D01*
X4480995Y-11653770D01*
X4554655Y-11884910D01*
X4564507Y-11902738D01*
X4567850Y-11922831D01*
X4654210Y-12151432D01*
X4663711Y-12166668D01*
X4667476Y-12184224D01*
X4763996Y-12407744D01*
X4776289Y-12425560D01*
X4782006Y-12446437D01*
X4891226Y-12664876D01*
X4901059Y-12677546D01*
X4905933Y-12692827D01*
X5025313Y-12908727D01*
X5038927Y-12924843D01*
X5046423Y-12944558D01*
X5178503Y-13155378D01*
X5190501Y-13168103D01*
X5197451Y-13184156D01*
X5339691Y-13389895D01*
X5356006Y-13405700D01*
X5366239Y-13425979D01*
X5521179Y-13624099D01*
X5534032Y-13635163D01*
X5542329Y-13649955D01*
X5707429Y-13842995D01*
X5722644Y-13854973D01*
X5732951Y-13871366D01*
X5910751Y-14059326D01*
X5928259Y-14071741D01*
X5940674Y-14089249D01*
X6128634Y-14267049D01*
X6145027Y-14277356D01*
X6157005Y-14292571D01*
X6350045Y-14457671D01*
X6364837Y-14465968D01*
X6375901Y-14478821D01*
X6574020Y-14633761D01*
X6594299Y-14643994D01*
X6610104Y-14660309D01*
X6815844Y-14802549D01*
X6831898Y-14809499D01*
X6844622Y-14821497D01*
X7055441Y-14953577D01*
X7075158Y-14961074D01*
X7091273Y-14974687D01*
X7307173Y-15094067D01*
X7322453Y-15098940D01*
X7335123Y-15108774D01*
X7553563Y-15217993D01*
X7574438Y-15223710D01*
X7592256Y-15236004D01*
X7815775Y-15332523D01*
X7833331Y-15336289D01*
X7848569Y-15345790D01*
X8077169Y-15432150D01*
X8097262Y-15435493D01*
X8115090Y-15445345D01*
X8346229Y-15519005D01*
X8361764Y-15520755D01*
X8375738Y-15527756D01*
X8606879Y-15591256D01*
X8628571Y-15592815D01*
X8648532Y-15601448D01*
X8884752Y-15652248D01*
X8900789Y-15652496D01*
X8915761Y-15658247D01*
X9151981Y-15698887D01*
X9172798Y-15698346D01*
X9192614Y-15704756D01*
X9431374Y-15732696D01*
X9447934Y-15731371D01*
X9463944Y-15735800D01*
X9705244Y-15753580D01*
X9725299Y-15751105D01*
X9745031Y-15755468D01*
X9983791Y-15760548D01*
X10000000Y-15757681D01*
X10016209Y-15760548D01*
X10254969Y-15755468D01*
X10274701Y-15751105D01*
X10294756Y-15753580D01*
X10536055Y-15735800D01*
X10552066Y-15731371D01*
X10568626Y-15732696D01*
X10807386Y-15704756D01*
X10827202Y-15698346D01*
X10848019Y-15698887D01*
X11084238Y-15658247D01*
X11099210Y-15652496D01*
X11115248Y-15652248D01*
X11351469Y-15601448D01*
X11371430Y-15592815D01*
X11393122Y-15591256D01*
X11624262Y-15527756D01*
X11638237Y-15520755D01*
X11653770Y-15519005D01*
X11884910Y-15445345D01*
X11902738Y-15435493D01*
X11922831Y-15432150D01*
X12151432Y-15345790D01*
X12166668Y-15336289D01*
X12184224Y-15332524D01*
X12407744Y-15236004D01*
X12425560Y-15223711D01*
X12446437Y-15217994D01*
X12664876Y-15108774D01*
X12677546Y-15098941D01*
X12692827Y-15094067D01*
X12908727Y-14974687D01*
X12924843Y-14961073D01*
X12944558Y-14953577D01*
X13155378Y-14821497D01*
X13168103Y-14809499D01*
X13184156Y-14802549D01*
X13389895Y-14660309D01*
X13405700Y-14643994D01*
X13425979Y-14633761D01*
X13624099Y-14478821D01*
X13635163Y-14465968D01*
X13649955Y-14457671D01*
X13842995Y-14292571D01*
X13854973Y-14277356D01*
X13871366Y-14267049D01*
X14059326Y-14089249D01*
X14071741Y-14071741D01*
X14089249Y-14059326D01*
X14267049Y-13871366D01*
X14277356Y-13854973D01*
X14292571Y-13842995D01*
X14457671Y-13649955D01*
X14465968Y-13635163D01*
X14478821Y-13624099D01*
X14633761Y-13425980D01*
X14643994Y-13405701D01*
X14660309Y-13389896D01*
X14802549Y-13184156D01*
X14809499Y-13168102D01*
X14821497Y-13155378D01*
X14953577Y-12944559D01*
X14961074Y-12924842D01*
X14974687Y-12908727D01*
X15094067Y-12692827D01*
X15098940Y-12677547D01*
X15108774Y-12664877D01*
X15217993Y-12446437D01*
X15223710Y-12425562D01*
X15236004Y-12407744D01*
X15332523Y-12184225D01*
X15336289Y-12166669D01*
X15345790Y-12151431D01*
X15432150Y-11922831D01*
X15435493Y-11902738D01*
X15445345Y-11884910D01*
X15519005Y-11653771D01*
X15520755Y-11638236D01*
X15527756Y-11624262D01*
X15591256Y-11393121D01*
X15592815Y-11371429D01*
X15601448Y-11351468D01*
X15652248Y-11115248D01*
X15652496Y-11099211D01*
X15658247Y-11084239D01*
X15698887Y-10848019D01*
X15698346Y-10827202D01*
X15704756Y-10807386D01*
X15732696Y-10568626D01*
X15731371Y-10552066D01*
X15735800Y-10536056D01*
X15753580Y-10294756D01*
X15751105Y-10274701D01*
X15755468Y-10254969D01*
X15760548Y-10016209D01*
X15757681Y-10000000D01*
X15760548Y-9983791D01*
X15755468Y-9745031D01*
X15751105Y-9725299D01*
X15753580Y-9705244D01*
X15735800Y-9463944D01*
X15731371Y-9447934D01*
X15732696Y-9431374D01*
X15704756Y-9192614D01*
X15698346Y-9172798D01*
X15698887Y-9151981D01*
X15658247Y-8915761D01*
X15652496Y-8900789D01*
X15652248Y-8884752D01*
X15601448Y-8648532D01*
X15592815Y-8628571D01*
X15591256Y-8606879D01*
X15527756Y-8375738D01*
X15520755Y-8361764D01*
X15519005Y-8346229D01*
X15445345Y-8115090D01*
X15435493Y-8097262D01*
X15432150Y-8077169D01*
X15345790Y-7848569D01*
X15336289Y-7833331D01*
X15332523Y-7815775D01*
X15236004Y-7592256D01*
X15223710Y-7574438D01*
X15217993Y-7553563D01*
X15108774Y-7335123D01*
X15098940Y-7322453D01*
X15094067Y-7307173D01*
X14974687Y-7091273D01*
X14961074Y-7075158D01*
X14953577Y-7055441D01*
X14821497Y-6844622D01*
X14809499Y-6831898D01*
X14802549Y-6815844D01*
X14660309Y-6610104D01*
X14643994Y-6594299D01*
X14633761Y-6574020D01*
X14478821Y-6375901D01*
X14465968Y-6364837D01*
X14457671Y-6350045D01*
X14292571Y-6157005D01*
X14277356Y-6145027D01*
X14267049Y-6128634D01*
X14089249Y-5940674D01*
X14076040Y-5931307D01*
X14066854Y-5917970D01*
X13975414Y-5829070D01*
X13966638Y-5823383D01*
X13960476Y-5814934D01*
X13863957Y-5726035D01*
X13858658Y-5722801D01*
X13854919Y-5717843D01*
X13760939Y-5634023D01*
X13747201Y-5625938D01*
X13737089Y-5613618D01*
X13638029Y-5532338D01*
X13632720Y-5529501D01*
X13628830Y-5524909D01*
X13529770Y-5446169D01*
X13524283Y-5443345D01*
X13520219Y-5438700D01*
X13421160Y-5362501D01*
X13411302Y-5357625D01*
X13403829Y-5349557D01*
X13302229Y-5275897D01*
X13286431Y-5268633D01*
X13274053Y-5256420D01*
X13065773Y-5119260D01*
X13049490Y-5112643D01*
X13036431Y-5100879D01*
X12929751Y-5037379D01*
X12923257Y-5035078D01*
X12918058Y-5030559D01*
X12811378Y-4969599D01*
X12801098Y-4966160D01*
X12792719Y-4959280D01*
X12683499Y-4900860D01*
X12676725Y-4898803D01*
X12671173Y-4894411D01*
X12561953Y-4838531D01*
X12555011Y-4836561D01*
X12549272Y-4832192D01*
X12440052Y-4778852D01*
X12429686Y-4776117D01*
X12420978Y-4769861D01*
X12309218Y-4719061D01*
X12294783Y-4715677D01*
X12282418Y-4707493D01*
X12170658Y-4661773D01*
X12167681Y-4661194D01*
X12165140Y-4659541D01*
X12050840Y-4613821D01*
X12036044Y-4611065D01*
X12023117Y-4603352D01*
X11908817Y-4562712D01*
X11901197Y-4561597D01*
X11894506Y-4557783D01*
X11780206Y-4519683D01*
X11770091Y-4518408D01*
X11761105Y-4513594D01*
X11644265Y-4478035D01*
X11638781Y-4477490D01*
X11633885Y-4474956D01*
X11519585Y-4441936D01*
X11509527Y-4441080D01*
X11500445Y-4436676D01*
X11383605Y-4406196D01*
X11373827Y-4405620D01*
X11364908Y-4401570D01*
X11245528Y-4373630D01*
X11231333Y-4373153D01*
X11218193Y-4367759D01*
X11101353Y-4344899D01*
X11099795Y-4344904D01*
X11098351Y-4344318D01*
X10978971Y-4321458D01*
X10964195Y-4321564D01*
X10950297Y-4316532D01*
X10833457Y-4298752D01*
X10824149Y-4299174D01*
X10815314Y-4296214D01*
X10695935Y-4280974D01*
X10695934Y-4280974D01*
X10576553Y-4265734D01*
X10552194Y-4267427D01*
X10528600Y-4261148D01*
X10409220Y-4253528D01*
X10408711Y-4253596D01*
X10408212Y-4253464D01*
X10286292Y-4245844D01*
X10278649Y-4246874D01*
X10271156Y-4245049D01*
X10151776Y-4239969D01*
X10143635Y-4241231D01*
X10135589Y-4239452D01*
X10016209Y-4236912D01*
X10008087Y-4238349D01*
X10000000Y-4236740D01*
X9991913Y-4238349D01*
X9983791Y-4236912D01*
X9864411Y-4239452D01*
X9856365Y-4241231D01*
X9848224Y-4239969D01*
X9728844Y-4245049D01*
X9721351Y-4246874D01*
X9713708Y-4245844D01*
X9591788Y-4253464D01*
X9591290Y-4253596D01*
X9590781Y-4253528D01*
X9471400Y-4261148D01*
X9447806Y-4267427D01*
X9423447Y-4265734D01*
X9184687Y-4296214D01*
X9175852Y-4299174D01*
X9166543Y-4298752D01*
X9049703Y-4316532D01*
X9035805Y-4321564D01*
X9021029Y-4321458D01*
X8901649Y-4344318D01*
X8900205Y-4344904D01*
X8898647Y-4344899D01*
X8781807Y-4367759D01*
X8768667Y-4373153D01*
X8754472Y-4373630D01*
X8635092Y-4401570D01*
X8626173Y-4405620D01*
X8616394Y-4406196D01*
X8499555Y-4436676D01*
X8490473Y-4441080D01*
X8480415Y-4441936D01*
X8366115Y-4474956D01*
X8361219Y-4477490D01*
X8355734Y-4478035D01*
X8238895Y-4513595D01*
X8229911Y-4518408D01*
X8219795Y-4519683D01*
X8105494Y-4557783D01*
X8098803Y-4561597D01*
X8091183Y-4562712D01*
X7976883Y-4603352D01*
X7963956Y-4611065D01*
X7949160Y-4613821D01*
X7834860Y-4659541D01*
X7832319Y-4661194D01*
X7829342Y-4661773D01*
X7717582Y-4707493D01*
X7705217Y-4715677D01*
X7690782Y-4719061D01*
X7579022Y-4769861D01*
X7570314Y-4776117D01*
X7559947Y-4778852D01*
X7450728Y-4832192D01*
X7444989Y-4836561D01*
X7438048Y-4838531D01*
X7328827Y-4894411D01*
X7323275Y-4898803D01*
X7316501Y-4900860D01*
X7207281Y-4959280D01*
X7198902Y-4966160D01*
X7188622Y-4969599D01*
X7081942Y-5030559D01*
X7076742Y-5035078D01*
X7070250Y-5037379D01*
X6963569Y-5100879D01*
X6950510Y-5112643D01*
X6934227Y-5119260D01*
X6725947Y-5256420D01*
X6713570Y-5268633D01*
X6697770Y-5275897D01*
X6596171Y-5349557D01*
X6588698Y-5357625D01*
X6578840Y-5362501D01*
X6479780Y-5438701D01*
X6475717Y-5443346D01*
X6470230Y-5446169D01*
X6371170Y-5524909D01*
X6367280Y-5529501D01*
X6361971Y-5532338D01*
X6262911Y-5613618D01*
X6252798Y-5625939D01*
X6239062Y-5634023D01*
X6145081Y-5717843D01*
X6141342Y-5722801D01*
X6136043Y-5726035D01*
X6039523Y-5814935D01*
X6033362Y-5823384D01*
X6024586Y-5829070D01*
X5933146Y-5917970D01*
X5923960Y-5931307D01*
X5910751Y-5940674D01*
X5732951Y-6128634D01*
X5722644Y-6145027D01*
X5707429Y-6157005D01*
X5542329Y-6350045D01*
X5534032Y-6364837D01*
X5521179Y-6375901D01*
X5366239Y-6574021D01*
X5356006Y-6594300D01*
X5339691Y-6610105D01*
X5197451Y-6815844D01*
X5190501Y-6831897D01*
X5178503Y-6844622D01*
X5046423Y-7055442D01*
X5038927Y-7075157D01*
X5025313Y-7091273D01*
X4905933Y-7307173D01*
X4901059Y-7322454D01*
X4891226Y-7335124D01*
X4782006Y-7553563D01*
X4776289Y-7574440D01*
X4763996Y-7592256D01*
X4667476Y-7815776D01*
X4663711Y-7833332D01*
X4654210Y-7848568D01*
X4567850Y-8077169D01*
X4564507Y-8097262D01*
X4554655Y-8115090D01*
X4480995Y-8346230D01*
X4479245Y-8361763D01*
X4472244Y-8375738D01*
X4408744Y-8606878D01*
X4407185Y-8628570D01*
X4398552Y-8648531D01*
X4347752Y-8884752D01*
X4347504Y-8900790D01*
X4341753Y-8915762D01*
X4301113Y-9151981D01*
X4301654Y-9172798D01*
X4295244Y-9192614D01*
X4267304Y-9431374D01*
X4268629Y-9447934D01*
X4264200Y-9463945D01*
X4246420Y-9705244D01*
X4248895Y-9725299D01*
X4244532Y-9745031D01*
X4239452Y-9983791D01*
X1985000Y-9983791D01*
X1985000Y-5387506D01*
X1992192Y-5380327D01*
X2134838Y-5036799D01*
X2135162Y-4664833D01*
X1993117Y-4321057D01*
X1730327Y-4057808D01*
X1386799Y-3915162D01*
X1014833Y-3914838D01*
X671057Y-4056883D01*
X407808Y-4319673D01*
X265162Y-4663201D01*
X264838Y-5035167D01*
X406883Y-5378943D01*
X415000Y-5387074D01*
X415000Y-10112668D01*
X307808Y-10219673D01*
X165162Y-10563201D01*
X164838Y-10935167D01*
X-1486039Y-10935167D01*
X-11131740Y-2840636D01*
X-11214612Y-2767870D01*
X-11285069Y-2699220D01*
X-11349097Y-2629857D01*
X-11412512Y-2553385D01*
X-11470928Y-2476714D01*
X-11519581Y-2404574D01*
X-11565574Y-2326739D01*
X-11607626Y-2247892D01*
X-11644218Y-2167736D01*
X-11679929Y-2079399D01*
X-11707882Y-2000472D01*
X-11728986Y-1922552D01*
X-11749716Y-1830207D01*
X-11764398Y-1748643D01*
X-11772615Y-1666472D01*
X-11777960Y-1577382D01*
X-11777960Y-1485622D01*
X-11774629Y-1400677D01*
X-11764573Y-1315198D01*
X-11749881Y-1221538D01*
X-11729495Y-1127020D01*
X-11706767Y-1037857D01*
X-11677267Y-949359D01*
X-11643822Y-861345D01*
X-11601410Y-769144D01*
X-11584600Y-735523D01*
X-11065567Y-735523D01*
X-10827485Y-1237705D01*
X-10415349Y-1610551D01*
X-10031574Y-1769516D01*
X-9811205Y-1647385D01*
X-9811205Y-581903D01*
X-9670064Y-581903D01*
X-9557205Y-694762D01*
X-9557205Y-1647385D01*
X-9336836Y-1769516D01*
X-9202082Y-1705630D01*
X-9284911Y-1905105D01*
X-9285396Y-2460866D01*
X-9073164Y-2974508D01*
X-8680524Y-3367834D01*
X-8167254Y-3580962D01*
X-7611493Y-3581447D01*
X-7097851Y-3369215D01*
X-6704525Y-2976575D01*
X-6491397Y-2463305D01*
X-6490912Y-1907544D01*
X-6576869Y-1699511D01*
X-6371202Y-1784911D01*
X-5815441Y-1785396D01*
X-5301799Y-1573164D01*
X-4908473Y-1180524D01*
X-4695345Y-667254D01*
X-4694860Y-111493D01*
X-4780818Y96541D01*
X-4575151Y11141D01*
X-4019390Y10656D01*
X-3505748Y222888D01*
X-3112422Y615528D01*
X-2899294Y1128798D01*
X-2898809Y1684559D01*
X-2984766Y1892592D01*
X-2779100Y1807192D01*
X-2223339Y1806707D01*
X-1709697Y2018939D01*
X-1316371Y2411579D01*
X-1103243Y2924849D01*
X-1102758Y3480610D01*
X-1188715Y3688643D01*
X-983049Y3603243D01*
X-427288Y3602758D01*
X86354Y3814990D01*
X479680Y4207630D01*
X692808Y4720900D01*
X693293Y5276661D01*
X607336Y5484694D01*
X813002Y5399294D01*
X1368763Y5398809D01*
X1882405Y5611041D01*
X2275731Y6003681D01*
X2488859Y6516951D01*
X2489344Y7072712D01*
X2403387Y7280745D01*
X2609054Y7195345D01*
X3164815Y7194860D01*
X3678457Y7407092D01*
X4071783Y7799732D01*
X4284911Y8313002D01*
X4285396Y8868763D01*
X4199438Y9076797D01*
X4405105Y8991397D01*
X4960866Y8990912D01*
X5474508Y9203144D01*
X5867834Y9595784D01*
X5881101Y9627736D01*
X8105142Y9627736D01*
X8317374Y9114094D01*
X8710014Y8720768D01*
X9223284Y8507640D01*
X9779045Y8507155D01*
X10292687Y8719387D01*
X10368579Y8795146D01*
X10368299Y8474600D01*
X10580531Y7960958D01*
X10973171Y7567632D01*
X11486441Y7354504D01*
X12042202Y7354019D01*
X12555844Y7566251D01*
X12631735Y7642009D01*
X12631455Y7321465D01*
X12843687Y6807823D01*
X13236327Y6414497D01*
X13749597Y6201369D01*
X14305358Y6200884D01*
X14819000Y6413116D01*
X14894892Y6488875D01*
X14894612Y6168329D01*
X15106844Y5654687D01*
X15499484Y5261361D01*
X16012754Y5048233D01*
X16568515Y5047748D01*
X17082157Y5259980D01*
X17158048Y5335738D01*
X17157768Y5015193D01*
X17370000Y4501551D01*
X17762640Y4108225D01*
X18275910Y3895097D01*
X18831671Y3894612D01*
X19345313Y4106844D01*
X19421205Y4182603D01*
X19420925Y3862057D01*
X19633157Y3348415D01*
X20025797Y2955089D01*
X20539067Y2741961D01*
X21094828Y2741476D01*
X21608470Y2953708D01*
X21684361Y3029466D01*
X21684081Y2708921D01*
X21896313Y2195279D01*
X22288953Y1801953D01*
X22802223Y1588825D01*
X23357984Y1588340D01*
X23871626Y1800572D01*
X23947518Y1876331D01*
X23947238Y1555785D01*
X24159470Y1042143D01*
X24552110Y648817D01*
X25065380Y435689D01*
X25621141Y435204D01*
X26134783Y647436D01*
X26528109Y1040076D01*
X26741237Y1553346D01*
X26741722Y2109107D01*
X26529490Y2622749D01*
X26467907Y2684439D01*
X26594113Y2674507D01*
X26765956Y2858758D01*
X26440875Y3859254D01*
X26483475Y3901854D01*
X26371265Y4014064D01*
X26657645Y4014064D01*
X27007524Y2937248D01*
X27254848Y2889193D01*
X27658880Y3270805D01*
X27886121Y3777985D01*
X27918712Y4192100D01*
X27734461Y4363943D01*
X26657645Y4014064D01*
X26371265Y4014064D01*
X26303867Y4081462D01*
X26033755Y3811350D01*
X25339261Y3585695D01*
X25291206Y3338371D01*
X25394127Y3229403D01*
X25067819Y3229688D01*
X24554177Y3017456D01*
X24478285Y2941697D01*
X24478565Y3262243D01*
X24266333Y3775885D01*
X24204750Y3837575D01*
X24330956Y3827643D01*
X24502799Y4011894D01*
X24177718Y5012390D01*
X24220318Y5054990D01*
X24248600Y5054990D01*
X24518712Y4784878D01*
X24744367Y4090384D01*
X24991691Y4042329D01*
X25087007Y4132356D01*
X25076520Y3999106D01*
X25260771Y3827263D01*
X26261267Y4152344D01*
X26303867Y4109744D01*
X26483475Y4289352D01*
X26213363Y4559464D01*
X25987708Y5253958D01*
X25740384Y5302013D01*
X25645068Y5211986D01*
X25655555Y5345236D01*
X25471304Y5517079D01*
X24470808Y5191998D01*
X24428208Y5234598D01*
X24248600Y5054990D01*
X24220318Y5054990D01*
X24040710Y5234598D01*
X23770598Y4964486D01*
X23076104Y4738831D01*
X23028049Y4491507D01*
X23130970Y4382539D01*
X22804662Y4382824D01*
X22291020Y4170592D01*
X22215129Y4094834D01*
X22215409Y4415379D01*
X22003177Y4929021D01*
X21941595Y4990710D01*
X22067800Y4980778D01*
X22239643Y5165029D01*
X21914562Y6165525D01*
X21957162Y6208125D01*
X21985444Y6208125D01*
X22255556Y5938013D01*
X22481211Y5243519D01*
X22728535Y5195464D01*
X22823850Y5285490D01*
X22813363Y5152242D01*
X22997614Y4980399D01*
X23998110Y5305480D01*
X24040710Y5262880D01*
X24220318Y5442488D01*
X23950206Y5712600D01*
X23724551Y6407094D01*
X23477227Y6455149D01*
X23381912Y6365123D01*
X23392399Y6498371D01*
X23208148Y6670214D01*
X22207652Y6345133D01*
X22165052Y6387733D01*
X21985444Y6208125D01*
X21957162Y6208125D01*
X21777554Y6387733D01*
X21507442Y6117621D01*
X20812948Y5891966D01*
X20764893Y5644642D01*
X20867813Y5535675D01*
X20541506Y5535960D01*
X20027864Y5323728D01*
X19951972Y5247969D01*
X19952252Y5568515D01*
X19740020Y6082157D01*
X19678438Y6143846D01*
X19804643Y6133914D01*
X19976486Y6318165D01*
X19651405Y7318661D01*
X19694005Y7361261D01*
X19722287Y7361261D01*
X19992399Y7091149D01*
X20218054Y6396655D01*
X20465378Y6348600D01*
X20560694Y6438627D01*
X20550207Y6305377D01*
X20734458Y6133534D01*
X21734954Y6458615D01*
X21777554Y6416015D01*
X21957162Y6595623D01*
X21687050Y6865735D01*
X21461395Y7560229D01*
X21214071Y7608284D01*
X21118755Y7518257D01*
X21129242Y7651507D01*
X20944991Y7823350D01*
X19944495Y7498269D01*
X19901895Y7540869D01*
X19722287Y7361261D01*
X19694005Y7361261D01*
X19514397Y7540869D01*
X19244285Y7270757D01*
X18549791Y7045102D01*
X18501736Y6797778D01*
X18604656Y6688811D01*
X18278349Y6689096D01*
X17764707Y6476864D01*
X17688816Y6401106D01*
X17689096Y6721651D01*
X17476864Y7235293D01*
X17415282Y7296982D01*
X17541487Y7287050D01*
X17713330Y7471301D01*
X17388249Y8471797D01*
X17430849Y8514397D01*
X17459131Y8514397D01*
X17729243Y8244285D01*
X17954898Y7549791D01*
X18202222Y7501736D01*
X18297537Y7591762D01*
X18287050Y7458513D01*
X18471301Y7286670D01*
X19471797Y7611751D01*
X19514397Y7569151D01*
X19694005Y7748759D01*
X19423893Y8018871D01*
X19198238Y8713365D01*
X18950914Y8761420D01*
X18855599Y8671394D01*
X18866086Y8804643D01*
X18681835Y8976486D01*
X17681339Y8651405D01*
X17638739Y8694005D01*
X17459131Y8514397D01*
X17430849Y8514397D01*
X17251241Y8694005D01*
X16981129Y8423893D01*
X16286635Y8198238D01*
X16238580Y7950914D01*
X16341500Y7841947D01*
X16015193Y7842232D01*
X15501551Y7630000D01*
X15425659Y7554241D01*
X15425939Y7874787D01*
X15213707Y8388429D01*
X15152125Y8450118D01*
X15278330Y8440186D01*
X15450173Y8624437D01*
X15125092Y9624933D01*
X15167692Y9667533D01*
X15195974Y9667533D01*
X15466086Y9397421D01*
X15691741Y8702927D01*
X15939065Y8654872D01*
X16034381Y8744899D01*
X16023894Y8611649D01*
X16208145Y8439806D01*
X17208641Y8764887D01*
X17251241Y8722287D01*
X17430849Y8901895D01*
X17160737Y9172007D01*
X16935082Y9866501D01*
X16687758Y9914556D01*
X16592442Y9824529D01*
X16602929Y9957779D01*
X16418678Y10129622D01*
X15418182Y9804541D01*
X15375582Y9847141D01*
X15195974Y9667533D01*
X15167692Y9667533D01*
X14988084Y9847141D01*
X14717972Y9577029D01*
X14023478Y9351374D01*
X13975423Y9104050D01*
X14078343Y8995083D01*
X13752036Y8995368D01*
X13238394Y8783136D01*
X13162503Y8707378D01*
X13162783Y9027922D01*
X12950551Y9541564D01*
X12888968Y9603254D01*
X13015174Y9593322D01*
X13187017Y9777573D01*
X12861936Y10778069D01*
X12904536Y10820669D01*
X12932818Y10820669D01*
X13202930Y10550557D01*
X13428585Y9856063D01*
X13675909Y9808008D01*
X13771224Y9898034D01*
X13760737Y9764785D01*
X13944988Y9592942D01*
X14945484Y9918023D01*
X14988084Y9875423D01*
X15167692Y10055031D01*
X14897580Y10325143D01*
X14671925Y11019637D01*
X14424601Y11067692D01*
X14329286Y10977666D01*
X14339773Y11110915D01*
X14155522Y11282758D01*
X13155026Y10957677D01*
X13112426Y11000277D01*
X12932818Y10820669D01*
X12904536Y10820669D01*
X12724928Y11000277D01*
X12454816Y10730165D01*
X11760322Y10504510D01*
X11712267Y10257186D01*
X11815188Y10148218D01*
X11488880Y10148503D01*
X10975238Y9936271D01*
X10899346Y9860512D01*
X10899626Y10181058D01*
X10687394Y10694700D01*
X10625811Y10756390D01*
X10752017Y10746458D01*
X10923860Y10930709D01*
X10598779Y11931205D01*
X10641379Y11973805D01*
X10669661Y11973805D01*
X10939773Y11703693D01*
X11165428Y11009199D01*
X11412752Y10961144D01*
X11508068Y11051171D01*
X11497581Y10917921D01*
X11681832Y10746078D01*
X12682328Y11071159D01*
X12724928Y11028559D01*
X12904536Y11208167D01*
X12634424Y11478279D01*
X12408769Y12172773D01*
X12161445Y12220828D01*
X12066129Y12130801D01*
X12076616Y12264051D01*
X11892365Y12435894D01*
X10891869Y12110813D01*
X10849269Y12153413D01*
X10669661Y11973805D01*
X10641379Y11973805D01*
X10461771Y12153413D01*
X10191659Y11883301D01*
X9497165Y11657646D01*
X9449110Y11410322D01*
X9552031Y11301354D01*
X9225723Y11301639D01*
X8712081Y11089407D01*
X8318755Y10696767D01*
X8105627Y10183497D01*
X8105142Y9627736D01*
X5881101Y9627736D01*
X6080962Y10109054D01*
X6081447Y10664815D01*
X5869215Y11178457D01*
X5476575Y11571783D01*
X4963305Y11784911D01*
X4407544Y11785396D01*
X4215308Y11705966D01*
X4269516Y11836836D01*
X4147385Y12057205D01*
X3194762Y12057205D01*
X3180910Y12071057D01*
X9234424Y12071057D01*
X9418675Y11899214D01*
X10495491Y12249093D01*
X10145612Y13325909D01*
X9898288Y13373964D01*
X9494256Y12992352D01*
X9267015Y12485172D01*
X9234424Y12071057D01*
X3180910Y12071057D01*
X3081903Y12170064D01*
X2902295Y11990456D01*
X3015154Y11877597D01*
X3015154Y10924974D01*
X3235523Y10802843D01*
X3370277Y10866729D01*
X3287448Y10667254D01*
X3286963Y10111493D01*
X3372921Y9903459D01*
X3167254Y9988859D01*
X2611493Y9989344D01*
X2419255Y9909913D01*
X2473464Y10040785D01*
X2351333Y10261154D01*
X1398710Y10261154D01*
X1285851Y10374013D01*
X1106243Y10194405D01*
X1219102Y10081546D01*
X1219102Y9128923D01*
X1439471Y9006792D01*
X1574227Y9070679D01*
X1491397Y8871202D01*
X1490912Y8315441D01*
X1576869Y8107408D01*
X1371202Y8192808D01*
X815441Y8193293D01*
X623205Y8113863D01*
X677413Y8244733D01*
X555282Y8465102D01*
X-397341Y8465102D01*
X-510200Y8577961D01*
X-689808Y8398353D01*
X-576949Y8285494D01*
X-576949Y7332871D01*
X-356580Y7210740D01*
X-221826Y7274626D01*
X-304655Y7075151D01*
X-305140Y6519390D01*
X-219183Y6311357D01*
X-424849Y6396757D01*
X-980610Y6397242D01*
X-1172846Y6317812D01*
X-1118638Y6448682D01*
X-1240769Y6669051D01*
X-2193392Y6669051D01*
X-2306251Y6781910D01*
X-2485859Y6602302D01*
X-2373000Y6489443D01*
X-2373000Y5536820D01*
X-2152631Y5414689D01*
X-2017877Y5478575D01*
X-2100706Y5279100D01*
X-2101191Y4723339D01*
X-2015234Y4515306D01*
X-2220900Y4600706D01*
X-2776661Y4601191D01*
X-2968897Y4521761D01*
X-2914689Y4652631D01*
X-3036820Y4873000D01*
X-3989443Y4873000D01*
X-4102302Y4985859D01*
X-4281910Y4806251D01*
X-4169051Y4693392D01*
X-4169051Y3740769D01*
X-3948682Y3618638D01*
X-3813928Y3682524D01*
X-3896757Y3483049D01*
X-3897242Y2927288D01*
X-3811285Y2719255D01*
X-4016951Y2804655D01*
X-4572712Y2805140D01*
X-4764948Y2725710D01*
X-4710740Y2856580D01*
X-4832871Y3076949D01*
X-5785494Y3076949D01*
X-5898353Y3189808D01*
X-6077961Y3010200D01*
X-5965102Y2897341D01*
X-5965102Y1944718D01*
X-5744733Y1822587D01*
X-5609979Y1886473D01*
X-5692808Y1686998D01*
X-5693293Y1131237D01*
X-5607335Y923203D01*
X-5813002Y1008603D01*
X-6368763Y1009088D01*
X-6561001Y929657D01*
X-6506792Y1060529D01*
X-6628923Y1280898D01*
X-7581546Y1280898D01*
X-7694405Y1393757D01*
X-7874013Y1214149D01*
X-7761154Y1101290D01*
X-7761154Y148667D01*
X-7540785Y26536D01*
X-7406029Y90423D01*
X-7488859Y-109054D01*
X-7489344Y-664815D01*
X-7403387Y-872848D01*
X-7609054Y-787448D01*
X-8164815Y-786963D01*
X-8357051Y-866393D01*
X-8302843Y-735523D01*
X-8424974Y-515154D01*
X-9377597Y-515154D01*
X-9490456Y-402295D01*
X-9670064Y-581903D01*
X-9811205Y-581903D01*
X-9811205Y-515154D01*
X-10943436Y-515154D01*
X-11065567Y-735523D01*
X-11584600Y-735523D01*
X-11552906Y-672135D01*
X-11505301Y-588827D01*
X-11444555Y-497708D01*
X-11375579Y-400329D01*
X-11302537Y-307546D01*
X-11227423Y-219287D01*
X-11137056Y-126866D01*
X-11060364Y-50174D01*
X-10943436Y-261154D01*
X-9990813Y-261154D01*
X-9877954Y-374013D01*
X-9698346Y-194405D01*
X-9670064Y-194405D01*
X-9490456Y-374013D01*
X-9377597Y-261154D01*
X-8424974Y-261154D01*
X-8302843Y-40785D01*
X-8359009Y77686D01*
X-8235523Y26536D01*
X-8015154Y148667D01*
X-8015154Y1101290D01*
X-7902295Y1214149D01*
X-8081903Y1393757D01*
X-8194762Y1280898D01*
X-9147385Y1280898D01*
X-9269516Y1060529D01*
X-9213350Y942058D01*
X-9336836Y993208D01*
X-9557205Y871077D01*
X-9557205Y-81546D01*
X-9670064Y-194405D01*
X-9698346Y-194405D01*
X-9811205Y-81546D01*
X-9811205Y871077D01*
X-10022185Y988005D01*
X-9264312Y1745878D01*
X-9147385Y1534898D01*
X-8194762Y1534898D01*
X-8081903Y1422039D01*
X-7902295Y1601647D01*
X-7874013Y1601647D01*
X-7694405Y1422039D01*
X-7581546Y1534898D01*
X-6628923Y1534898D01*
X-6506792Y1755267D01*
X-6562958Y1873737D01*
X-6439471Y1822587D01*
X-6219102Y1944718D01*
X-6219102Y2897341D01*
X-6106243Y3010200D01*
X-6285851Y3189808D01*
X-6398710Y3076949D01*
X-7351333Y3076949D01*
X-7473464Y2856580D01*
X-7417298Y2738110D01*
X-7540785Y2789260D01*
X-7761154Y2667129D01*
X-7761154Y1714506D01*
X-7874013Y1601647D01*
X-7902295Y1601647D01*
X-8015154Y1714506D01*
X-8015154Y2667129D01*
X-8226134Y2784056D01*
X-7468261Y3541929D01*
X-7351333Y3330949D01*
X-6398710Y3330949D01*
X-6285851Y3218090D01*
X-6106243Y3397698D01*
X-6077961Y3397698D01*
X-5898353Y3218090D01*
X-5785494Y3330949D01*
X-4832871Y3330949D01*
X-4710740Y3551318D01*
X-4766906Y3669788D01*
X-4643420Y3618638D01*
X-4423051Y3740769D01*
X-4423051Y4693392D01*
X-4310192Y4806251D01*
X-4489800Y4985859D01*
X-4602659Y4873000D01*
X-5555282Y4873000D01*
X-5677413Y4652631D01*
X-5621247Y4534161D01*
X-5744733Y4585311D01*
X-5965102Y4463180D01*
X-5965102Y3510557D01*
X-6077961Y3397698D01*
X-6106243Y3397698D01*
X-6219102Y3510557D01*
X-6219102Y4463180D01*
X-6430082Y4580108D01*
X-5672210Y5337980D01*
X-5555282Y5127000D01*
X-4602659Y5127000D01*
X-4489800Y5014141D01*
X-4310192Y5193749D01*
X-4281910Y5193749D01*
X-4102302Y5014141D01*
X-3989443Y5127000D01*
X-3036820Y5127000D01*
X-2914689Y5347369D01*
X-2970855Y5465839D01*
X-2847369Y5414689D01*
X-2627000Y5536820D01*
X-2627000Y6489443D01*
X-2514141Y6602302D01*
X-2693749Y6781910D01*
X-2806608Y6669051D01*
X-3759231Y6669051D01*
X-3881362Y6448682D01*
X-3825196Y6330212D01*
X-3948682Y6381362D01*
X-4169051Y6259231D01*
X-4169051Y5306608D01*
X-4281910Y5193749D01*
X-4310192Y5193749D01*
X-4423051Y5306608D01*
X-4423051Y6259231D01*
X-4634031Y6376159D01*
X-3876159Y7134031D01*
X-3759231Y6923051D01*
X-2806608Y6923051D01*
X-2693749Y6810192D01*
X-2514141Y6989800D01*
X-2485859Y6989800D01*
X-2306251Y6810192D01*
X-2193392Y6923051D01*
X-1240769Y6923051D01*
X-1118638Y7143420D01*
X-1174804Y7261890D01*
X-1051318Y7210740D01*
X-830949Y7332871D01*
X-830949Y8285494D01*
X-718090Y8398353D01*
X-897698Y8577961D01*
X-1010557Y8465102D01*
X-1963180Y8465102D01*
X-2085311Y8244733D01*
X-2029145Y8126263D01*
X-2152631Y8177413D01*
X-2373000Y8055282D01*
X-2373000Y7102659D01*
X-2485859Y6989800D01*
X-2514141Y6989800D01*
X-2627000Y7102659D01*
X-2627000Y8055282D01*
X-2837980Y8172209D01*
X-2080107Y8930082D01*
X-1963180Y8719102D01*
X-1010557Y8719102D01*
X-897698Y8606243D01*
X-718090Y8785851D01*
X-689808Y8785851D01*
X-510200Y8606243D01*
X-397341Y8719102D01*
X555282Y8719102D01*
X677413Y8939471D01*
X621247Y9057942D01*
X744733Y9006792D01*
X965102Y9128923D01*
X965102Y10081546D01*
X1077961Y10194405D01*
X898353Y10374013D01*
X785494Y10261154D01*
X-167129Y10261154D01*
X-289260Y10040785D01*
X-233094Y9922314D01*
X-356580Y9973464D01*
X-576949Y9851333D01*
X-576949Y8898710D01*
X-689808Y8785851D01*
X-718090Y8785851D01*
X-830949Y8898710D01*
X-830949Y9851333D01*
X-1041929Y9968260D01*
X-284056Y10726133D01*
X-167129Y10515154D01*
X785494Y10515154D01*
X898353Y10402295D01*
X1077961Y10581903D01*
X1106243Y10581903D01*
X1285851Y10402295D01*
X1398710Y10515154D01*
X2351333Y10515154D01*
X2473464Y10735523D01*
X2417298Y10853993D01*
X2540785Y10802843D01*
X2761154Y10924974D01*
X2761154Y11877597D01*
X2874013Y11990456D01*
X2694405Y12170064D01*
X2581546Y12057205D01*
X1628923Y12057205D01*
X1506792Y11836836D01*
X1562958Y11718366D01*
X1439471Y11769516D01*
X1219102Y11647385D01*
X1219102Y10694762D01*
X1106243Y10581903D01*
X1077961Y10581903D01*
X965102Y10694762D01*
X965102Y11647385D01*
X754123Y11764312D01*
X1511996Y12522185D01*
X1628923Y12311205D01*
X2581546Y12311205D01*
X2694405Y12198346D01*
X2874013Y12377954D01*
X2761154Y12490813D01*
X2761154Y13443436D01*
X3015154Y13443436D01*
X3015154Y12311205D01*
X4147385Y12311205D01*
X4269516Y12531574D01*
X4031434Y13033756D01*
X3619298Y13406602D01*
X3235523Y13565567D01*
X3015154Y13443436D01*
X2761154Y13443436D01*
X2550174Y13560363D01*
X3836277Y14846466D01*
X3903328Y14911282D01*
X3963273Y14967360D01*
X4025257Y15019659D01*
X4093559Y15075542D01*
X4160060Y15125921D01*
X4223268Y15171891D01*
X4290636Y15216162D01*
X4366311Y15263729D01*
X4437554Y15306475D01*
X4510762Y15347146D01*
X4583879Y15385736D01*
X4651317Y15418543D01*
X4726368Y15450998D01*
X4803477Y15483465D01*
X4875363Y15509948D01*
X4952222Y15536242D01*
X5031356Y15560591D01*
X5110798Y15582998D01*
X5194637Y15603957D01*
X5267036Y15620665D01*
X5348534Y15634927D01*
X5431774Y15649494D01*
X5505587Y15658720D01*
X5587707Y15666932D01*
X5672955Y15673170D01*
X5756048Y15677325D01*
X5841133Y15679400D01*
X5908854Y15679400D01*
X5978679Y15675819D01*
M02*
