G04 #@! TF.FileFunction,Soldermask,Bot*
%FSLAX46Y46*%
G04 Gerber Fmt 4.6, Leading zero omitted, Abs format (unit mm)*
G04 Created by KiCad (PCBNEW 4.0.2+dfsg1-stable) date Tue 19 Jul 2016 04:40:27 PM CEST*
%MOMM*%
G01*
G04 APERTURE LIST*
%ADD10C,0.100000*%
%ADD11R,1.987500X1.987500*%
%ADD12C,1.299160*%
%ADD13C,2.127200*%
%ADD14C,1.924000*%
G04 APERTURE END LIST*
D10*
D11*
X14050000Y-18780000D03*
X14050000Y-21320000D03*
X16590000Y-21320000D03*
X19130000Y-21320000D03*
X21670000Y-18780000D03*
X21670000Y-21320000D03*
X24210000Y-18780000D03*
X24210000Y-21320000D03*
X26750000Y-18780000D03*
X26750000Y-21320000D03*
D12*
X4565729Y-24361926D03*
X1737926Y-27731970D03*
D10*
G36*
X1401566Y-13831096D02*
X2768904Y-12201566D01*
X4398434Y-13568904D01*
X3031096Y-15198434D01*
X1401566Y-13831096D01*
X1401566Y-13831096D01*
G37*
D13*
X4845753Y-15332681D02*
X4845753Y-15332681D01*
D14*
X-7888154Y-2184205D03*
X-9684205Y-388154D03*
X-6092102Y-388154D03*
X-7888154Y1407898D03*
X-4296051Y1407898D03*
X-6092102Y3203949D03*
X-2500000Y3203949D03*
X-4296051Y5000000D03*
X-703949Y5000000D03*
X-2500000Y6796051D03*
X1092102Y6796051D03*
X-703949Y8592102D03*
X2888154Y8592102D03*
X1092102Y10388154D03*
X4684205Y10388154D03*
X2888154Y12184205D03*
X9502384Y9904397D03*
X10655520Y12167554D03*
X11765541Y8751261D03*
X12918677Y11014418D03*
X14028697Y7598126D03*
X15181833Y9861282D03*
X16291854Y6444990D03*
X17444990Y8708146D03*
X18555010Y5291854D03*
X19708146Y7555010D03*
X20818167Y4138718D03*
X21971303Y6401874D03*
X23081323Y2985582D03*
X24234459Y5248739D03*
X25344480Y1832446D03*
X26497616Y4095603D03*
M02*
