G04 #@! TF.FileFunction,Copper,L1,Top,Signal*
%FSLAX46Y46*%
G04 Gerber Fmt 4.6, Leading zero omitted, Abs format (unit mm)*
G04 Created by KiCad (PCBNEW 4.0.2+dfsg1-stable) date Tue 19 Jul 2016 04:40:27 PM CEST*
%MOMM*%
G01*
G04 APERTURE LIST*
%ADD10C,0.100000*%
%ADD11R,1.500000X0.350000*%
%ADD12R,0.350000X1.500000*%
%ADD13C,1.727200*%
%ADD14C,1.524000*%
%ADD15R,1.500000X0.300000*%
%ADD16R,0.300000X1.500000*%
%ADD17R,0.900000X0.500000*%
%ADD18R,1.400000X1.150000*%
%ADD19R,0.500000X0.900000*%
%ADD20C,0.600000*%
%ADD21C,0.250000*%
%ADD22C,0.300000*%
G04 APERTURE END LIST*
D10*
G36*
X1120124Y-30412395D02*
X1891469Y-29493142D01*
X3806090Y-31099699D01*
X3034745Y-32018952D01*
X1120124Y-30412395D01*
X1120124Y-30412395D01*
G37*
G36*
X5128676Y-25943408D02*
X5450314Y-25560095D01*
X7213166Y-27039304D01*
X6891528Y-27422617D01*
X5128676Y-25943408D01*
X5128676Y-25943408D01*
G37*
G36*
X4614382Y-26556320D02*
X4936020Y-26173007D01*
X6698872Y-27652216D01*
X6377234Y-28035529D01*
X4614382Y-26556320D01*
X4614382Y-26556320D01*
G37*
G36*
X4100087Y-27169232D02*
X4421725Y-26785919D01*
X6184577Y-28265128D01*
X5862939Y-28648441D01*
X4100087Y-27169232D01*
X4100087Y-27169232D01*
G37*
G36*
X3585793Y-27782144D02*
X3907431Y-27398831D01*
X5670283Y-28878040D01*
X5348645Y-29261353D01*
X3585793Y-27782144D01*
X3585793Y-27782144D01*
G37*
G36*
X3071499Y-28395056D02*
X3393137Y-28011743D01*
X5155989Y-29490952D01*
X4834351Y-29874265D01*
X3071499Y-28395056D01*
X3071499Y-28395056D01*
G37*
G36*
X6327134Y-24206922D02*
X7612053Y-22675614D01*
X9526674Y-24282172D01*
X8241755Y-25813480D01*
X6327134Y-24206922D01*
X6327134Y-24206922D01*
G37*
G36*
X2114579Y-20672168D02*
X3399498Y-19140860D01*
X5314119Y-20747418D01*
X4029200Y-22278726D01*
X2114579Y-20672168D01*
X2114579Y-20672168D01*
G37*
G36*
X605649Y-31025025D02*
X1891224Y-29492936D01*
X3040291Y-30457117D01*
X1754716Y-31989206D01*
X605649Y-31025025D01*
X605649Y-31025025D01*
G37*
G36*
X-3606333Y-27490086D02*
X-2321414Y-25958778D01*
X-406793Y-27565336D01*
X-1691712Y-29096644D01*
X-3606333Y-27490086D01*
X-3606333Y-27490086D01*
G37*
D11*
X10750000Y-3225000D03*
X10750000Y-2575000D03*
X10750000Y-1925000D03*
X10750000Y-1275000D03*
X10750000Y-625000D03*
X10750000Y25000D03*
X10750000Y675000D03*
X10750000Y1325000D03*
X10750000Y1975000D03*
X10750000Y2625000D03*
X4850000Y2625000D03*
X4850000Y1975000D03*
X4850000Y1325000D03*
X4850000Y675000D03*
X4850000Y25000D03*
X4850000Y-625000D03*
X4850000Y-1275000D03*
X4850000Y-1925000D03*
X4850000Y-2575000D03*
X4850000Y-3225000D03*
D12*
X20575000Y-10850000D03*
X21225000Y-10850000D03*
X21875000Y-10850000D03*
X22525000Y-10850000D03*
X23175000Y-10850000D03*
X23825000Y-10850000D03*
X24475000Y-10850000D03*
X25125000Y-10850000D03*
X25775000Y-10850000D03*
X26425000Y-10850000D03*
X26425000Y-4950000D03*
X25775000Y-4950000D03*
X25125000Y-4950000D03*
X24475000Y-4950000D03*
X23825000Y-4950000D03*
X23175000Y-4950000D03*
X22525000Y-4950000D03*
X21875000Y-4950000D03*
X21225000Y-4950000D03*
X20575000Y-4950000D03*
D10*
G36*
X1683333Y-13806445D02*
X2793555Y-12483333D01*
X4116667Y-13593555D01*
X3006445Y-14916667D01*
X1683333Y-13806445D01*
X1683333Y-13806445D01*
G37*
D13*
X4845753Y-15332681D02*
X4845753Y-15332681D01*
D14*
X-7888154Y-2184205D03*
X-9684205Y-388154D03*
X-6092102Y-388154D03*
X-7888154Y1407898D03*
X-4296051Y1407898D03*
X-6092102Y3203949D03*
X-2500000Y3203949D03*
X-4296051Y5000000D03*
X-703949Y5000000D03*
X-2500000Y6796051D03*
X1092102Y6796051D03*
X-703949Y8592102D03*
X2888154Y8592102D03*
X1092102Y10388154D03*
X4684205Y10388154D03*
X2888154Y12184205D03*
X9502384Y9904397D03*
X10655520Y12167554D03*
X11765541Y8751261D03*
X12918677Y11014418D03*
X14028697Y7598126D03*
X15181833Y9861282D03*
X16291854Y6444990D03*
X17444990Y8708146D03*
X18555010Y5291854D03*
X19708146Y7555010D03*
X20818167Y4138718D03*
X21971303Y6401874D03*
X23081323Y2985582D03*
X24234459Y5248739D03*
X25344480Y1832446D03*
X26497616Y4095603D03*
D15*
X13750000Y-15250000D03*
X13750000Y-15750000D03*
X13750000Y-16250000D03*
X13750000Y-16750000D03*
X13750000Y-17250000D03*
X13750000Y-17750000D03*
X13750000Y-18250000D03*
X13750000Y-18750000D03*
X13750000Y-19250000D03*
X13750000Y-19750000D03*
X13750000Y-20250000D03*
X13750000Y-20750000D03*
X13750000Y-21250000D03*
X13750000Y-21750000D03*
X13750000Y-22250000D03*
X13750000Y-22750000D03*
D16*
X15750000Y-24750000D03*
X16250000Y-24750000D03*
X16750000Y-24750000D03*
X17250000Y-24750000D03*
X17750000Y-24750000D03*
X18250000Y-24750000D03*
X18750000Y-24750000D03*
X19250000Y-24750000D03*
X19750000Y-24750000D03*
X20250000Y-24750000D03*
X20750000Y-24750000D03*
X21250000Y-24750000D03*
X21750000Y-24750000D03*
X22250000Y-24750000D03*
X22750000Y-24750000D03*
X23250000Y-24750000D03*
D15*
X25250000Y-22750000D03*
X25250000Y-22250000D03*
X25250000Y-21750000D03*
X25250000Y-21250000D03*
X25250000Y-20750000D03*
X25250000Y-20250000D03*
X25250000Y-19750000D03*
X25250000Y-19250000D03*
X25250000Y-18750000D03*
X25250000Y-18250000D03*
X25250000Y-17750000D03*
X25250000Y-17250000D03*
X25250000Y-16750000D03*
X25250000Y-16250000D03*
X25250000Y-15750000D03*
X25250000Y-15250000D03*
D16*
X23250000Y-13250000D03*
X22750000Y-13250000D03*
X22250000Y-13250000D03*
X21750000Y-13250000D03*
X21250000Y-13250000D03*
X20750000Y-13250000D03*
X20250000Y-13250000D03*
X19750000Y-13250000D03*
X19250000Y-13250000D03*
X18750000Y-13250000D03*
X18250000Y-13250000D03*
X17750000Y-13250000D03*
X17250000Y-13250000D03*
X16750000Y-13250000D03*
X16250000Y-13250000D03*
X15750000Y-13250000D03*
D10*
G36*
X-6525305Y-4111091D02*
X-5888909Y-3474695D01*
X-5535355Y-3828249D01*
X-6171751Y-4464645D01*
X-6525305Y-4111091D01*
X-6525305Y-4111091D01*
G37*
G36*
X-5464645Y-5171751D02*
X-4828249Y-4535355D01*
X-4474695Y-4888909D01*
X-5111091Y-5525305D01*
X-5464645Y-5171751D01*
X-5464645Y-5171751D01*
G37*
G36*
X-5025305Y-2611091D02*
X-4388909Y-1974695D01*
X-4035355Y-2328249D01*
X-4671751Y-2964645D01*
X-5025305Y-2611091D01*
X-5025305Y-2611091D01*
G37*
G36*
X-3964645Y-3671751D02*
X-3328249Y-3035355D01*
X-2974695Y-3388909D01*
X-3611091Y-4025305D01*
X-3964645Y-3671751D01*
X-3964645Y-3671751D01*
G37*
G36*
X-3525305Y-1111091D02*
X-2888909Y-474695D01*
X-2535355Y-828249D01*
X-3171751Y-1464645D01*
X-3525305Y-1111091D01*
X-3525305Y-1111091D01*
G37*
G36*
X-2464645Y-2171751D02*
X-1828249Y-1535355D01*
X-1474695Y-1888909D01*
X-2111091Y-2525305D01*
X-2464645Y-2171751D01*
X-2464645Y-2171751D01*
G37*
G36*
X-2025305Y388909D02*
X-1388909Y1025305D01*
X-1035355Y671751D01*
X-1671751Y35355D01*
X-2025305Y388909D01*
X-2025305Y388909D01*
G37*
G36*
X-964645Y-671751D02*
X-328249Y-35355D01*
X25305Y-388909D01*
X-611091Y-1025305D01*
X-964645Y-671751D01*
X-964645Y-671751D01*
G37*
G36*
X-525305Y1888909D02*
X111091Y2525305D01*
X464645Y2171751D01*
X-171751Y1535355D01*
X-525305Y1888909D01*
X-525305Y1888909D01*
G37*
G36*
X535355Y828249D02*
X1171751Y1464645D01*
X1525305Y1111091D01*
X888909Y474695D01*
X535355Y828249D01*
X535355Y828249D01*
G37*
G36*
X974695Y3388909D02*
X1611091Y4025305D01*
X1964645Y3671751D01*
X1328249Y3035355D01*
X974695Y3388909D01*
X974695Y3388909D01*
G37*
G36*
X2035355Y2328249D02*
X2671751Y2964645D01*
X3025305Y2611091D01*
X2388909Y1974695D01*
X2035355Y2328249D01*
X2035355Y2328249D01*
G37*
G36*
X2474695Y4888909D02*
X3111091Y5525305D01*
X3464645Y5171751D01*
X2828249Y4535355D01*
X2474695Y4888909D01*
X2474695Y4888909D01*
G37*
G36*
X3535355Y3828249D02*
X4171751Y4464645D01*
X4525305Y4111091D01*
X3888909Y3474695D01*
X3535355Y3828249D01*
X3535355Y3828249D01*
G37*
G36*
X3974695Y6388909D02*
X4611091Y7025305D01*
X4964645Y6671751D01*
X4328249Y6035355D01*
X3974695Y6388909D01*
X3974695Y6388909D01*
G37*
G36*
X5035355Y5328249D02*
X5671751Y5964645D01*
X6025305Y5611091D01*
X5388909Y4974695D01*
X5035355Y5328249D01*
X5035355Y5328249D01*
G37*
D17*
X11000000Y6750000D03*
X11000000Y5250000D03*
X13000000Y5750000D03*
X13000000Y4250000D03*
X15000000Y4750000D03*
X15000000Y3250000D03*
X17000000Y3750000D03*
X17000000Y2250000D03*
X19000000Y2750000D03*
X19000000Y1250000D03*
X21000000Y1750000D03*
X21000000Y250000D03*
X23000000Y750000D03*
X23000000Y-750000D03*
X25000000Y-250000D03*
X25000000Y-1750000D03*
D18*
X24900000Y-26800000D03*
X27100000Y-26800000D03*
X27100000Y-25200000D03*
X24900000Y-25200000D03*
D17*
X12750000Y-24100000D03*
X12750000Y-25600000D03*
D10*
G36*
X4901932Y-19655299D02*
X4212492Y-19076790D01*
X4533886Y-18693767D01*
X5223326Y-19272276D01*
X4901932Y-19655299D01*
X4901932Y-19655299D01*
G37*
G36*
X5866114Y-18506233D02*
X5176674Y-17927724D01*
X5498068Y-17544701D01*
X6187508Y-18123210D01*
X5866114Y-18506233D01*
X5866114Y-18506233D01*
G37*
G36*
X7698068Y-17444701D02*
X8387508Y-18023210D01*
X8066114Y-18406233D01*
X7376674Y-17827724D01*
X7698068Y-17444701D01*
X7698068Y-17444701D01*
G37*
G36*
X6733886Y-18593767D02*
X7423326Y-19172276D01*
X7101932Y-19555299D01*
X6412492Y-18976790D01*
X6733886Y-18593767D01*
X6733886Y-18593767D01*
G37*
G36*
X8898068Y-18444701D02*
X9587508Y-19023210D01*
X9266114Y-19406233D01*
X8576674Y-18827724D01*
X8898068Y-18444701D01*
X8898068Y-18444701D01*
G37*
G36*
X7933886Y-19593767D02*
X8623326Y-20172276D01*
X8301932Y-20555299D01*
X7612492Y-19976790D01*
X7933886Y-19593767D01*
X7933886Y-19593767D01*
G37*
G36*
X10998068Y-18144701D02*
X11687508Y-18723210D01*
X11366114Y-19106233D01*
X10676674Y-18527724D01*
X10998068Y-18144701D01*
X10998068Y-18144701D01*
G37*
G36*
X10033886Y-19293767D02*
X10723326Y-19872276D01*
X10401932Y-20255299D01*
X9712492Y-19676790D01*
X10033886Y-19293767D01*
X10033886Y-19293767D01*
G37*
G36*
X10655299Y-22098068D02*
X10076790Y-22787508D01*
X9693767Y-22466114D01*
X10272276Y-21776674D01*
X10655299Y-22098068D01*
X10655299Y-22098068D01*
G37*
G36*
X9506233Y-21133886D02*
X8927724Y-21823326D01*
X8544701Y-21501932D01*
X9123210Y-20812492D01*
X9506233Y-21133886D01*
X9506233Y-21133886D01*
G37*
G36*
X12655299Y-22098068D02*
X12076790Y-22787508D01*
X11693767Y-22466114D01*
X12272276Y-21776674D01*
X12655299Y-22098068D01*
X12655299Y-22098068D01*
G37*
G36*
X11506233Y-21133886D02*
X10927724Y-21823326D01*
X10544701Y-21501932D01*
X11123210Y-20812492D01*
X11506233Y-21133886D01*
X11506233Y-21133886D01*
G37*
G36*
X1718471Y-5123292D02*
X3024615Y-3566690D01*
X5826499Y-5917750D01*
X4520355Y-7474352D01*
X1718471Y-5123292D01*
X1718471Y-5123292D01*
G37*
G36*
X-1514708Y-11031244D02*
X-208563Y-9474642D01*
X569738Y-10127714D01*
X-736407Y-11684316D01*
X-1514708Y-11031244D01*
X-1514708Y-11031244D01*
G37*
G36*
X236470Y-12500656D02*
X1542615Y-10944054D01*
X2320916Y-11597126D01*
X1014771Y-13153728D01*
X236470Y-12500656D01*
X236470Y-12500656D01*
G37*
G36*
X-3265885Y-9561831D02*
X-1959740Y-8005229D01*
X-1181439Y-8658301D01*
X-2487584Y-10214903D01*
X-3265885Y-9561831D01*
X-3265885Y-9561831D01*
G37*
D19*
X9950000Y-25500000D03*
X11450000Y-25500000D03*
X25200000Y-14250000D03*
X26700000Y-14250000D03*
D10*
G36*
X7148068Y-15544701D02*
X7837508Y-16123210D01*
X7516114Y-16506233D01*
X6826674Y-15927724D01*
X7148068Y-15544701D01*
X7148068Y-15544701D01*
G37*
G36*
X6183886Y-16693767D02*
X6873326Y-17272276D01*
X6551932Y-17655299D01*
X5862492Y-17076790D01*
X6183886Y-16693767D01*
X6183886Y-16693767D01*
G37*
G36*
X7248068Y-28044701D02*
X7937508Y-28623210D01*
X7616114Y-29006233D01*
X6926674Y-28427724D01*
X7248068Y-28044701D01*
X7248068Y-28044701D01*
G37*
G36*
X6283886Y-29193767D02*
X6973326Y-29772276D01*
X6651932Y-30155299D01*
X5962492Y-29576790D01*
X6283886Y-29193767D01*
X6283886Y-29193767D01*
G37*
D17*
X27950000Y-8650000D03*
X27950000Y-7150000D03*
D19*
X5650000Y-4750000D03*
X7150000Y-4750000D03*
X20600000Y-26900000D03*
X22100000Y-26900000D03*
D20*
X23150000Y-23300000D03*
X6600000Y-4800000D03*
X21500000Y-6500000D03*
X7250000Y-29800000D03*
X15150000Y-17050000D03*
X26100000Y-14250000D03*
X12800000Y-26700000D03*
X-3050000Y-8350000D03*
X26000000Y-9500000D03*
X9000000Y3000000D03*
X6500000Y-2000000D03*
X23800000Y-15900000D03*
X23800000Y-14500000D03*
X11450000Y-24050000D03*
X1200000Y-4850000D03*
X1100000Y-10750000D03*
X21150000Y-9400000D03*
X12000000Y-3500000D03*
X20450000Y-18550000D03*
X17450000Y-23050000D03*
X18750000Y-22450000D03*
X19450000Y-23100000D03*
X23750000Y-17700000D03*
X21450000Y-22950000D03*
X27850000Y-19350000D03*
X26800000Y-22400000D03*
D21*
X22750000Y-24750000D02*
X22750000Y-26250000D01*
X22750000Y-26250000D02*
X22100000Y-26900000D01*
X23100000Y-23500000D02*
X23100000Y-23350000D01*
X23100000Y-23350000D02*
X23150000Y-23300000D01*
X7150000Y-4750000D02*
X6650000Y-4750000D01*
X6650000Y-4750000D02*
X6600000Y-4800000D01*
D22*
X27950000Y-7150000D02*
X22150000Y-7150000D01*
X21225000Y-6225000D02*
X21500000Y-6500000D01*
X21225000Y-6225000D02*
X21225000Y-4950000D01*
X22150000Y-7150000D02*
X21500000Y-6500000D01*
D21*
X5682091Y-18025467D02*
X5682091Y-17860351D01*
D22*
X5682091Y-17860351D02*
X6367909Y-17174533D01*
X6467909Y-29674533D02*
X7124533Y-29674533D01*
D21*
X7124533Y-29674533D02*
X7250000Y-29800000D01*
X6467909Y-29674533D02*
X6425467Y-29674533D01*
D22*
X6425467Y-29674533D02*
X6100000Y-30000000D01*
X6100000Y-30000000D02*
X5170740Y-30000000D01*
X5170740Y-30000000D02*
X4113744Y-28943004D01*
D21*
X13750000Y-16750000D02*
X14850000Y-16750000D01*
X14850000Y-16750000D02*
X15150000Y-17050000D01*
X6367909Y-17174533D02*
X6367909Y-16854837D01*
D22*
X6367909Y-16854837D02*
X4845753Y-15332681D01*
D21*
X26700000Y-14250000D02*
X26100000Y-14250000D01*
D22*
X26750000Y-14100000D02*
X26750000Y-15250000D01*
D21*
X26250000Y-15750000D02*
X25250000Y-15750000D01*
D22*
X26750000Y-15250000D02*
X26250000Y-15750000D01*
X12750000Y-25600000D02*
X12750000Y-26650000D01*
X12750000Y-26650000D02*
X12800000Y-26700000D01*
X-2223662Y-9110066D02*
X-2289934Y-9110066D01*
X-2289934Y-9110066D02*
X-3050000Y-8350000D01*
D21*
X12750000Y-25600000D02*
X12750000Y-25600000D01*
D22*
X4113744Y-28943004D02*
X4143004Y-28943004D01*
X26425000Y-10850000D02*
X26425000Y-9925000D01*
X26425000Y-9925000D02*
X26000000Y-9500000D01*
X4850000Y-2575000D02*
X5925000Y-2575000D01*
X10750000Y2625000D02*
X9375000Y2625000D01*
X9375000Y2625000D02*
X9000000Y3000000D01*
D21*
X22750000Y-24750000D02*
X22750000Y-23850000D01*
X24900000Y-24600000D02*
X24900000Y-25200000D01*
D22*
X23800000Y-23500000D02*
X24900000Y-24600000D01*
D21*
X27100000Y-26800000D02*
X26800000Y-26800000D01*
D22*
X26800000Y-26800000D02*
X25200000Y-25200000D01*
D21*
X25200000Y-25200000D02*
X24900000Y-25200000D01*
D22*
X5925000Y-2575000D02*
X6500000Y-2000000D01*
X23100000Y-23500000D02*
X23800000Y-23500000D01*
D21*
X22750000Y-23850000D02*
X23100000Y-23500000D01*
X-4969670Y-5030330D02*
X69670Y-5030330D01*
X3175000Y-1925000D02*
X4850000Y-1925000D01*
X69670Y-5030330D02*
X3175000Y-1925000D01*
X-3469670Y-3530330D02*
X269670Y-3530330D01*
X2525000Y-1275000D02*
X4850000Y-1275000D01*
X269670Y-3530330D02*
X2525000Y-1275000D01*
X-1969670Y-2030330D02*
X769670Y-2030330D01*
X2175000Y-625000D02*
X4850000Y-625000D01*
X769670Y-2030330D02*
X2175000Y-625000D01*
X-469670Y-530330D02*
X1169670Y-530330D01*
X1725000Y25000D02*
X4850000Y25000D01*
X1169670Y-530330D02*
X1725000Y25000D01*
X1325000Y675000D02*
X1030330Y969670D01*
X4850000Y675000D02*
X1325000Y675000D01*
X2530330Y2469670D02*
X2530330Y2369670D01*
X2530330Y2369670D02*
X3575000Y1325000D01*
X3575000Y1325000D02*
X4850000Y1325000D01*
X4030330Y3969670D02*
X4030330Y3969670D01*
X4030330Y3969670D02*
X3700000Y3200000D01*
X3925000Y1975000D02*
X4850000Y1975000D01*
X3700000Y2200000D02*
X3925000Y1975000D01*
X3700000Y3200000D02*
X3700000Y2200000D01*
X5530330Y5469670D02*
X4850000Y2625000D01*
X4850000Y2625000D02*
X4850000Y2625000D01*
X21875000Y-4550000D02*
X21875000Y-4005000D01*
X11000000Y4840000D02*
X11000000Y5250000D01*
X19600000Y-3760000D02*
X11000000Y4840000D01*
X21630000Y-3760000D02*
X19600000Y-3760000D01*
X21875000Y-4005000D02*
X21630000Y-3760000D01*
X22525000Y-4550000D02*
X22525000Y-4005000D01*
X13000000Y3820000D02*
X13000000Y4250000D01*
X20110000Y-3290000D02*
X13000000Y3820000D01*
X21810000Y-3290000D02*
X20110000Y-3290000D01*
X22525000Y-4005000D02*
X21810000Y-3290000D01*
X23175000Y-4550000D02*
X23175000Y-4005000D01*
X15000000Y2900000D02*
X15000000Y3250000D01*
X20730000Y-2830000D02*
X15000000Y2900000D01*
X22000000Y-2830000D02*
X20730000Y-2830000D01*
X23175000Y-4005000D02*
X22000000Y-2830000D01*
X23825000Y-4550000D02*
X23825000Y-3925000D01*
X17000000Y1850000D02*
X17000000Y2250000D01*
X21225000Y-2375000D02*
X17000000Y1850000D01*
X22275000Y-2375000D02*
X21225000Y-2375000D01*
X23825000Y-3925000D02*
X22275000Y-2375000D01*
X24475000Y-4550000D02*
X24475000Y-3938602D01*
X19000000Y825000D02*
X19000000Y1250000D01*
X21706801Y-1881801D02*
X19000000Y825000D01*
X22418199Y-1881801D02*
X21706801Y-1881801D01*
X24475000Y-3938602D02*
X22418199Y-1881801D01*
X25125000Y-4950000D02*
X25125000Y-3952204D01*
X21000000Y-100000D02*
X21000000Y250000D01*
X22300000Y-1400000D02*
X21000000Y-100000D01*
X22572796Y-1400000D02*
X22300000Y-1400000D01*
X25125000Y-3952204D02*
X22572796Y-1400000D01*
X25775000Y-4950000D02*
X25775000Y-3875000D01*
X23000000Y-1100000D02*
X23000000Y-750000D01*
X25775000Y-3875000D02*
X23000000Y-1100000D01*
X26425000Y-4950000D02*
X26425000Y-3725000D01*
X25000000Y-2300000D02*
X25000000Y-1750000D01*
X26425000Y-3725000D02*
X25000000Y-2300000D01*
X23250000Y-24750000D02*
X23250000Y-26250000D01*
X23800000Y-26800000D02*
X24900000Y-26800000D01*
X23250000Y-26250000D02*
X23800000Y-26800000D01*
X25250000Y-22750000D02*
X26250000Y-22750000D01*
X27100000Y-23600000D02*
X27100000Y-25200000D01*
X26250000Y-22750000D02*
X27100000Y-23600000D01*
X25775000Y-10850000D02*
X25775000Y-11975000D01*
X26950000Y-17750000D02*
X25250000Y-17750000D01*
X28500000Y-16200000D02*
X26950000Y-17750000D01*
X28500000Y-13350000D02*
X28500000Y-16200000D01*
X27450000Y-12300000D02*
X28500000Y-13350000D01*
X26100000Y-12300000D02*
X27450000Y-12300000D01*
X25775000Y-11975000D02*
X26100000Y-12300000D01*
X25125000Y-10850000D02*
X25125000Y-12025000D01*
X26650000Y-17250000D02*
X25250000Y-17250000D01*
X28000000Y-15900000D02*
X26650000Y-17250000D01*
X28000000Y-13550000D02*
X28000000Y-15900000D01*
X27250000Y-12800000D02*
X28000000Y-13550000D01*
X25900000Y-12800000D02*
X27250000Y-12800000D01*
X25125000Y-12025000D02*
X25900000Y-12800000D01*
X24475000Y-10850000D02*
X24475000Y-12175000D01*
X26350000Y-16750000D02*
X25250000Y-16750000D01*
X27500000Y-15600000D02*
X26350000Y-16750000D01*
X27500000Y-13750000D02*
X27500000Y-15600000D01*
X27050000Y-13300000D02*
X27500000Y-13750000D01*
X25600000Y-13300000D02*
X27050000Y-13300000D01*
X24475000Y-12175000D02*
X25600000Y-13300000D01*
X23825000Y-10850000D02*
X23825000Y-14475000D01*
X24150000Y-16250000D02*
X25250000Y-16250000D01*
X23800000Y-15900000D02*
X24150000Y-16250000D01*
X23825000Y-14475000D02*
X23800000Y-14500000D01*
X23250000Y-13250000D02*
X23250000Y-11763602D01*
X23175000Y-11688602D02*
X23175000Y-10450000D01*
X23250000Y-11763602D02*
X23175000Y-11688602D01*
X22750000Y-13250000D02*
X22750000Y-11900000D01*
X22525000Y-11675000D02*
X22525000Y-10450000D01*
X22750000Y-11900000D02*
X22525000Y-11675000D01*
X22250000Y-13250000D02*
X22250000Y-12050000D01*
X21875000Y-11675000D02*
X21875000Y-10450000D01*
X22250000Y-12050000D02*
X21875000Y-11675000D01*
X21750000Y-13250000D02*
X21750000Y-12250000D01*
X21225000Y-11725000D02*
X21225000Y-10450000D01*
X21750000Y-12250000D02*
X21225000Y-11725000D01*
X19250000Y-13250000D02*
X19250000Y-12400000D01*
X19250000Y-12400000D02*
X19250000Y-12400000D01*
X19250000Y-12400000D02*
X19250000Y-5000000D01*
X19250000Y-5000000D02*
X12275000Y1975000D01*
X12275000Y1975000D02*
X10650000Y1975000D01*
X18750000Y-13250000D02*
X18750000Y-12250000D01*
X18750000Y-12250000D02*
X18749998Y-12250003D01*
X18749998Y-12250003D02*
X18749998Y-5175000D01*
X18749998Y-5175000D02*
X12249998Y1325000D01*
X12249998Y1325000D02*
X10650000Y1325000D01*
X18250000Y-13250000D02*
X18250000Y-12170000D01*
X12175000Y675000D02*
X10750000Y675000D01*
X18250000Y-5400000D02*
X12175000Y675000D01*
X18250000Y-12170000D02*
X18250000Y-5400000D01*
X18250000Y-12170000D02*
X18250000Y-12170000D01*
X17750000Y-13250000D02*
X17750000Y-12110000D01*
X12174883Y25000D02*
X10750000Y25000D01*
X17739402Y-5633274D02*
X12174883Y25000D01*
X17744347Y-12120187D02*
X17739402Y-5633274D01*
X17750000Y-12110000D02*
X17744347Y-12120187D01*
X17250000Y-13250000D02*
X17250000Y-12030000D01*
X12075000Y-625000D02*
X10550000Y-625000D01*
X17230000Y-5780000D02*
X12075000Y-625000D01*
X17230000Y-12069070D02*
X17230000Y-5780000D01*
X17250000Y-12030000D02*
X17230000Y-12069070D01*
X16750000Y-13250000D02*
X16750000Y-11960000D01*
X12059998Y-1275000D02*
X10250000Y-1275000D01*
X16730000Y-5945002D02*
X12059998Y-1275000D01*
X16730000Y-12002791D02*
X16730000Y-5945002D01*
X16750000Y-11960000D02*
X16730000Y-12002791D01*
X16250000Y-13250000D02*
X16250000Y-12050000D01*
X11995000Y-1925000D02*
X10350000Y-1925000D01*
X16206091Y-6136091D02*
X11995000Y-1925000D01*
X16219706Y-12126906D02*
X16206091Y-6136091D01*
X16250000Y-12050000D02*
X16219706Y-12126906D01*
X15750000Y-13250000D02*
X15750000Y-11870000D01*
X11889998Y-2475000D02*
X10650000Y-2475000D01*
X15750000Y-6335002D02*
X11889998Y-2475000D01*
X15750000Y-11870000D02*
X15750000Y-6335002D01*
X15750000Y-11870000D02*
X15750000Y-11870000D01*
X11000000Y6750000D02*
X11050000Y6750000D01*
X11000000Y6750000D02*
X9502384Y9904397D01*
X11050000Y6750000D02*
X11000000Y6750000D01*
X13000000Y5750000D02*
X13000000Y5750000D01*
X11765541Y8751261D02*
X11765541Y8751261D01*
X13000000Y5750000D02*
X11765541Y8751261D01*
X15000000Y4750000D02*
X15000000Y4750000D01*
X15000000Y4750000D02*
X14028697Y7598126D01*
X17000000Y3750000D02*
X17000000Y3750000D01*
X17000000Y3750000D02*
X16291854Y6444990D01*
X19000000Y2750000D02*
X19000000Y2750000D01*
X19000000Y2750000D02*
X18555010Y5291854D01*
X21000000Y1750000D02*
X21000000Y1750000D01*
X21000000Y1750000D02*
X20818167Y4138718D01*
X23000000Y750000D02*
X23000000Y2904259D01*
X23000000Y2904259D02*
X23081323Y2985582D01*
X25000000Y-250000D02*
X25000000Y-250000D01*
X25000000Y-250000D02*
X25344480Y1832446D01*
X-7888154Y-2184205D02*
X-7815795Y-2184205D01*
X-7815795Y-2184205D02*
X-6030330Y-3969670D01*
X-6092102Y-388154D02*
X-6092102Y-907898D01*
X-6092102Y-907898D02*
X-4530330Y-2469670D01*
X-4296051Y1407898D02*
X-4296051Y296051D01*
X-4296051Y296051D02*
X-3030330Y-969670D01*
X-2500000Y3203949D02*
X-2500000Y1500000D01*
X-2500000Y1500000D02*
X-1530330Y530330D01*
X-703949Y5000000D02*
X-703949Y2703949D01*
X-703949Y2703949D02*
X-30330Y2030330D01*
X1092102Y6796051D02*
X1092102Y3907898D01*
X1092102Y3907898D02*
X1469670Y3530330D01*
X2888154Y8592102D02*
X2888154Y5111846D01*
X2888154Y5111846D02*
X2969670Y5030330D01*
X4684205Y10388154D02*
X4684205Y6744865D01*
X4684205Y6744865D02*
X4469670Y6530330D01*
X11450000Y-25500000D02*
X9950000Y-25500000D01*
X11450000Y-25500000D02*
X11450000Y-24050000D01*
X4850000Y-3225000D02*
X4850000Y-3950000D01*
X4850000Y-3950000D02*
X5650000Y-4750000D01*
D22*
X27950000Y-8650000D02*
X21900000Y-8650000D01*
X21900000Y-8650000D02*
X21150000Y-9400000D01*
X1278693Y-12048891D02*
X1278693Y-10928693D01*
X2920233Y-3105820D02*
X4850000Y-3225000D01*
X2970233Y-3105820D02*
X2920233Y-3105820D01*
X2920233Y-3105820D02*
X2970233Y-3105820D01*
X1200000Y-4850000D02*
X2920233Y-3105820D01*
X1278693Y-10928693D02*
X1100000Y-10750000D01*
D21*
X20575000Y-9975000D02*
X21150000Y-9400000D01*
X20575000Y-10850000D02*
X20575000Y-9975000D01*
X11497538Y-3259692D02*
X10750000Y-3225000D01*
D22*
X12000000Y-3500000D02*
X11497538Y-3259692D01*
D21*
X10750000Y-3225000D02*
X11425000Y-3225000D01*
D22*
X20575000Y-10850000D02*
X20575000Y-4950000D01*
X10750000Y-3225000D02*
X4850000Y-3225000D01*
D21*
X1278693Y-12048891D02*
X1278693Y-12078693D01*
D22*
X1278693Y-12078693D02*
X2900000Y-13700000D01*
D21*
X7039783Y-27360218D02*
X8089782Y-27360218D01*
X8089782Y-27360218D02*
X9950000Y-25500000D01*
X7432091Y-28525467D02*
X7432091Y-27752526D01*
X7432091Y-27752526D02*
X7039783Y-27360218D01*
X7039783Y-27360218D02*
X6170921Y-26491356D01*
X9075387Y-22429228D02*
X9026058Y-22387689D01*
X9917909Y-23867909D02*
X9917909Y-25624533D01*
X9026058Y-22387689D02*
X9917909Y-23867909D01*
X9075387Y-22429227D02*
X9075387Y-22429228D01*
X9925175Y-25473452D02*
X9925175Y-25473452D01*
D22*
X12250000Y-18750000D02*
X9075387Y-22429228D01*
D21*
X13750000Y-18750000D02*
X12250000Y-18750000D01*
X6659801Y-26980236D02*
X6170921Y-26491356D01*
X13750000Y-22750000D02*
X13750000Y-22250000D01*
X13750000Y-22750000D02*
X13300000Y-22750000D01*
X13300000Y-22750000D02*
X12750000Y-23300000D01*
X12750000Y-23300000D02*
X12750000Y-24100000D01*
X3714349Y-20709793D02*
X3714349Y-20178093D01*
X3714349Y-20178093D02*
X4717909Y-19174533D01*
X3714349Y-20709793D02*
X3714349Y-20078093D01*
X13750000Y-17250000D02*
X8557558Y-17250000D01*
X8557558Y-17250000D02*
X7882091Y-17925467D01*
X13750000Y-17750000D02*
X10257558Y-17750000D01*
X10257558Y-17750000D02*
X9082091Y-18925467D01*
X20600000Y-26900000D02*
X20600000Y-26800000D01*
X20600000Y-26800000D02*
X21400000Y-26000000D01*
X21400000Y-26000000D02*
X22100000Y-26000000D01*
X22100000Y-26000000D02*
X22250000Y-25850000D01*
X22250000Y-25850000D02*
X22250000Y-24750000D01*
X11182091Y-18625467D02*
X11557558Y-18250000D01*
X11557558Y-18250000D02*
X13750000Y-18250000D01*
X20400000Y-18600000D02*
X20000000Y-18600000D01*
X20450000Y-18550000D02*
X20400000Y-18600000D01*
X10217909Y-19774533D02*
X10217909Y-19589649D01*
X10217909Y-19589649D02*
X10217909Y-19774533D01*
X9025467Y-21317909D02*
X9025467Y-21317909D01*
D22*
X9025467Y-21317909D02*
X10217909Y-19774533D01*
D21*
X9203147Y-19999801D02*
X9992641Y-19999801D01*
D22*
X6919048Y-17815580D02*
X7631523Y-16944480D01*
X6950000Y-18150000D02*
X6919048Y-17815580D01*
X9203147Y-19999801D02*
X6950000Y-18150000D01*
X7500000Y-16193376D02*
X7631523Y-16944480D01*
D21*
X9992641Y-19999801D02*
X10217909Y-19774533D01*
X7500000Y-16193376D02*
X7332091Y-16025467D01*
D22*
X8650000Y-16250000D02*
X7556624Y-16250000D01*
D21*
X7556624Y-16250000D02*
X7332091Y-16025467D01*
X24300000Y-15250000D02*
X24300000Y-15050000D01*
D22*
X24300000Y-15050000D02*
X25250000Y-14100000D01*
D21*
X25250000Y-15250000D02*
X24300000Y-15250000D01*
X24300000Y-15250000D02*
X20850000Y-15250000D01*
D22*
X20850000Y-15250000D02*
X19850000Y-16250000D01*
X19850000Y-16250000D02*
X17650000Y-16250000D01*
D21*
X13750000Y-16250000D02*
X12500000Y-16250000D01*
D22*
X406994Y-9700000D02*
X-472485Y-10579479D01*
X909517Y-9654024D02*
X406994Y-9700000D01*
X8650000Y-16250000D02*
X909517Y-9654024D01*
X12500000Y-16250000D02*
X8650000Y-16250000D01*
D21*
X22250000Y-24750000D02*
X22250000Y-20850000D01*
D22*
X22250000Y-20850000D02*
X20000000Y-18600000D01*
X20000000Y-18600000D02*
X17650000Y-16250000D01*
X17650000Y-16250000D02*
X15050000Y-16250000D01*
D21*
X15050000Y-16250000D02*
X13750000Y-16250000D01*
X10232091Y-19875467D02*
X10232091Y-20060351D01*
X13750000Y-18250000D02*
X11557558Y-18250000D01*
X11557558Y-18250000D02*
X10217909Y-19774533D01*
X10174533Y-22282091D02*
X10174533Y-22168843D01*
X10174533Y-22168843D02*
X11025467Y-21317909D01*
X13750000Y-21250000D02*
X11093376Y-21250000D01*
X11093376Y-21250000D02*
X11025467Y-21317909D01*
X13750000Y-21750000D02*
X12706624Y-21750000D01*
X12706624Y-21750000D02*
X12174533Y-22282091D01*
X5656627Y-27104268D02*
X5554268Y-27104268D01*
X5554268Y-27104268D02*
X4700000Y-26250000D01*
X4700000Y-26250000D02*
X4700000Y-25700000D01*
X4700000Y-25700000D02*
X5449244Y-24780903D01*
X5449244Y-24780903D02*
X8100000Y-20100000D01*
X8100000Y-20100000D02*
X8117909Y-20074533D01*
X6917909Y-19074533D02*
X6900000Y-19100000D01*
X3550000Y-26100000D02*
X5142332Y-27717180D01*
X3550000Y-24000000D02*
X3550000Y-26100000D01*
X6900000Y-19100000D02*
X3550000Y-24000000D01*
X18250000Y-23850000D02*
X18250000Y-24750000D01*
X17450000Y-23050000D02*
X18250000Y-23850000D01*
X18750000Y-24750000D02*
X18750000Y-22450000D01*
X19450000Y-23100000D02*
X19250000Y-23300000D01*
X19250000Y-23300000D02*
X19250000Y-24750000D01*
X23750000Y-17700000D02*
X23750000Y-19100000D01*
X23750000Y-19100000D02*
X23900000Y-19250000D01*
X23900000Y-19250000D02*
X25250000Y-19250000D01*
X19750000Y-24750000D02*
X19750000Y-23850000D01*
X20650000Y-22950000D02*
X21450000Y-22950000D01*
X19750000Y-23850000D02*
X20650000Y-22950000D01*
X27850000Y-19350000D02*
X27450000Y-19750000D01*
X27450000Y-19750000D02*
X25250000Y-19750000D01*
X25250000Y-22250000D02*
X26650000Y-22250000D01*
X26650000Y-22250000D02*
X26800000Y-22400000D01*
M02*
