G04 #@! TF.FileFunction,Profile,NP*
%FSLAX46Y46*%
G04 Gerber Fmt 4.6, Leading zero omitted, Abs format (unit mm)*
G04 Created by KiCad (PCBNEW 4.0.2+dfsg1-stable) date Tue 19 Jul 2016 04:40:27 PM CEST*
%MOMM*%
G01*
G04 APERTURE LIST*
%ADD10C,0.100000*%
%ADD11C,0.254000*%
G04 APERTURE END LIST*
D10*
D11*
X5831860Y16441400D02*
X5727720Y16438860D01*
X5727720Y16438860D02*
X5626120Y16433780D01*
X5626120Y16433780D02*
X5521980Y16426160D01*
X5521980Y16426160D02*
X5420380Y16416000D01*
X5420380Y16416000D02*
X5318780Y16403300D01*
X5318780Y16403300D02*
X5217180Y16385520D01*
X5217180Y16385520D02*
X5115580Y16367740D01*
X5115580Y16367740D02*
X5016520Y16344880D01*
X5016520Y16344880D02*
X4914920Y16319480D01*
X4914920Y16319480D02*
X4815860Y16291540D01*
X4815860Y16291540D02*
X4716800Y16261060D01*
X4716800Y16261060D02*
X4620280Y16228040D01*
X4620280Y16228040D02*
X4523760Y16192480D01*
X4523760Y16192480D02*
X4427240Y16151840D01*
X4427240Y16151840D02*
X4333260Y16111200D01*
X4333260Y16111200D02*
X4239280Y16065480D01*
X4239280Y16065480D02*
X4147840Y16017220D01*
X4147840Y16017220D02*
X4056400Y15966420D01*
X4056400Y15966420D02*
X3967500Y15913080D01*
X3967500Y15913080D02*
X3878600Y15857200D01*
X3878600Y15857200D02*
X3789700Y15798780D01*
X3789700Y15798780D02*
X3705880Y15737820D01*
X3705880Y15737820D02*
X3622060Y15674320D01*
X3622060Y15674320D02*
X3538240Y15605740D01*
X3538240Y15605740D02*
X3456960Y15537160D01*
X3456960Y15537160D02*
X3378220Y15463500D01*
X3378220Y15463500D02*
X3302020Y15389840D01*
X3302020Y15389840D02*
X-11678900Y408920D01*
X-11678900Y408920D02*
X-11790660Y294620D01*
X-11790660Y294620D02*
X-11892260Y175240D01*
X-11892260Y175240D02*
X-11986240Y55860D01*
X-11986240Y55860D02*
X-12072600Y-66060D01*
X-12072600Y-66060D02*
X-12153880Y-187980D01*
X-12153880Y-187980D02*
X-12225000Y-312440D01*
X-12225000Y-312440D02*
X-12288500Y-439440D01*
X-12288500Y-439440D02*
X-12346920Y-566440D01*
X-12346920Y-566440D02*
X-12395180Y-693440D01*
X-12395180Y-693440D02*
X-12438360Y-822980D01*
X-12438360Y-822980D02*
X-12471380Y-952520D01*
X-12471380Y-952520D02*
X-12499320Y-1082060D01*
X-12499320Y-1082060D02*
X-12519640Y-1211600D01*
X-12519640Y-1211600D02*
X-12534880Y-1341140D01*
X-12534880Y-1341140D02*
X-12539960Y-1470680D01*
X-12539960Y-1470680D02*
X-12539960Y-1600220D01*
X-12539960Y-1600220D02*
X-12532340Y-1727220D01*
X-12532340Y-1727220D02*
X-12519640Y-1854220D01*
X-12519640Y-1854220D02*
X-12496780Y-1981220D01*
X-12496780Y-1981220D02*
X-12468840Y-2105680D01*
X-12468840Y-2105680D02*
X-12435820Y-2227600D01*
X-12435820Y-2227600D02*
X-12392640Y-2349520D01*
X-12392640Y-2349520D02*
X-12344380Y-2468900D01*
X-12344380Y-2468900D02*
X-12291040Y-2585740D01*
X-12291040Y-2585740D02*
X-12230080Y-2700040D01*
X-12230080Y-2700040D02*
X-12164040Y-2811800D01*
X-12164040Y-2811800D02*
X-12090380Y-2921020D01*
X-12090380Y-2921020D02*
X-12009100Y-3027700D01*
X-12009100Y-3027700D02*
X-11922740Y-3131840D01*
X-11922740Y-3131840D02*
X-11831300Y-3230900D01*
X-11831300Y-3230900D02*
X-11732240Y-3327420D01*
X-11732240Y-3327420D02*
X-11628100Y-3418860D01*
X-11628100Y-3418860D02*
X2839740Y-15560060D01*
X2839740Y-15560060D02*
X2961660Y-15659120D01*
X2961660Y-15659120D02*
X3073420Y-15755640D01*
X3073420Y-15755640D02*
X3177560Y-15847080D01*
X3177560Y-15847080D02*
X3274080Y-15938520D01*
X3274080Y-15938520D02*
X3362980Y-16027420D01*
X3362980Y-16027420D02*
X3439180Y-16116320D01*
X3439180Y-16116320D02*
X3510300Y-16202680D01*
X3510300Y-16202680D02*
X3571260Y-16289040D01*
X3571260Y-16289040D02*
X3622060Y-16372860D01*
X3622060Y-16372860D02*
X3665240Y-16459220D01*
X3665240Y-16459220D02*
X3698260Y-16545580D01*
X3698260Y-16545580D02*
X3721120Y-16631940D01*
X3721120Y-16631940D02*
X3736360Y-16720840D01*
X3736360Y-16720840D02*
X3741440Y-16812280D01*
X3741440Y-16812280D02*
X3733820Y-16903720D01*
X3733820Y-16903720D02*
X3718580Y-17000240D01*
X3718580Y-17000240D02*
X3693180Y-17099300D01*
X3693180Y-17099300D02*
X3657620Y-17200900D01*
X3657620Y-17200900D02*
X3609360Y-17305040D01*
X3609360Y-17305040D02*
X3553480Y-17414260D01*
X3553480Y-17414260D02*
X3484900Y-17528560D01*
X3484900Y-17528560D02*
X3406160Y-17647940D01*
X3406160Y-17647940D02*
X3317260Y-17772400D01*
X3317260Y-17772400D02*
X3215660Y-17904480D01*
X3215660Y-17904480D02*
X3103900Y-18039100D01*
X3103900Y-18039100D02*
X-4030960Y-26543020D01*
X-4030960Y-26543020D02*
X-4124940Y-26652240D01*
X-4124940Y-26652240D02*
X-4216380Y-26761460D01*
X-4216380Y-26761460D02*
X-4302740Y-26873220D01*
X-4302740Y-26873220D02*
X-4381480Y-26982440D01*
X-4381480Y-26982440D02*
X-4457680Y-27094200D01*
X-4457680Y-27094200D02*
X-4528800Y-27203420D01*
X-4528800Y-27203420D02*
X-4594840Y-27315180D01*
X-4594840Y-27315180D02*
X-4653260Y-27426940D01*
X-4653260Y-27426940D02*
X-4709140Y-27536160D01*
X-4709140Y-27536160D02*
X-4759940Y-27647920D01*
X-4759940Y-27647920D02*
X-4805660Y-27759680D01*
X-4805660Y-27759680D02*
X-4846300Y-27868900D01*
X-4846300Y-27868900D02*
X-4881860Y-27980660D01*
X-4881860Y-27980660D02*
X-4912340Y-28089880D01*
X-4912340Y-28089880D02*
X-4937740Y-28201640D01*
X-4937740Y-28201640D02*
X-4960600Y-28310860D01*
X-4960600Y-28310860D02*
X-4975840Y-28420080D01*
X-4975840Y-28420080D02*
X-4986000Y-28529300D01*
X-4986000Y-28529300D02*
X-4993620Y-28638520D01*
X-4993620Y-28638520D02*
X-4993620Y-28747740D01*
X-4993620Y-28747740D02*
X-4991080Y-28856960D01*
X-4991080Y-28856960D02*
X-4983460Y-28963640D01*
X-4983460Y-28963640D02*
X-4970760Y-29072860D01*
X-4970760Y-29072860D02*
X-4952980Y-29179540D01*
X-4952980Y-29179540D02*
X-4930120Y-29286220D01*
X-4930120Y-29286220D02*
X-4902180Y-29392900D01*
X-4902180Y-29392900D02*
X-4869160Y-29497040D01*
X-4869160Y-29497040D02*
X-4831060Y-29601180D01*
X-4831060Y-29601180D02*
X-4790420Y-29705320D01*
X-4790420Y-29705320D02*
X-4742160Y-29809460D01*
X-4742160Y-29809460D02*
X-4691360Y-29911060D01*
X-4691360Y-29911060D02*
X-4635480Y-30012660D01*
X-4635480Y-30012660D02*
X-4066520Y-31130260D01*
X-4066520Y-31130260D02*
X-3997940Y-31257260D01*
X-3997940Y-31257260D02*
X-3924280Y-31381720D01*
X-3924280Y-31381720D02*
X-3848080Y-31503640D01*
X-3848080Y-31503640D02*
X-3766800Y-31620480D01*
X-3766800Y-31620480D02*
X-3680440Y-31732240D01*
X-3680440Y-31732240D02*
X-3589000Y-31841460D01*
X-3589000Y-31841460D02*
X-3495020Y-31945600D01*
X-3495020Y-31945600D02*
X-3398500Y-32047200D01*
X-3398500Y-32047200D02*
X-3296900Y-32143720D01*
X-3296900Y-32143720D02*
X-3190220Y-32237700D01*
X-3190220Y-32237700D02*
X-3083540Y-32324060D01*
X-3083540Y-32324060D02*
X-2971780Y-32407880D01*
X-2971780Y-32407880D02*
X-2857480Y-32486620D01*
X-2857480Y-32486620D02*
X-2740640Y-32562820D01*
X-2740640Y-32562820D02*
X-2621260Y-32631400D01*
X-2621260Y-32631400D02*
X-2496800Y-32697440D01*
X-2496800Y-32697440D02*
X-2372340Y-32758400D01*
X-2372340Y-32758400D02*
X-2245340Y-32814280D01*
X-2245340Y-32814280D02*
X-2115800Y-32865080D01*
X-2115800Y-32865080D02*
X-1986260Y-32910800D01*
X-1986260Y-32910800D02*
X-1851640Y-32951440D01*
X-1851640Y-32951440D02*
X-1717020Y-32987000D01*
X-1717020Y-32987000D02*
X-1579860Y-33017480D01*
X-1579860Y-33017480D02*
X-1442700Y-33042880D01*
X-1442700Y-33042880D02*
X-1303000Y-33063200D01*
X-1303000Y-33063200D02*
X-1163300Y-33078440D01*
X-1163300Y-33078440D02*
X-1021060Y-33086060D01*
X-1021060Y-33086060D02*
X-881360Y-33088600D01*
X-881360Y-33088600D02*
X-736580Y-33086060D01*
X-736580Y-33086060D02*
X-594340Y-33078440D01*
X-594340Y-33078440D02*
X-449560Y-33065740D01*
X-449560Y-33065740D02*
X-307320Y-33045420D01*
X-307320Y-33045420D02*
X25867380Y-28900140D01*
X25867380Y-28900140D02*
X26009620Y-28874740D01*
X26009620Y-28874740D02*
X26151860Y-28841720D01*
X26151860Y-28841720D02*
X26289020Y-28806160D01*
X26289020Y-28806160D02*
X26426180Y-28765520D01*
X26426180Y-28765520D02*
X26560800Y-28717260D01*
X26560800Y-28717260D02*
X26692880Y-28666460D01*
X26692880Y-28666460D02*
X26822420Y-28608040D01*
X26822420Y-28608040D02*
X26946880Y-28547080D01*
X26946880Y-28547080D02*
X27071340Y-28481040D01*
X27071340Y-28481040D02*
X27190720Y-28409920D01*
X27190720Y-28409920D02*
X27307560Y-28333720D01*
X27307560Y-28333720D02*
X27421860Y-28252440D01*
X27421860Y-28252440D02*
X27533620Y-28168620D01*
X27533620Y-28168620D02*
X27640300Y-28079720D01*
X27640300Y-28079720D02*
X27744440Y-27988280D01*
X27744440Y-27988280D02*
X27843500Y-27891760D01*
X27843500Y-27891760D02*
X27940020Y-27792700D01*
X27940020Y-27792700D02*
X28034000Y-27688560D01*
X28034000Y-27688560D02*
X28120360Y-27581880D01*
X28120360Y-27581880D02*
X28206720Y-27470120D01*
X28206720Y-27470120D02*
X28285460Y-27355820D01*
X28285460Y-27355820D02*
X28361660Y-27238980D01*
X28361660Y-27238980D02*
X28432780Y-27119600D01*
X28432780Y-27119600D02*
X28498820Y-26995140D01*
X28498820Y-26995140D02*
X28559780Y-26868140D01*
X28559780Y-26868140D02*
X28618200Y-26741140D01*
X28618200Y-26741140D02*
X28669000Y-26609060D01*
X28669000Y-26609060D02*
X28717260Y-26474440D01*
X28717260Y-26474440D02*
X28757900Y-26337280D01*
X28757900Y-26337280D02*
X28796000Y-26200120D01*
X28796000Y-26200120D02*
X28826480Y-26057880D01*
X28826480Y-26057880D02*
X28851880Y-25915640D01*
X28851880Y-25915640D02*
X32997160Y259060D01*
X32997160Y259060D02*
X33017480Y403840D01*
X33017480Y403840D02*
X33030180Y546080D01*
X33030180Y546080D02*
X33040340Y688320D01*
X33040340Y688320D02*
X33040340Y833100D01*
X33040340Y833100D02*
X33037800Y975340D01*
X33037800Y975340D02*
X33030180Y1115040D01*
X33030180Y1115040D02*
X33014940Y1254740D01*
X33014940Y1254740D02*
X32994620Y1394440D01*
X32994620Y1394440D02*
X32969220Y1531600D01*
X32969220Y1531600D02*
X32938740Y1668760D01*
X32938740Y1668760D02*
X32903180Y1803380D01*
X32903180Y1803380D02*
X32862540Y1938000D01*
X32862540Y1938000D02*
X32816820Y2067540D01*
X32816820Y2067540D02*
X32766020Y2197080D01*
X32766020Y2197080D02*
X32710140Y2324080D01*
X32710140Y2324080D02*
X32649180Y2451080D01*
X32649180Y2451080D02*
X32585680Y2573000D01*
X32585680Y2573000D02*
X32514560Y2692380D01*
X32514560Y2692380D02*
X32440900Y2809220D01*
X32440900Y2809220D02*
X32359620Y2923520D01*
X32359620Y2923520D02*
X32275800Y3035280D01*
X32275800Y3035280D02*
X32189440Y3144500D01*
X32189440Y3144500D02*
X32095460Y3248640D01*
X32095460Y3248640D02*
X31998940Y3350240D01*
X31998940Y3350240D02*
X31897340Y3446760D01*
X31897340Y3446760D02*
X31793200Y3540740D01*
X31793200Y3540740D02*
X31683980Y3632180D01*
X31683980Y3632180D02*
X31572220Y3718540D01*
X31572220Y3718540D02*
X31455380Y3799820D01*
X31455380Y3799820D02*
X31333460Y3878560D01*
X31333460Y3878560D02*
X31209000Y3949680D01*
X31209000Y3949680D02*
X31082000Y4018260D01*
X31082000Y4018260D02*
X7470160Y16050240D01*
X7470160Y16050240D02*
X7376180Y16095960D01*
X7376180Y16095960D02*
X7284740Y16136600D01*
X7284740Y16136600D02*
X7190760Y16177240D01*
X7190760Y16177240D02*
X7096780Y16215340D01*
X7096780Y16215340D02*
X7000260Y16248360D01*
X7000260Y16248360D02*
X6906280Y16278840D01*
X6906280Y16278840D02*
X6809760Y16306780D01*
X6809760Y16306780D02*
X6713240Y16334720D01*
X6713240Y16334720D02*
X6616720Y16357580D01*
X6616720Y16357580D02*
X6517660Y16377900D01*
X6517660Y16377900D02*
X6421140Y16393140D01*
X6421140Y16393140D02*
X6322080Y16408380D01*
X6322080Y16408380D02*
X6225560Y16421080D01*
X6225560Y16421080D02*
X6126500Y16428700D01*
X6126500Y16428700D02*
X6027440Y16436320D01*
X6027440Y16436320D02*
X5928380Y16441400D01*
X5928380Y16441400D02*
X5831860Y16441400D01*
X5831860Y16441400D02*
X5831860Y16441400D01*
X10000000Y-4998740D02*
X10119380Y-5001280D01*
X10119380Y-5001280D02*
X10238760Y-5006360D01*
X10238760Y-5006360D02*
X10360680Y-5013980D01*
X10360680Y-5013980D02*
X10480060Y-5021600D01*
X10480060Y-5021600D02*
X10599440Y-5036840D01*
X10599440Y-5036840D02*
X10718820Y-5052080D01*
X10718820Y-5052080D02*
X10835660Y-5069860D01*
X10835660Y-5069860D02*
X10955040Y-5092720D01*
X10955040Y-5092720D02*
X11071880Y-5115580D01*
X11071880Y-5115580D02*
X11191260Y-5143520D01*
X11191260Y-5143520D02*
X11308100Y-5174000D01*
X11308100Y-5174000D02*
X11422400Y-5207020D01*
X11422400Y-5207020D02*
X11539240Y-5242580D01*
X11539240Y-5242580D02*
X11653540Y-5280680D01*
X11653540Y-5280680D02*
X11767840Y-5321320D01*
X11767840Y-5321320D02*
X11882140Y-5367040D01*
X11882140Y-5367040D02*
X11993900Y-5412760D01*
X11993900Y-5412760D02*
X12105660Y-5463560D01*
X12105660Y-5463560D02*
X12214880Y-5516900D01*
X12214880Y-5516900D02*
X12324100Y-5572780D01*
X12324100Y-5572780D02*
X12433320Y-5631200D01*
X12433320Y-5631200D02*
X12540000Y-5692160D01*
X12540000Y-5692160D02*
X12646680Y-5755660D01*
X12646680Y-5755660D02*
X12750820Y-5824240D01*
X12750820Y-5824240D02*
X12854960Y-5892820D01*
X12854960Y-5892820D02*
X12956560Y-5966480D01*
X12956560Y-5966480D02*
X13055620Y-6042680D01*
X13055620Y-6042680D02*
X13154680Y-6121420D01*
X13154680Y-6121420D02*
X13253740Y-6202700D01*
X13253740Y-6202700D02*
X13347720Y-6286520D01*
X13347720Y-6286520D02*
X13444240Y-6375420D01*
X13444240Y-6375420D02*
X13535680Y-6464320D01*
X13535680Y-6464320D02*
X13713480Y-6652280D01*
X13713480Y-6652280D02*
X13878580Y-6845320D01*
X13878580Y-6845320D02*
X14033520Y-7043440D01*
X14033520Y-7043440D02*
X14175760Y-7249180D01*
X14175760Y-7249180D02*
X14307840Y-7460000D01*
X14307840Y-7460000D02*
X14427220Y-7675900D01*
X14427220Y-7675900D02*
X14536440Y-7894340D01*
X14536440Y-7894340D02*
X14632960Y-8117860D01*
X14632960Y-8117860D02*
X14719320Y-8346460D01*
X14719320Y-8346460D02*
X14792980Y-8577600D01*
X14792980Y-8577600D02*
X14856480Y-8808740D01*
X14856480Y-8808740D02*
X14907280Y-9044960D01*
X14907280Y-9044960D02*
X14947920Y-9281180D01*
X14947920Y-9281180D02*
X14975860Y-9519940D01*
X14975860Y-9519940D02*
X14993640Y-9761240D01*
X14993640Y-9761240D02*
X14998720Y-10000000D01*
X14998720Y-10000000D02*
X14993640Y-10238760D01*
X14993640Y-10238760D02*
X14975860Y-10480060D01*
X14975860Y-10480060D02*
X14947920Y-10718820D01*
X14947920Y-10718820D02*
X14907280Y-10955040D01*
X14907280Y-10955040D02*
X14856480Y-11191260D01*
X14856480Y-11191260D02*
X14792980Y-11422400D01*
X14792980Y-11422400D02*
X14719320Y-11653540D01*
X14719320Y-11653540D02*
X14632960Y-11882140D01*
X14632960Y-11882140D02*
X14536440Y-12105660D01*
X14536440Y-12105660D02*
X14427220Y-12324100D01*
X14427220Y-12324100D02*
X14307840Y-12540000D01*
X14307840Y-12540000D02*
X14175760Y-12750820D01*
X14175760Y-12750820D02*
X14033520Y-12956560D01*
X14033520Y-12956560D02*
X13878580Y-13154680D01*
X13878580Y-13154680D02*
X13713480Y-13347720D01*
X13713480Y-13347720D02*
X13535680Y-13535680D01*
X13535680Y-13535680D02*
X13347720Y-13713480D01*
X13347720Y-13713480D02*
X13154680Y-13878580D01*
X13154680Y-13878580D02*
X12956560Y-14033520D01*
X12956560Y-14033520D02*
X12750820Y-14175760D01*
X12750820Y-14175760D02*
X12540000Y-14307840D01*
X12540000Y-14307840D02*
X12324100Y-14427220D01*
X12324100Y-14427220D02*
X12105660Y-14536440D01*
X12105660Y-14536440D02*
X11882140Y-14632960D01*
X11882140Y-14632960D02*
X11653540Y-14719320D01*
X11653540Y-14719320D02*
X11422400Y-14792980D01*
X11422400Y-14792980D02*
X11191260Y-14856480D01*
X11191260Y-14856480D02*
X10955040Y-14907280D01*
X10955040Y-14907280D02*
X10718820Y-14947920D01*
X10718820Y-14947920D02*
X10480060Y-14975860D01*
X10480060Y-14975860D02*
X10238760Y-14993640D01*
X10238760Y-14993640D02*
X10000000Y-14998720D01*
X10000000Y-14998720D02*
X9761240Y-14993640D01*
X9761240Y-14993640D02*
X9519940Y-14975860D01*
X9519940Y-14975860D02*
X9281180Y-14947920D01*
X9281180Y-14947920D02*
X9044960Y-14907280D01*
X9044960Y-14907280D02*
X8808740Y-14856480D01*
X8808740Y-14856480D02*
X8577600Y-14792980D01*
X8577600Y-14792980D02*
X8346460Y-14719320D01*
X8346460Y-14719320D02*
X8117860Y-14632960D01*
X8117860Y-14632960D02*
X7894340Y-14536440D01*
X7894340Y-14536440D02*
X7675900Y-14427220D01*
X7675900Y-14427220D02*
X7460000Y-14307840D01*
X7460000Y-14307840D02*
X7249180Y-14175760D01*
X7249180Y-14175760D02*
X7043440Y-14033520D01*
X7043440Y-14033520D02*
X6845320Y-13878580D01*
X6845320Y-13878580D02*
X6652280Y-13713480D01*
X6652280Y-13713480D02*
X6464320Y-13535680D01*
X6464320Y-13535680D02*
X6286520Y-13347720D01*
X6286520Y-13347720D02*
X6121420Y-13154680D01*
X6121420Y-13154680D02*
X5966480Y-12956560D01*
X5966480Y-12956560D02*
X5824240Y-12750820D01*
X5824240Y-12750820D02*
X5692160Y-12540000D01*
X5692160Y-12540000D02*
X5572780Y-12324100D01*
X5572780Y-12324100D02*
X5463560Y-12105660D01*
X5463560Y-12105660D02*
X5367040Y-11882140D01*
X5367040Y-11882140D02*
X5280680Y-11653540D01*
X5280680Y-11653540D02*
X5207020Y-11422400D01*
X5207020Y-11422400D02*
X5143520Y-11191260D01*
X5143520Y-11191260D02*
X5092720Y-10955040D01*
X5092720Y-10955040D02*
X5052080Y-10718820D01*
X5052080Y-10718820D02*
X5024140Y-10480060D01*
X5024140Y-10480060D02*
X5006360Y-10238760D01*
X5006360Y-10238760D02*
X5001280Y-10000000D01*
X5001280Y-10000000D02*
X5006360Y-9761240D01*
X5006360Y-9761240D02*
X5024140Y-9519940D01*
X5024140Y-9519940D02*
X5052080Y-9281180D01*
X5052080Y-9281180D02*
X5092720Y-9044960D01*
X5092720Y-9044960D02*
X5143520Y-8808740D01*
X5143520Y-8808740D02*
X5207020Y-8577600D01*
X5207020Y-8577600D02*
X5280680Y-8346460D01*
X5280680Y-8346460D02*
X5367040Y-8117860D01*
X5367040Y-8117860D02*
X5463560Y-7894340D01*
X5463560Y-7894340D02*
X5572780Y-7675900D01*
X5572780Y-7675900D02*
X5692160Y-7460000D01*
X5692160Y-7460000D02*
X5824240Y-7249180D01*
X5824240Y-7249180D02*
X5966480Y-7043440D01*
X5966480Y-7043440D02*
X6121420Y-6845320D01*
X6121420Y-6845320D02*
X6286520Y-6652280D01*
X6286520Y-6652280D02*
X6464320Y-6464320D01*
X6464320Y-6464320D02*
X6555760Y-6375420D01*
X6555760Y-6375420D02*
X6652280Y-6286520D01*
X6652280Y-6286520D02*
X6746260Y-6202700D01*
X6746260Y-6202700D02*
X6845320Y-6121420D01*
X6845320Y-6121420D02*
X6944380Y-6042680D01*
X6944380Y-6042680D02*
X7043440Y-5966480D01*
X7043440Y-5966480D02*
X7145040Y-5892820D01*
X7145040Y-5892820D02*
X7249180Y-5824240D01*
X7249180Y-5824240D02*
X7353320Y-5755660D01*
X7353320Y-5755660D02*
X7460000Y-5692160D01*
X7460000Y-5692160D02*
X7566680Y-5631200D01*
X7566680Y-5631200D02*
X7675900Y-5572780D01*
X7675900Y-5572780D02*
X7785120Y-5516900D01*
X7785120Y-5516900D02*
X7894340Y-5463560D01*
X7894340Y-5463560D02*
X8006100Y-5412760D01*
X8006100Y-5412760D02*
X8117860Y-5367040D01*
X8117860Y-5367040D02*
X8232160Y-5321320D01*
X8232160Y-5321320D02*
X8346460Y-5280680D01*
X8346460Y-5280680D02*
X8460760Y-5242580D01*
X8460760Y-5242580D02*
X8577600Y-5207020D01*
X8577600Y-5207020D02*
X8691900Y-5174000D01*
X8691900Y-5174000D02*
X8808740Y-5143520D01*
X8808740Y-5143520D02*
X8928120Y-5115580D01*
X8928120Y-5115580D02*
X9044960Y-5092720D01*
X9044960Y-5092720D02*
X9164340Y-5069860D01*
X9164340Y-5069860D02*
X9281180Y-5052080D01*
X9281180Y-5052080D02*
X9400560Y-5036840D01*
X9400560Y-5036840D02*
X9519940Y-5021600D01*
X9519940Y-5021600D02*
X9639320Y-5013980D01*
X9639320Y-5013980D02*
X9761240Y-5006360D01*
X9761240Y-5006360D02*
X9880620Y-5001280D01*
X9880620Y-5001280D02*
X10000000Y-4998740D01*
X10000000Y-4998740D02*
X10000000Y-4998740D01*
M02*
